<?xml version="1.0" standalone="no"?>
<!DOCTYPE svg PUBLIC "-//W3C//DTD SVG 20010904//EN"
 "http://www.w3.org/TR/2001/REC-SVG-20010904/DTD/svg10.dtd">
<svg version="1.0" xmlns="http://www.w3.org/2000/svg"
 width="2475.000000pt" height="3300.000000pt" viewBox="0 0 2475.000000 3300.000000"
 preserveAspectRatio="xMidYMid meet">
<metadata>
Created by potrace 1.16, written by Peter Selinger 2001-2019
</metadata>
<g transform="translate(0.000000,3300.000000) scale(0.100000,-0.100000)"
fill="#000000" stroke="none">
<path d="M18570 31059 c-260 -13 -665 -80 -966 -159 -537 -141 -1048 -371
-1525 -687 -573 -379 -1135 -958 -1468 -1514 -371 -619 -573 -1194 -671 -1909
-29 -215 -39 -711 -19 -961 10 -131 71 -517 109 -692 65 -296 214 -705 377
-1032 248 -495 571 -928 1011 -1356 l179 -174 6 -167 c6 -183 5 -187 -48 -115
-53 72 -73 79 -244 78 -83 0 -172 -6 -198 -11 -66 -15 -186 -80 -310 -168 -23
-17 -56 -23 -175 -31 l-147 -11 -87 56 c-129 84 -265 151 -392 190 -107 34
-119 36 -265 37 -177 1 -266 -13 -457 -75 -331 -107 -552 -215 -865 -423 -433
-288 -733 -585 -912 -905 -130 -230 -219 -610 -211 -901 3 -126 3 -128 33
-159 17 -18 62 -50 102 -71 l71 -40 -53 -75 c-59 -82 -166 -285 -215 -409 -86
-216 -184 -528 -241 -767 -13 -54 -26 -98 -30 -98 -11 0 -184 245 -294 415
-240 373 -338 594 -415 937 -31 139 -53 211 -91 298 -123 280 -137 348 -120
557 17 212 14 402 -8 508 -28 137 -229 665 -319 839 -54 106 -123 204 -237
337 -102 120 -191 238 -355 469 -139 196 -220 285 -299 325 -47 23 -63 26
-120 23 -128 -8 -226 -80 -292 -213 -38 -76 -42 -93 -47 -178 -7 -144 29 -279
124 -470 79 -156 126 -214 276 -344 87 -74 99 -89 113 -135 8 -28 15 -77 15
-107 0 -146 63 -336 171 -517 98 -164 97 -161 54 -290 -49 -145 -65 -228 -73
-364 l-7 -115 -41 65 c-64 102 -225 411 -296 570 -36 80 -91 201 -121 269
-112 247 -167 312 -429 504 -478 348 -853 534 -1037 513 -123 -15 -608 -235
-974 -444 -87 -50 -100 -61 -118 -102 -32 -71 -22 -141 40 -265 67 -135 110
-182 218 -238 195 -99 342 -125 529 -91 194 34 218 29 484 -101 114 -56 221
-107 238 -113 23 -8 32 -18 37 -44 11 -52 70 -169 118 -234 24 -32 95 -113
158 -179 102 -107 188 -219 178 -230 -3 -2 -40 19 -84 48 -231 149 -644 365
-750 392 -161 41 -469 -5 -841 -126 -167 -54 -276 -100 -316 -134 -98 -82
-177 -221 -281 -490 -36 -93 -77 -198 -91 -232 -36 -91 -40 -133 -21 -198 21
-72 82 -135 173 -178 63 -30 74 -32 178 -32 107 0 112 1 185 37 81 40 175 119
235 198 46 60 81 73 244 90 58 6 134 18 169 26 57 13 66 13 81 -1 10 -9 35
-15 63 -15 63 0 155 -21 331 -75 81 -25 150 -45 152 -45 2 0 -6 -16 -18 -35
-19 -29 -32 -36 -78 -46 -30 -6 -131 -28 -225 -50 -93 -21 -203 -44 -243 -50
-70 -12 -73 -11 -97 11 -15 14 -41 24 -69 27 -61 7 -130 -27 -227 -113 -104
-92 -119 -99 -182 -83 -32 8 -88 12 -142 9 -49 -2 -144 -4 -211 -4 l-121 0
-164 81 c-90 44 -205 96 -255 114 l-91 33 46 89 c45 86 46 91 46 180 0 82 -3
97 -27 137 -36 62 -94 94 -159 88 -26 -3 -55 -10 -63 -17 -8 -7 -22 -44 -31
-83 -9 -39 -26 -97 -40 -129 -28 -70 -103 -186 -124 -194 -29 -11 -173 -36
-178 -31 -13 12 208 384 283 477 61 77 137 130 297 210 118 58 162 97 173 154
8 44 -18 91 -66 120 -29 16 -52 20 -135 20 -87 0 -112 -5 -195 -34 -248 -87
-358 -165 -473 -339 -35 -53 -105 -148 -155 -211 -64 -80 -101 -138 -126 -195
l-34 -81 -87 -9 c-84 -8 -88 -8 -154 23 -107 49 -201 42 -277 -22 -23 -19 -43
-27 -71 -27 -22 0 -75 -9 -118 -20 -43 -11 -80 -18 -83 -16 -2 3 6 42 18 88
40 148 42 162 37 226 -4 48 -11 70 -32 98 -38 49 -82 74 -133 74 -124 0 -202
-114 -202 -295 0 -83 -16 -158 -42 -190 -11 -14 -55 -54 -99 -89 -43 -35 -105
-92 -136 -127 -51 -58 -63 -66 -132 -88 -65 -20 -94 -23 -196 -22 -256 4 -464
-82 -526 -218 -21 -48 -23 -49 -73 -55 -144 -18 -249 -146 -267 -325 -7 -60
-15 -91 -28 -105 -56 -61 -101 -204 -101 -318 l0 -75 -60 -48 c-170 -136 -250
-287 -250 -469 0 -87 26 -232 50 -276 7 -14 6 -54 -5 -135 -8 -64 -15 -150
-15 -192 l0 -77 -104 -100 c-155 -152 -226 -275 -226 -395 0 -43 5 -62 18 -74
46 -42 92 -11 189 125 44 62 92 124 106 136 l25 24 7 -68 c7 -58 5 -74 -15
-118 -110 -251 -131 -328 -136 -494 l-4 -124 -57 -37 c-163 -106 -255 -291
-238 -477 l7 -72 -40 -22 c-105 -59 -69 -159 42 -118 44 16 44 16 50 -8 9 -35
148 -215 207 -268 108 -97 243 -175 332 -191 20 -4 37 -12 37 -19 1 -6 18 -24
40 -41 77 -60 117 -181 107 -325 -8 -107 5 -193 43 -281 82 -193 488 -880 673
-1139 258 -360 549 -645 787 -770 200 -104 469 -131 722 -74 l70 16 31 -30 30
-30 -88 -99 c-116 -130 -258 -321 -435 -583 -155 -229 -249 -339 -374 -434
-133 -102 -327 -215 -644 -375 -474 -239 -595 -318 -788 -508 -275 -272 -482
-651 -632 -1158 -147 -492 -189 -814 -198 -1515 -7 -533 6 -481 -249 -924
-184 -319 -205 -365 -212 -460 -12 -153 36 -325 162 -581 128 -262 257 -458
409 -623 52 -57 66 -79 62 -95 -27 -111 -31 -181 -30 -492 1 -334 5 -389 54
-810 11 -93 23 -217 26 -275 4 -58 11 -110 16 -117 7 -8 -3 -15 -34 -23 -73
-20 -259 -81 -348 -115 -89 -34 -594 -262 -712 -321 l-68 -34 0 -66 0 -66 33
20 c187 111 463 248 647 322 107 43 256 103 330 133 74 30 212 79 305 108 94
29 172 55 174 56 3 2 0 8 -5 13 -7 7 -48 5 -125 -5 -63 -8 -116 -15 -119 -15
-3 0 -6 40 -8 88 -1 48 -18 227 -37 397 -45 405 -59 705 -45 933 5 96 13 178
16 183 3 5 69 -55 147 -133 154 -155 298 -276 419 -351 157 -98 256 -114 556
-91 190 14 207 14 255 -2 96 -32 270 -110 506 -228 294 -148 445 -199 649
-222 51 -5 62 -10 62 -25 0 -52 -94 -375 -204 -704 -144 -427 -159 -483 -221
-818 -48 -265 -69 -337 -112 -400 -83 -120 -502 -415 -828 -583 -284 -147
-449 -199 -930 -295 -496 -99 -669 -144 -1025 -269 -96 -34 -235 -82 -308
-107 l-132 -45 0 -44 0 -44 53 21 c28 12 124 47 212 79 418 151 628 207 1195
320 484 97 665 152 936 288 293 147 672 401 830 556 114 112 134 167 199 536
45 257 85 411 175 670 160 457 235 729 270 980 11 80 21 160 22 179 3 31 7 35
67 56 87 32 175 94 311 221 162 152 235 207 399 304 95 56 164 105 202 142
l57 58 60 -63 c159 -167 491 -544 633 -717 181 -221 321 -426 514 -748 148
-248 154 -265 230 -643 60 -297 97 -441 152 -589 71 -192 128 -284 378 -610
95 -124 194 -258 221 -299 l49 -74 200 5 201 5 43 -106 c50 -121 183 -413 291
-638 l73 -153 44 0 c41 0 44 2 37 23 -3 12 -19 47 -35 78 -126 251 -371 804
-361 813 3 3 15 6 26 6 38 0 265 59 481 125 422 129 578 156 1104 195 921 68
1277 142 1711 357 80 39 145 71 146 70 4 -5 330 -564 444 -763 148 -255 298
-497 462 -741 l108 -163 76 0 c58 0 73 3 68 12 -5 7 -73 112 -153 233 -417
635 -806 1255 -879 1402 l-41 81 53 41 c139 107 300 296 474 558 l82 122 134
80 c149 89 332 183 506 259 143 63 558 206 790 273 435 125 608 196 968 396
233 128 513 313 630 415 56 48 57 46 121 -250 22 -97 53 -219 69 -271 29 -89
30 -97 21 -185 -14 -134 -42 -286 -115 -613 -87 -394 -97 -464 -98 -673 -1
-194 8 -253 70 -458 59 -193 131 -364 274 -647 147 -291 208 -396 317 -547 38
-53 83 -126 99 -162 l28 -66 68 0 67 0 -74 97 c-172 230 -265 384 -414 683
-155 311 -227 481 -286 675 -56 187 -68 273 -62 470 5 193 13 238 102 640 73
330 84 401 94 610 6 138 5 156 -15 220 -12 39 -39 147 -59 240 -48 219 -62
268 -85 298 l-19 24 49 48 48 47 17 -32 c26 -50 42 -101 90 -280 82 -308 132
-452 275 -795 143 -346 215 -557 242 -715 5 -30 13 -327 17 -660 9 -640 15
-725 66 -1005 47 -252 135 -565 160 -565 8 0 15 4 15 10 0 5 -23 94 -51 197
-126 466 -146 651 -129 1233 21 706 -11 881 -270 1485 -103 239 -139 343 -200
575 -48 180 -156 514 -184 567 -13 25 -11 30 24 77 48 64 83 135 115 230 28
85 32 154 10 196 -9 17 -11 30 -6 30 18 0 130 -131 242 -285 139 -190 239
-311 456 -551 344 -380 682 -825 895 -1179 427 -707 766 -1399 1144 -2333 53
-130 99 -241 104 -245 4 -5 26 -7 48 -5 l41 3 -133 325 c-361 887 -689 1558
-1088 2230 -198 333 -475 713 -806 1104 l-58 69 8 76 c4 42 12 220 18 396 10
320 21 465 41 553 5 26 67 166 138 312 70 146 157 331 192 413 35 81 68 147
73 147 5 0 7 -103 3 -252 -6 -310 7 -789 28 -960 35 -299 106 -507 216 -639
45 -54 168 -142 227 -162 113 -39 194 -109 292 -252 80 -119 142 -176 220
-206 50 -19 68 -21 184 -15 179 9 198 2 333 -126 82 -77 123 -108 180 -136 72
-34 81 -36 222 -42 l147 -6 90 -45 c88 -44 90 -44 189 -43 117 1 190 22 300
86 121 71 350 319 568 617 28 37 49 58 51 50 110 -330 455 -1116 757 -1724
321 -648 480 -927 886 -1552 l145 -223 49 0 c27 0 49 2 49 4 0 3 -60 96 -133
208 -355 540 -514 809 -760 1283 -358 691 -843 1777 -912 2040 -8 32 -19 62
-25 65 -6 4 -6 18 0 41 35 119 90 762 90 1042 0 117 -2 127 -30 183 -16 32
-65 100 -109 149 -73 83 -289 292 -337 325 -12 8 -29 40 -39 70 -38 116 -114
282 -159 344 -55 78 -118 131 -183 156 -43 16 -49 22 -56 56 -5 22 -67 275
-137 564 -71 289 -176 728 -234 976 -58 248 -111 463 -117 478 -15 31 -45 34
-54 5 -15 -47 37 -327 181 -979 146 -658 210 -906 274 -1054 l19 -45 -24 -15
c-14 -9 -35 -34 -47 -55 l-22 -39 -72 62 c-39 33 -87 73 -107 88 -94 72 -184
457 -239 1023 -16 157 -16 860 -1 1015 10 101 11 106 43 130 148 114 283 232
519 453 186 175 322 278 741 566 351 241 428 301 391 301 -10 0 -459 -306
-776 -528 -192 -135 -638 -465 -780 -576 -60 -48 -111 -83 -113 -78 -2 6 1 60
7 122 11 133 -12 102 246 335 203 184 253 237 526 560 243 288 224 264 212
276 -7 7 -73 -63 -205 -218 -210 -246 -297 -333 -453 -459 -124 -99 -300 -234
-306 -234 -2 0 -2 71 -1 157 7 275 -30 1244 -59 1588 -37 445 -90 753 -193
1125 -30 107 -60 222 -67 255 -7 33 -37 130 -67 215 -29 85 -54 162 -55 170
-4 29 110 33 413 16 1163 -67 1482 -69 1975 -16 179 20 476 61 570 79 60 12
58 14 121 -118 67 -138 92 -208 194 -520 131 -404 179 -525 281 -712 150 -271
332 -510 598 -783 205 -209 338 -303 626 -440 83 -40 182 -88 221 -108 l71
-37 16 -88 c39 -215 93 -639 118 -920 10 -115 9 -142 -6 -210 -33 -155 -107
-396 -255 -833 -374 -1103 -505 -1563 -589 -2066 -111 -665 -104 -1177 24
-1709 63 -266 147 -489 286 -768 158 -314 352 -573 580 -774 454 -398 928
-549 1362 -432 l77 21 0 133 c0 131 -1 134 -35 206 -19 41 -45 115 -59 164
-84 309 -100 357 -151 460 -29 61 -90 169 -135 240 -165 261 -201 348 -264
625 -58 261 -81 316 -254 594 -149 242 -174 306 -212 548 -53 337 -78 400
-317 781 -68 109 -158 264 -198 345 -133 265 -263 600 -287 740 l-11 67 67
210 c37 116 71 213 75 218 4 4 33 -66 65 -155 125 -346 300 -766 388 -928 23
-41 88 -151 146 -245 122 -197 198 -339 241 -446 27 -70 81 -242 191 -614 53
-180 95 -269 218 -457 174 -268 228 -385 336 -723 63 -198 131 -358 176 -415
l20 -25 0 24 c0 13 -18 57 -40 97 -25 45 -75 177 -131 345 -107 325 -173 466
-325 699 -130 200 -170 283 -224 465 -203 688 -209 701 -455 1100 -158 258
-262 478 -428 910 -84 221 -116 322 -129 417 l-11 77 108 318 c60 175 110 320
112 323 7 7 52 -53 71 -95 13 -28 21 -77 26 -155 22 -356 77 -719 146 -955 83
-286 162 -488 418 -1070 278 -633 472 -1137 761 -1980 l100 -290 0 129 1 129
-76 221 c-143 416 -364 1011 -497 1337 -30 74 -130 305 -222 514 -456 1037
-516 1282 -565 2335 -21 453 -41 684 -91 1069 -60 470 -109 707 -291 1421 -60
239 -112 447 -115 461 -4 21 4 32 51 67 30 23 59 42 63 42 5 0 19 -42 32 -92
13 -51 77 -282 143 -513 348 -1225 397 -1516 443 -2590 44 -1019 117 -1410
370 -1990 31 -71 146 -310 255 -530 248 -502 293 -606 431 -1010 l68 -200 1
136 0 135 -59 162 c-95 258 -173 433 -372 833 -103 207 -212 432 -242 500
-218 494 -299 863 -346 1564 -15 219 -24 461 -18 455 3 -3 20 -88 37 -190 48
-276 68 -330 195 -530 116 -183 241 -459 308 -681 41 -132 63 -236 102 -471
19 -119 47 -251 61 -294 34 -104 102 -234 193 -368 41 -61 90 -138 108 -171
l33 -60 0 81 c0 65 -6 96 -30 163 -28 77 -31 98 -45 334 -33 561 -92 1064
-170 1455 -63 315 -127 546 -282 1017 -214 657 -294 980 -296 1200 0 56 11
186 26 295 48 363 61 530 61 795 -1 261 -12 397 -59 710 -57 378 -109 619
-276 1290 -225 901 -296 1140 -399 1350 -65 134 -121 204 -206 260 l-56 37 6
52 c3 28 13 157 21 286 16 236 28 359 43 415 8 28 11 29 72 33 58 4 68 8 102
40 45 44 82 128 131 297 42 143 59 249 61 365 1 102 -8 121 -89 177 -30 21
-54 42 -55 47 0 5 29 122 64 260 36 138 88 350 116 471 27 121 55 240 62 264
6 24 45 94 85 155 85 128 193 336 193 372 0 13 3 24 8 23 4 0 55 -73 113 -162
105 -159 107 -163 113 -232 10 -125 74 -206 147 -185 29 8 30 7 203 -238 95
-136 210 -301 255 -366 l81 -119 0 77 0 77 -152 217 c-83 119 -188 269 -234
333 -73 102 -84 124 -90 171 -8 71 11 119 59 141 19 9 81 22 138 28 125 12
185 36 239 95 l40 44 0 282 c0 224 -3 294 -16 338 -8 30 -18 101 -21 158 -5
95 -4 105 16 132 17 24 21 43 21 113 l0 84 -397 289 c-444 322 -513 376 -693
539 -155 140 -427 417 -502 510 -342 428 -371 858 -86 1267 180 258 379 435
639 568 174 89 266 118 394 125 44 2 107 9 140 15 72 12 403 29 463 22 l42 -4
0 55 0 55 -47 4 c-70 7 -382 -19 -461 -38 -37 -9 -114 -17 -172 -19 -90 -2
-121 -7 -213 -38 l-109 -36 -81 19 c-45 10 -140 28 -212 40 -76 12 -147 30
-170 43 -22 11 -76 54 -119 94 -85 78 -95 83 -239 109 -74 14 -92 15 -113 3
-21 -11 -29 -10 -52 3 -15 9 -43 19 -64 23 -46 9 -132 -30 -241 -110 l-75 -55
-64 14 c-58 14 -263 40 -386 49 -29 2 -54 6 -57 9 -2 2 2 28 11 58 8 30 34
133 59 229 44 173 45 175 92 224 26 27 98 91 158 142 458 384 851 853 1122
1340 334 599 519 1182 595 1870 21 193 18 802 -6 990 -115 935 -447 1721
-1045 2474 -136 171 -466 508 -636 650 -532 443 -1151 780 -1790 975 -191 58
-489 131 -591 145 -44 6 -113 18 -154 26 -229 45 -719 64 -1120 44z m650 -119
c242 -16 372 -30 550 -61 561 -96 1117 -294 1625 -579 155 -87 488 -311 627
-422 949 -759 1570 -1824 1738 -2983 5 -33 14 -96 20 -140 17 -122 24 -683 11
-885 -53 -848 -383 -1721 -916 -2425 -54 -71 -137 -182 -185 -245 -113 -150
-327 -379 -525 -560 -86 -80 -161 -146 -166 -148 -5 -2 -9 5 -9 15 0 10 -8 31
-18 48 l-18 30 61 95 c206 316 329 624 370 925 26 184 30 453 11 619 -17 152
-55 333 -88 423 -25 70 -25 100 -3 176 32 113 -11 217 -153 368 -112 120 -190
224 -292 394 -104 173 -227 355 -319 470 l-79 100 27 14 c92 47 182 222 216
418 19 106 19 178 0 313 -41 301 -42 458 -1 499 11 11 52 17 153 23 254 14
365 45 398 108 39 76 12 115 -125 185 -115 59 -152 92 -278 248 -68 84 -138
135 -230 170 -86 31 -288 31 -392 -2 -143 -44 -299 -138 -433 -261 l-53 -48
-73 84 c-119 136 -303 305 -410 374 l-23 16 30 61 c38 74 120 183 248 328 204
232 273 345 282 464 3 54 0 77 -18 119 -39 91 -140 167 -275 208 -82 25 -291
25 -436 0 l-105 -18 -105 36 c-399 136 -712 189 -966 165 -171 -16 -272 -43
-533 -144 -156 -60 -307 -110 -365 -119 -30 -5 -76 2 -176 28 -260 67 -339 68
-436 3 -90 -60 -206 -244 -240 -381 -13 -56 -14 -75 -4 -120 25 -112 125 -213
321 -325 127 -72 132 -78 149 -204 6 -43 11 -80 11 -83 0 -2 -30 -19 -67 -38
-115 -58 -255 -156 -329 -230 -78 -79 -121 -138 -175 -239 l-36 -68 -61 108
c-126 227 -220 339 -325 391 -98 48 -165 55 -505 48 -434 -9 -545 -27 -634
-106 -54 -47 -72 -86 -65 -141 9 -68 49 -117 125 -151 222 -100 276 -131 348
-202 40 -40 83 -94 99 -125 35 -70 67 -200 94 -379 26 -170 60 -294 104 -377
32 -60 100 -137 147 -166 l24 -16 -71 -109 c-333 -512 -461 -919 -432 -1371
l8 -127 -43 -70 c-304 -503 -444 -923 -463 -1389 l-6 -158 -29 28 c-52 49
-230 251 -291 331 -324 419 -591 1061 -691 1662 -36 218 -64 465 -76 675 -19
355 -8 838 25 1084 9 62 14 115 12 117 -7 7 -57 -266 -77 -416 -18 -142 -33
-327 -46 -580 -13 -276 51 -833 136 -1180 79 -318 196 -634 341 -921 107 -210
208 -369 346 -539 128 -158 319 -360 342 -360 14 0 21 -21 39 -127 11 -71 32
-166 45 -211 26 -88 24 -89 -35 -15 -18 22 -98 115 -178 205 -197 223 -286
340 -427 558 -294 453 -488 897 -619 1413 -23 93 -80 406 -104 577 -31 218
-29 782 3 1060 94 799 412 1591 896 2234 110 145 356 431 429 497 33 30 125
116 207 192 371 349 932 700 1435 899 420 166 762 256 1245 328 237 35 659 48
935 30z m12 -1376 c146 -19 371 -74 558 -138 152 -52 160 -53 405 -34 148 11
162 10 187 -6 15 -10 30 -26 33 -37 5 -14 16 -19 41 -19 39 0 39 1 18 41 -15
30 -15 31 8 24 92 -27 185 -91 214 -146 16 -33 18 -108 4 -161 -15 -53 -93
-165 -207 -298 -137 -160 -168 -189 -256 -237 -42 -24 -79 -43 -82 -43 -3 0 2
11 11 25 19 28 18 29 -23 14 -17 -5 -49 -32 -71 -58 -36 -43 -54 -53 -174
-101 -154 -61 -242 -89 -388 -124 -203 -48 -317 -60 -583 -60 l-247 -1 -87
-75 c-48 -41 -117 -103 -154 -137 -67 -61 -67 -61 -41 -68 15 -4 153 -10 307
-14 l280 -6 -95 -13 c-269 -37 -469 -34 -637 8 -86 22 -261 104 -308 145 l-30
25 60 -26 c81 -36 264 -96 281 -92 7 2 66 51 131 109 65 58 134 120 153 137
l35 31 -27 1 c-14 0 -32 2 -40 5 -7 3 -60 -33 -117 -80 -80 -66 -111 -85 -130
-83 -21 2 -27 9 -29 33 -2 27 6 37 73 90 l75 59 -103 28 c-154 41 -274 88
-285 112 -11 24 -186 229 -227 266 -24 21 -22 16 12 -35 36 -54 103 -177 103
-189 0 -13 -170 81 -180 100 -13 22 -119 95 -249 170 -47 27 -109 73 -138 102
-110 109 -119 178 -40 335 59 116 105 179 159 214 64 43 157 39 364 -14 201
-52 260 -60 560 -74 179 -8 273 -8 365 0 67 6 125 13 127 15 6 7 -56 14 -363
41 -293 27 -309 29 -285 38 8 3 92 35 185 70 254 97 344 123 480 140 77 10
255 6 367 -9z m1125 -1468 c52 -43 148 -137 213 -208 l119 -130 -38 -51 c-21
-29 -58 -86 -82 -128 l-44 -75 -44 27 c-58 37 -138 53 -231 46 -113 -9 -192
-38 -305 -113 -55 -36 -91 -62 -80 -58 11 4 88 25 170 46 160 40 278 49 359
27 56 -16 135 -98 180 -190 31 -63 39 -91 47 -177 9 -88 8 -110 -6 -153 -16
-47 -104 -169 -155 -214 -12 -11 -25 -27 -29 -36 -3 -9 -62 -65 -131 -124
-290 -251 -472 -458 -759 -859 -98 -138 -203 -278 -232 -312 -123 -140 -256
-226 -374 -244 -33 -4 -67 -11 -76 -15 -24 -9 -113 94 -152 178 -62 130 -72
172 -71 287 1 174 59 357 188 589 35 64 83 161 107 216 24 55 76 164 116 243
41 78 72 142 70 142 -8 0 -284 -415 -341 -513 -90 -152 -182 -368 -246 -572
-14 -46 -46 -85 -70 -85 -20 0 -55 37 -64 66 -40 132 -78 764 -65 1074 4 107
10 224 13 260 4 44 -3 21 -19 -70 -26 -143 -50 -352 -61 -539 l-6 -114 -32 59
c-45 83 -80 137 -150 229 -62 82 -207 258 -234 285 -14 13 -14 12 0 -10 79
-131 154 -263 188 -329 22 -45 56 -106 76 -136 62 -98 112 -213 119 -273 3
-31 10 -79 16 -107 5 -27 15 -111 23 -185 l14 -135 -49 -81 c-27 -45 -65 -116
-85 -158 l-36 -76 -77 0 c-103 0 -294 -33 -371 -64 -23 -9 -47 21 -143 184
-164 279 -314 472 -494 637 -303 277 -340 323 -369 451 -14 61 -16 107 -11
246 9 276 42 412 124 513 70 86 100 109 225 173 132 68 187 117 236 208 40 75
41 93 1 48 -33 -38 -127 -111 -134 -104 -2 2 7 27 20 56 61 132 182 269 314
356 104 68 226 133 218 115 -87 -201 -89 -315 -7 -484 87 -180 237 -302 439
-358 65 -18 104 -21 271 -21 166 0 211 3 300 23 214 46 411 120 680 256 257
130 473 279 687 473 158 143 147 138 201 99 24 -18 87 -67 139 -111z m-3907
104 c181 -24 274 -113 449 -432 l42 -76 -41 -7 c-73 -12 -174 -71 -232 -134
-93 -100 -144 -217 -222 -506 -39 -146 -93 -295 -107 -295 -19 0 -90 125 -113
199 -13 42 -31 123 -41 181 -46 296 -74 401 -131 496 -84 141 -184 213 -465
337 -43 19 -59 32 -73 61 -20 42 -13 62 37 100 65 49 163 66 447 76 307 10
368 10 450 0z m5196 -175 c62 -32 89 -53 131 -105 144 -176 189 -216 299 -272
114 -58 123 -71 63 -101 -34 -16 -112 -26 -352 -45 -117 -10 -140 -21 -175
-87 -25 -48 -28 -239 -6 -408 24 -183 25 -388 1 -477 -27 -101 -105 -251 -146
-277 -19 -13 -41 -23 -50 -23 -9 0 -44 34 -78 74 l-62 73 12 39 c7 24 12 103
11 204 0 191 -19 297 -84 483 l-40 114 20 57 c44 128 133 257 230 330 28 21
49 40 47 43 -7 6 -157 -27 -206 -47 -62 -24 -149 -76 -184 -108 -37 -35 -107
-147 -152 -244 -53 -116 -76 -221 -82 -385 -6 -149 -1 -173 37 -173 37 0 45
28 51 184 6 132 11 163 38 246 17 52 40 111 50 130 l19 34 32 -63 c44 -88 106
-279 125 -386 16 -91 23 -344 10 -365 -5 -8 -31 14 -72 59 -36 39 -73 76 -84
82 -25 13 -59 -5 -59 -32 0 -11 58 -83 138 -172 164 -180 319 -366 417 -498
201 -269 491 -784 612 -1084 160 -398 206 -826 133 -1260 -43 -262 -126 -474
-293 -752 -152 -254 -323 -433 -518 -542 -107 -60 -305 -114 -467 -127 l-82
-7 23 54 c43 96 128 341 125 356 -3 15 -162 -244 -217 -355 -40 -79 -91 -129
-173 -169 -183 -88 -354 -76 -672 52 -184 73 -302 100 -414 93 -69 -5 -92 -11
-80 -23 3 -3 55 -17 114 -30 60 -14 120 -29 134 -35 14 -5 39 -15 55 -21 l30
-12 -40 -8 c-67 -13 -242 -10 -319 6 -67 14 -332 98 -343 108 -2 3 40 20 94
37 158 53 393 156 525 232 158 90 360 230 418 289 41 41 170 219 170 233 0 3
-55 -38 -123 -93 -273 -221 -491 -360 -731 -466 -335 -149 -684 -241 -1096
-289 -595 -69 -1118 18 -1634 275 -65 32 -204 116 -310 186 -215 142 -272 184
-401 292 -128 108 -135 112 -91 56 123 -156 278 -302 445 -420 78 -55 77 -53
44 -48 -75 11 -135 29 -208 60 -44 19 -91 39 -105 44 -23 8 -23 7 5 -16 76
-63 253 -125 355 -125 24 0 137 -51 169 -77 20 -15 -145 -53 -234 -53 -158 0
-384 84 -565 210 -41 29 -118 97 -172 152 -86 88 -100 108 -133 186 -44 106
-80 226 -103 347 -25 131 -24 531 1 670 39 210 95 398 181 601 60 142 217 429
290 529 12 16 13 37 6 115 -48 495 79 883 492 1506 l103 155 2 -48 c8 -141 44
-233 127 -321 43 -47 47 -54 26 -48 -49 14 -136 23 -170 19 -66 -8 -65 -15 6
-33 39 -10 99 -32 132 -49 73 -37 88 -38 97 -9 7 19 11 17 56 -33 27 -30 62
-76 78 -103 29 -49 29 -49 24 -177 -9 -194 24 -313 114 -418 70 -82 225 -161
317 -161 20 0 35 -7 44 -20 11 -18 10 -21 -10 -29 -13 -5 -86 -34 -163 -66
-398 -163 -604 -136 -685 90 -22 61 -25 87 -25 198 0 118 -1 126 -14 95 -7
-18 -22 -69 -33 -113 -38 -149 -7 -277 88 -365 93 -86 216 -114 383 -86 99 17
103 17 117 -1 7 -10 13 -20 13 -23 0 -3 -48 -38 -107 -79 -115 -80 -388 -283
-437 -326 -16 -14 22 7 85 48 274 175 561 337 821 464 101 49 260 110 352 135
72 20 105 23 267 22 260 0 413 -35 599 -135 96 -52 173 -114 292 -236 160
-164 294 -358 442 -643 148 -285 335 -580 407 -645 31 -28 -358 747 -458 911
-92 153 -188 284 -295 404 -75 85 -75 85 -52 98 45 23 161 44 245 44 81 0 139
-10 450 -79 158 -34 332 -36 443 -5 83 24 122 47 156 92 l21 29 -43 -19 c-63
-27 -118 -33 -243 -25 l-113 7 -40 61 c-22 34 -38 63 -37 65 2 2 39 -2 83 -8
43 -6 96 -10 118 -8 l40 4 -59 18 c-33 10 -91 21 -130 25 l-70 6 -17 45 c-9
25 -19 59 -22 77 -6 31 -5 32 59 62 165 77 295 274 349 530 36 171 19 204
-106 210 -43 2 -79 6 -79 10 0 11 236 240 404 391 207 186 269 275 302 431 24
117 -1 246 -70 353 -33 52 -33 53 -18 92 79 200 310 433 535 540 114 53 166
64 303 61 120 -2 122 -2 200 -42z m-1548 -1923 c27 -18 -38 -257 -100 -365
l-33 -59 -6 51 c-13 99 -76 175 -158 189 l-44 7 60 75 c66 84 79 96 108 103
34 8 159 7 173 -1z m-2945 -171 c34 -41 56 -76 50 -78 -32 -11 -92 -65 -123
-111 -19 -28 -38 -52 -41 -52 -10 0 -29 85 -36 154 -5 57 10 197 24 219 7 11
17 -1 126 -132z m2541 -602 c10 -39 33 -100 50 -135 18 -35 29 -64 25 -64 -18
0 -189 65 -244 92 -33 17 -93 53 -133 81 -67 46 -71 51 -57 67 13 15 29 17
103 13 68 -4 185 4 232 16 3 0 14 -31 24 -70z m2564 -357 c37 -70 45 -134 19
-160 -15 -14 -17 -13 -25 9 -18 46 -61 145 -106 244 l-46 100 62 -65 c35 -36
78 -93 96 -128z m-13462 -1861 c70 -41 113 -91 307 -364 93 -130 221 -298 284
-374 230 -275 271 -352 473 -893 99 -265 105 -300 101 -530 -3 -107 -5 -265
-5 -350 -1 -153 0 -156 35 -255 20 -55 59 -152 87 -215 38 -86 60 -157 87
-278 19 -90 49 -207 66 -260 41 -126 138 -338 224 -488 72 -128 291 -459 405
-614 130 -178 228 -374 289 -581 56 -188 71 -286 81 -545 10 -262 26 -365 81
-521 27 -74 28 -86 16 -104 -20 -28 -178 -173 -257 -235 -167 -132 -479 -312
-628 -362 -58 -19 -63 -20 -57 -4 20 49 38 122 65 262 17 85 37 187 45 226
l16 71 76 7 c66 5 84 11 128 41 56 39 216 195 199 195 -5 0 -26 -16 -45 -36
-57 -60 -148 -97 -291 -117 -36 -5 -38 -5 -44 30 -13 70 54 240 169 432 32 52
55 96 53 98 -4 4 -107 -134 -165 -220 -86 -128 -144 -300 -206 -619 -64 -325
-89 -398 -173 -505 -50 -62 -126 -103 -191 -103 -122 1 -258 129 -316 297 -48
138 -79 522 -56 682 30 205 131 471 245 646 74 113 38 90 -69 -45 -107 -134
-169 -244 -207 -365 -17 -55 -33 -102 -34 -104 -2 -2 -70 59 -151 134 -168
157 -329 297 -388 340 -30 22 -22 9 36 -51 280 -294 338 -356 386 -415 29 -36
53 -68 53 -70 0 -2 -41 -5 -91 -6 -49 -1 -147 -12 -217 -23 -264 -43 -342 -36
-511 46 -81 39 -109 60 -182 133 -103 104 -164 195 -271 406 -138 272 -178
324 -358 459 -211 159 -335 310 -449 547 -70 144 -100 239 -114 360 l-10 87
-96 6 c-131 10 -139 5 -202 -110 -27 -52 -79 -134 -115 -183 -35 -50 -68 -101
-73 -113 -5 -13 -12 -76 -16 -141 -4 -64 -12 -120 -18 -124 -6 -3 -85 71 -176
165 -91 94 -186 187 -210 206 -43 33 -90 119 -71 131 4 3 22 29 39 59 28 50
34 56 88 71 70 20 162 65 215 104 80 59 124 141 134 250 8 80 -2 72 114 92 36
6 130 26 210 44 80 19 161 37 182 40 l36 7 -29 -93 c-29 -94 -36 -139 -20
-139 4 0 16 21 26 48 57 154 188 365 288 464 214 211 577 442 814 518 97 31
295 70 361 70 31 1 34 2 18 11 -13 8 -50 7 -139 -6 -182 -26 -339 -67 -488
-129 -12 -5 -19 6 -33 51 -50 159 -110 252 -271 418 -58 61 -119 129 -135 151
-28 39 -100 176 -100 188 0 3 28 6 63 6 34 0 112 10 172 22 l110 23 -111 6
c-177 9 -309 47 -494 141 -85 44 -190 94 -233 112 l-77 33 82 50 c46 28 110
77 143 108 63 59 61 61 -20 9 -121 -76 -255 -127 -432 -163 -204 -42 -358 -21
-535 71 -93 48 -123 82 -185 205 -58 116 -60 153 -14 211 35 44 132 107 220
142 74 29 180 27 301 -6 117 -31 187 -33 262 -5 68 26 123 82 162 166 24 49
28 68 23 112 -6 61 11 89 47 78 12 -3 46 -12 77 -20 214 -53 551 -242 919
-515 160 -119 233 -189 281 -270 21 -36 90 -182 154 -325 124 -279 284 -589
371 -722 49 -73 104 -133 123 -133 4 0 19 80 34 178 38 249 114 572 134 572 3
0 61 -18 128 -40 153 -49 250 -66 291 -49 27 11 23 13 -68 25 -114 15 -162 27
-235 59 -102 46 -137 79 -206 199 -112 193 -140 276 -162 478 -17 165 -31 196
-117 270 -120 101 -212 202 -257 281 -54 95 -112 231 -136 317 -21 75 -25 207
-7 265 21 71 74 148 126 183 88 59 139 64 212 23z m6979 -671 c39 -30 90 -75
115 -98 59 -58 201 -164 323 -242 l98 -63 -6 -41 c-4 -23 -22 -126 -41 -230
-19 -104 -34 -191 -34 -193 0 -16 -266 183 -410 306 -110 95 -103 75 -119 321
-6 91 -13 198 -16 238 -6 84 -12 83 90 2z m6135 12 c0 -26 -42 -220 -94 -432
-52 -212 -98 -402 -101 -423 -6 -33 -38 -67 -51 -54 -2 2 11 102 31 223 19
120 37 255 41 299 4 50 15 99 29 130 29 65 49 149 42 182 -4 22 4 38 40 80 25
29 49 50 54 47 5 -3 9 -26 9 -52z m-7977 -127 c31 -8 96 -35 144 -59 92 -47
182 -102 148 -91 -78 26 -256 55 -340 55 -111 0 -172 -12 -267 -51 -262 -108
-426 -325 -628 -829 -90 -224 -180 -403 -254 -500 -131 -174 -637 -628 -888
-798 -82 -55 -227 -132 -250 -132 -8 0 -60 27 -115 60 -111 67 -113 70 -113
175 0 69 26 274 50 396 28 137 63 237 130 374 136 279 337 507 676 771 378
294 779 501 1178 609 50 14 91 23 93 21 2 -2 -24 -18 -57 -35 -80 -43 -209
-141 -257 -195 -57 -65 -178 -274 -306 -531 -197 -396 -222 -439 -373 -662
-148 -220 -210 -305 -274 -378 l-34 -40 33 30 c55 49 237 259 310 358 109 147
229 354 377 648 87 174 210 391 260 461 50 67 144 151 225 199 125 75 354 157
439 158 20 1 61 -6 93 -14z m1481 -35 l31 -1 -22 -18 c-13 -11 -23 -26 -23
-33 0 -8 -48 -64 -108 -124 -155 -159 -288 -362 -376 -575 -37 -89 -116 -423
-116 -488 l0 -37 -202 -27 c-112 -15 -209 -27 -217 -27 -10 0 -12 13 -9 55 3
30 7 57 10 60 5 6 280 34 330 35 23 0 27 5 33 41 4 22 5 42 3 44 -2 3 -82 -2
-177 -11 -95 -9 -175 -13 -178 -11 -7 8 36 210 47 221 9 9 178 23 306 25 51 1
51 1 63 42 7 23 11 42 9 43 -2 1 -82 -1 -178 -5 -96 -4 -176 -6 -177 -5 -8 6
93 254 111 272 10 10 94 7 290 -9 47 -4 49 -3 62 29 8 18 14 37 14 42 0 5 -46
12 -102 16 -57 4 -129 9 -160 13 l-57 5 30 45 c17 24 58 73 91 109 l60 64 148
0 148 0 31 39 c17 21 31 42 31 45 0 3 -53 6 -117 6 l-118 0 50 32 c93 59 145
76 250 86 55 6 113 8 129 6 16 -2 43 -4 60 -4z m-8402 -27 c24 -21 23 -38 -6
-98 -24 -52 -92 -122 -142 -148 -55 -27 -80 -28 -161 -2 -43 13 -105 30 -137
38 l-58 13 113 54 c136 64 350 159 363 159 5 1 18 -6 28 -16z m14592 -111
c-207 -180 -649 -384 -1045 -481 -308 -76 -653 -129 -1020 -157 -288 -21
-1061 -16 -1239 10 -304 44 -606 109 -930 202 -297 86 -549 186 -1032 412 -90
43 -126 71 -72 58 16 -4 72 -13 124 -20 82 -11 116 -22 245 -81 440 -200 809
-320 1291 -419 392 -81 646 -101 1154 -93 730 11 1343 105 1805 277 113 42
402 178 484 228 25 16 82 43 126 60 44 18 94 41 110 52 28 18 30 19 34 3 2
-11 -12 -31 -35 -51z m-5979 -84 c4 -57 8 -114 10 -127 1 -13 13 -32 27 -42
14 -11 74 -60 134 -110 365 -308 708 -512 1169 -697 480 -192 1187 -352 1780
-402 615 -52 1426 66 1990 290 337 134 934 439 1017 520 30 30 38 49 57 130
12 52 26 113 32 134 l11 39 93 -7 c100 -7 321 -34 344 -41 8 -4 -19 -38 -77
-98 -116 -117 -181 -198 -293 -367 -139 -207 -310 -570 -371 -789 l-23 -81
-430 -2 c-236 -1 -617 0 -845 1 -417 3 -869 -10 -1055 -30 -234 -24 -395 -87
-525 -206 -42 -37 -101 -90 -133 -117 l-58 -49 -87 6 c-103 7 -222 42 -291 86
-52 34 -112 95 -233 238 -183 217 -340 316 -643 408 -755 229 -1714 348 -2238
279 l-49 -7 7 69 c15 145 91 390 176 570 78 163 223 358 328 438 42 31 97 53
162 65 4 1 10 -45 14 -101z m-989 -42 c-177 -207 -316 -610 -351 -1016 l-6
-76 -40 -12 c-66 -20 -219 -92 -303 -141 -97 -56 -194 -148 -229 -217 -46 -91
-71 -256 -87 -570 -10 -182 -13 -1387 -5 -1396 3 -2 6 -161 8 -353 5 -366 13
-458 57 -613 28 -100 64 -167 159 -301 45 -62 81 -117 81 -123 0 -19 -222
-308 -237 -308 -8 0 -23 -10 -32 -21 -35 -43 -52 -21 -168 209 -146 289 -174
392 -238 867 -32 235 -84 742 -92 890 -27 512 -26 636 3 1035 40 550 147 1041
304 1394 125 278 312 543 497 701 l74 63 102 7 c56 4 194 13 307 20 113 7 213
13 223 14 14 1 7 -12 -27 -53z m-766 -2 c0 -4 -35 -43 -78 -88 -295 -307 -569
-749 -727 -1173 -20 -54 -38 -99 -40 -101 -1 -1 -53 11 -116 27 -63 16 -124
31 -136 33 -21 3 -18 9 42 93 86 119 147 239 245 481 44 109 108 254 141 321
101 205 242 382 306 384 27 0 340 25 356 28 4 0 7 -2 7 -5z m7736 -275 c-20
-123 -39 -236 -42 -251 -4 -21 -22 -35 -85 -68 -43 -22 -79 -39 -79 -36 0 21
64 433 75 482 2 11 29 37 58 57 29 20 64 49 78 63 l24 26 3 -24 c2 -14 -13
-126 -32 -249z m-5134 192 c4 -4 -11 -113 -35 -243 l-42 -236 -43 25 c-23 14
-42 30 -42 37 0 6 18 113 40 236 22 123 40 226 40 228 0 4 69 -36 82 -47z
m6549 -52 c19 -5 57 -25 82 -45 66 -52 62 -83 -13 -99 -152 -32 -412 -242
-602 -485 -170 -219 -357 -586 -433 -852 -17 -60 -32 -72 -73 -54 -20 9 -23
15 -17 45 31 167 205 541 372 799 30 46 53 89 51 97 -2 8 -34 -29 -73 -81 -68
-91 -71 -94 -103 -90 -19 3 -88 11 -153 17 -65 7 -119 17 -119 21 0 7 47 82
64 104 1 1 48 -5 106 -12 114 -14 140 -8 140 30 0 35 -17 43 -102 51 -43 4
-78 11 -78 16 0 15 73 109 85 109 31 0 296 -50 312 -59 16 -8 24 -4 47 25 l27
35 -43 18 c-24 11 -90 26 -148 36 -144 23 -140 19 -96 64 l37 38 122 -27 c80
-17 134 -34 156 -49 l32 -23 30 28 c16 15 29 30 29 34 0 3 -24 20 -52 38 -36
21 -82 37 -145 49 -51 10 -93 21 -93 25 0 12 62 58 78 58 9 0 90 -15 178 -34
151 -31 163 -32 188 -17 16 9 26 25 26 38 0 13 -2 23 -3 23 -2 0 -68 14 -145
30 -78 17 -144 30 -148 30 -16 0 13 23 57 46 33 16 55 22 62 16 7 -5 35 -14
62 -20 28 -6 93 -24 146 -40 85 -26 100 -28 130 -17 19 7 43 16 53 19 19 7 19
7 -1 21 -11 8 -53 26 -94 40 -73 26 -73 26 -24 20 28 -4 66 -10 86 -16z
m-6041 -166 c74 -30 138 -57 141 -59 5 -3 -66 -502 -73 -509 -6 -7 -225 87
-397 171 l-173 84 7 57 c6 55 43 266 66 379 l10 51 142 -59 c78 -33 203 -84
277 -115z m4400 114 c0 -2 -13 -89 -29 -193 -17 -104 -33 -215 -37 -247 l-6
-58 -69 -35 c-60 -30 -69 -32 -69 -17 0 10 9 122 21 250 l22 231 76 35 c74 34
91 41 91 34z m-260 -131 c0 -33 -39 -426 -45 -457 -4 -19 -20 -32 -62 -53 -30
-15 -58 -25 -60 -22 -6 6 16 415 25 469 7 37 11 41 67 62 77 29 75 29 75 1z
m2201 -61 c162 -25 257 -42 292 -52 14 -3 -7 -22 -80 -73 -120 -85 -160 -118
-290 -244 -88 -85 -102 -104 -105 -135 -3 -32 -6 -36 -28 -34 -55 3 -232 -296
-285 -482 -31 -107 -43 -267 -27 -370 9 -56 9 -72 -2 -85 -39 -43 -81 -248
-98 -470 -23 -320 26 -679 132 -955 125 -327 187 -454 320 -655 l80 -120 -19
-83 c-28 -120 -67 -237 -117 -355 -64 -149 -91 -239 -86 -290 2 -23 8 -44 12
-47 10 -6 148 284 193 405 19 52 45 133 58 180 26 98 33 110 48 81 21 -39 -93
-434 -176 -611 -64 -137 -141 -390 -119 -390 16 0 143 231 208 380 54 123 94
239 139 408 26 99 35 120 46 111 19 -16 16 -94 -7 -203 -36 -166 -107 -349
-210 -544 -84 -156 -207 -405 -214 -429 -3 -13 -9 -33 -12 -45 -8 -30 166 204
234 314 55 91 162 308 205 419 15 36 38 108 52 160 40 142 41 144 50 64 10
-89 -7 -227 -41 -335 -72 -230 -209 -450 -459 -740 -45 -52 -87 -105 -93 -117
-20 -36 -428 -343 -457 -343 -14 0 -156 123 -210 182 -31 35 -100 116 -152
181 l-95 118 48 57 c27 31 87 102 134 157 48 55 96 116 108 135 74 123 125
496 184 1340 16 231 16 871 0 1075 -22 278 -65 607 -109 838 l-17 89 -61 47
c-33 26 -93 67 -132 90 -40 23 -73 48 -73 56 0 52 120 355 215 545 151 301
330 526 536 673 37 26 70 54 73 62 3 8 13 15 23 15 10 1 50 12 88 25 87 31 97
31 296 0z m-2437 -82 c-4 -49 -10 -167 -13 -263 l-6 -174 -79 -33 c-43 -19
-80 -32 -81 -31 -3 5 44 459 52 508 8 43 9 45 63 61 30 9 59 17 63 18 5 1 5
-38 1 -86z m-3499 32 c347 -84 842 -153 1335 -186 409 -27 1064 15 1490 95
101 19 186 33 188 31 8 -7 -30 -580 -38 -589 -24 -25 -420 -105 -705 -141
-652 -83 -1182 -41 -2000 160 -205 50 -502 139 -516 153 -4 4 11 122 32 262
21 140 39 257 39 259 0 2 8 0 18 -4 9 -3 80 -22 157 -40z m3282 -47 c-3 -24
-16 -152 -29 -284 l-23 -241 -79 -26 c-44 -15 -81 -25 -82 -24 -3 4 36 580 39
584 5 4 135 30 161 32 16 1 18 -4 13 -41z m1391 -492 c62 -7 115 -16 118 -19
3 -3 -5 -21 -18 -41 -17 -28 -28 -35 -43 -31 -21 6 -200 24 -248 25 l-27 0 20
40 c24 47 23 47 198 26z m-6358 -101 c448 -40 863 -112 1298 -226 471 -123
606 -199 834 -471 106 -126 173 -192 233 -228 22 -13 42 -27 45 -31 3 -4 24
-12 47 -19 23 -7 52 -21 63 -32 36 -34 34 -60 -9 -145 -98 -197 -160 -449
-205 -848 -24 -207 -35 -386 -46 -760 -22 -751 -34 -896 -80 -970 -26 -42 -44
-49 -82 -29 -26 14 -42 14 -102 5 -148 -22 -212 -53 -340 -165 -147 -130 -301
-164 -777 -173 -481 -9 -602 5 -1434 168 -624 122 -894 178 -1035 215 -52 14
-102 27 -110 28 -18 3 -148 179 -190 258 -38 71 -75 213 -89 339 -5 52 -13
213 -17 359 -4 165 -11 270 -17 279 -8 10 -7 16 6 26 9 6 14 15 11 18 -11 11
-5 1375 6 1540 14 188 43 374 66 420 29 57 74 106 139 152 66 47 276 152 360
180 78 26 525 87 764 105 74 5 136 12 139 15 11 11 356 4 522 -10z m6378 -69
c10 -6 6 -19 -14 -54 -15 -26 -28 -49 -30 -51 -5 -5 -258 21 -266 28 -5 4 0
26 9 50 l17 43 136 -4 c75 -2 141 -8 148 -12z m-14934 -161 c119 -25 497 -224
785 -412 169 -110 193 -139 143 -170 -146 -89 -257 -175 -433 -340 -118 -110
-145 -123 -191 -95 -36 22 -192 72 -333 107 l-90 22 53 23 c56 24 76 57 52 85
-18 21 -22 20 -140 -30 -59 -24 -135 -52 -170 -61 -61 -15 -291 -45 -299 -38
-2 2 8 30 22 61 45 102 71 201 57 218 -15 18 -54 20 -67 3 -5 -7 -19 -47 -32
-88 -66 -215 -222 -414 -381 -489 -78 -36 -192 -36 -271 0 -105 49 -151 118
-135 204 14 71 80 107 239 129 131 18 161 37 206 129 74 150 62 304 -26 363
-15 9 -54 20 -87 23 l-60 6 58 62 c52 56 67 66 159 101 199 78 446 147 627
176 174 29 223 30 314 11z m14725 -16 c64 -7 117 -13 118 -14 2 -1 -8 -28 -21
-61 l-24 -59 -46 0 c-25 1 -87 2 -137 3 -104 2 -101 -2 -59 96 22 52 11 50
169 35z m-9051 -85 c115 -24 142 -37 142 -71 0 -54 -7 -56 -116 -34 -54 11
-124 23 -154 26 -111 12 -108 11 -64 56 44 46 69 49 192 23z m-7358 -154 c37
-27 45 -52 26 -89 -21 -40 -55 -62 -199 -131 -139 -65 -197 -113 -282 -235
-27 -38 -65 -90 -85 -115 -20 -25 -62 -99 -94 -164 -107 -225 -200 -340 -319
-397 -83 -39 -92 -38 -68 9 11 21 27 67 36 103 32 125 31 124 93 152 31 14 69
29 85 32 24 6 27 4 27 -16 1 -23 1 -23 13 -4 8 13 12 68 13 155 1 74 2 141 3
148 1 13 75 51 99 52 7 0 12 -15 13 -42 0 -37 2 -40 10 -19 5 12 8 80 7 150
-2 69 1 137 5 151 7 24 7 24 -8 -2 -8 -15 -19 -59 -24 -96 -5 -38 -14 -79 -20
-90 -6 -12 -44 -37 -84 -56 -41 -19 -89 -51 -112 -75 -46 -49 -41 -52 17 -11
22 17 44 30 48 30 4 0 10 -33 13 -74 4 -40 9 -98 13 -129 l6 -55 -52 -7 c-30
-4 -85 -18 -124 -32 -69 -23 -196 -45 -196 -34 0 4 12 15 27 26 14 11 43 56
63 100 20 44 48 94 62 110 14 17 33 46 43 65 20 39 70 105 126 165 20 22 49
66 65 98 84 175 285 300 564 351 57 10 160 -3 190 -24z m16439 14 c6 -5 -21
-84 -30 -90 -7 -4 -219 14 -245 21 -9 3 -9 14 -1 45 l11 41 131 -7 c71 -4 132
-8 134 -10z m-9274 -19 c121 -9 266 -40 281 -59 19 -26 6 -59 -20 -51 -83 24
-221 46 -330 52 l-129 6 36 34 c26 23 44 32 60 29 12 -3 58 -7 102 -11z
m-6556 -139 c64 -34 89 -117 71 -238 -13 -94 -35 -155 -60 -168 -9 -5 -54 -14
-99 -19 -44 -6 -110 -22 -144 -36 -35 -14 -69 -25 -75 -25 -17 0 -42 30 -42
50 0 30 95 243 147 332 39 65 56 84 88 99 50 22 78 23 114 5z m15656 -6 c195
-24 304 -62 446 -157 115 -77 105 -60 139 -259 79 -470 95 -683 95 -1229 0
-557 -31 -1025 -100 -1510 -39 -270 -55 -310 -184 -460 -47 -55 -112 -132
-144 -171 l-58 -71 -142 -19 c-193 -26 -793 -26 -1097 -1 -945 80 -1652 174
-2045 273 -124 31 -279 91 -365 141 -76 45 -177 142 -186 180 -4 15 -20 47
-35 72 -48 74 -52 121 -46 516 6 397 25 659 98 1314 55 499 92 711 139 786 11
18 42 48 69 67 26 18 70 50 97 71 27 21 85 64 129 96 44 32 118 93 164 135 96
88 145 119 239 153 184 67 299 74 1302 83 969 8 1355 6 1485 -10z m-9000 -17
c100 -18 265 -71 337 -110 l47 -26 -7 -61 c-6 -53 -9 -964 -4 -1161 4 -154 47
-735 57 -782 7 -32 -9 -28 -55 13 -57 52 -74 84 -130 248 -57 168 -92 241
-163 344 -98 142 -217 222 -333 222 -90 0 -168 -32 -321 -131 -149 -96 -184
-109 -231 -85 -58 30 -78 67 -111 207 -18 72 -41 149 -52 170 -64 126 -235
206 -387 179 -35 -6 -66 -9 -68 -7 -6 5 82 193 137 293 28 51 73 119 98 150
38 47 57 61 109 80 134 50 306 165 539 362 73 61 138 109 145 107 7 -3 36 -1
63 4 63 11 214 4 330 -16z m-9225 -258 c53 -27 65 -66 64 -195 -1 -139 -30
-243 -97 -342 l-42 -63 -120 -7 c-72 -4 -146 -15 -183 -27 -34 -10 -62 -17
-62 -15 0 8 118 62 180 83 91 30 126 54 151 103 l21 43 -37 -35 -37 -35 7 35
c7 36 9 39 63 110 35 48 43 73 13 46 -13 -12 -27 -15 -41 -11 -19 6 -21 5 -11
-13 11 -21 1 -36 -23 -37 -5 0 -21 -36 -35 -79 l-26 -80 -50 -16 c-100 -34
-101 -34 -47 7 101 76 127 136 137 313 7 114 19 165 44 194 32 37 84 45 131
21z m1808 -91 c82 -53 82 -206 2 -365 l-19 -37 -66 24 c-36 13 -90 27 -119 30
l-53 6 42 70 c25 39 50 98 60 136 9 37 21 83 26 103 14 57 68 71 127 33z
m17591 -13 c16 -16 18 -26 10 -67 -19 -101 -28 -335 -18 -482 22 -339 120
-667 296 -994 76 -141 119 -210 178 -283 47 -57 53 -73 33 -93 -39 -39 -90 9
-197 179 -216 347 -352 731 -390 1108 -25 236 -4 597 36 636 19 20 29 19 52
-4z m-18766 -326 c-62 -11 -257 -75 -478 -155 -44 -16 -72 -20 -104 -16 -25 3
-46 8 -48 10 -2 2 7 21 22 41 14 21 25 41 25 45 0 8 89 36 165 50 112 21 280
38 385 38 l105 0 -72 -13z m18915 -94 c17 -9 20 -26 25 -144 12 -235 80 -549
191 -879 30 -87 52 -158 50 -158 -9 0 -135 265 -177 370 -102 261 -160 532
-179 841 l-3 47 37 -33 c20 -18 45 -38 56 -44z m-18899 25 c-2 -2 -33 -12 -69
-21 -95 -25 -197 -75 -264 -131 -107 -88 -161 -147 -175 -191 -9 -27 -20 -43
-30 -43 -9 0 -104 -20 -211 -44 -193 -44 -194 -44 -165 -19 17 14 46 40 66 58
177 161 404 294 596 350 102 29 268 56 252 41z m300 -14 c16 -30 -24 -159 -69
-221 -33 -47 -250 -151 -314 -151 -28 0 -28 1 -22 38 3 20 9 67 12 104 9 87
20 97 126 111 78 10 81 11 43 18 -59 11 -157 10 -236 -2 -39 -6 -73 -9 -75 -6
-8 7 144 65 236 89 76 19 160 32 257 36 22 1 35 -4 42 -16z m19296 -556 c72
-59 300 -232 508 -383 207 -150 377 -278 377 -283 0 -5 -13 -18 -29 -29 -74
-53 -131 -191 -131 -317 0 -86 9 -135 58 -304 25 -89 36 -145 36 -196 1 -119
-24 -138 -194 -148 -158 -9 -234 -42 -266 -116 -10 -22 -22 -40 -26 -40 -12 0
-195 281 -304 465 -123 209 -298 561 -372 746 -72 183 -160 481 -203 687 -23
114 -31 184 -36 313 l-6 166 229 -226 c126 -125 288 -275 359 -335z m-18539
524 c99 -23 200 -63 344 -135 139 -70 193 -91 302 -121 49 -13 109 -34 135
-47 l46 -24 -57 -14 -58 -14 89 0 c77 0 95 -4 141 -28 53 -28 55 -33 24 -69
-14 -16 -12 -16 29 -1 32 12 77 50 169 142 191 192 246 231 325 231 42 0 64
-22 82 -81 23 -82 -17 -202 -90 -265 -86 -74 -202 -119 -393 -154 -92 -16
-125 -18 -238 -10 -165 12 -201 21 -526 130 -334 112 -469 141 -685 147 -89 3
-184 1 -215 -5 -30 -6 -56 -9 -57 -8 -1 1 45 28 103 60 108 60 255 113 379
136 61 11 66 14 45 23 -14 5 -85 10 -158 10 l-133 1 6 24 c3 13 9 37 12 53 6
30 6 30 123 43 58 6 170 -4 256 -24z m-1176 -144 c0 -64 -31 -211 -57 -268
-17 -38 -47 -78 -93 -122 -79 -77 -94 -82 -83 -28 4 20 7 83 6 140 -2 62 1
102 7 102 6 0 10 -12 10 -27 1 -39 37 -116 52 -110 15 5 15 5 -7 66 -23 63
-17 83 25 94 97 24 110 29 110 42 0 18 0 18 -75 0 -33 -8 -63 -15 -66 -15 -3
0 -5 28 -5 63 l1 62 50 17 c28 9 67 17 88 17 36 1 37 0 37 -33z m-755 -49
c-154 -80 -258 -147 -377 -243 -64 -51 -88 -65 -136 -74 -85 -17 -253 -58
-370 -92 -57 -16 -106 -28 -108 -25 -9 8 55 84 112 133 176 152 336 228 647
309 171 44 261 61 337 63 29 1 13 -10 -105 -71z m73 -46 c-82 -67 -238 -221
-223 -221 16 0 242 40 344 61 52 11 96 17 98 15 3 -2 -10 -12 -29 -22 -18 -9
-54 -32 -79 -50 -38 -28 -79 -42 -229 -79 -183 -47 -280 -81 -296 -106 -5 -8
-19 -45 -32 -84 -35 -107 -106 -244 -158 -307 -26 -32 -118 -121 -205 -198
-216 -192 -313 -300 -368 -407 -36 -71 -24 -87 45 -63 16 5 91 18 166 29 243
35 296 51 943 274 286 99 499 143 649 134 141 -8 168 -21 288 -145 138 -142
220 -245 344 -433 60 -91 123 -175 151 -199 32 -28 118 -76 251 -141 l203 -99
102 -101 102 -100 -190 -98 c-276 -141 -535 -287 -835 -470 -235 -143 -278
-166 -374 -196 -60 -19 -110 -34 -111 -33 -98 157 -179 239 -284 291 -58 28
-76 32 -171 35 -226 8 -454 -87 -637 -266 -132 -128 -207 -259 -220 -383 l-6
-59 -49 0 c-134 0 -268 -26 -379 -74 -12 -5 -22 8 -44 61 -39 90 -114 200
-167 244 -77 63 -200 139 -251 154 -92 27 -247 15 -261 -21 -10 -27 13 -53 57
-65 83 -23 153 -51 222 -90 77 -43 135 -86 100 -74 -145 49 -316 42 -481 -22
-19 -7 -18 55 1 172 19 117 32 158 95 300 l53 118 -9 171 c-12 238 -9 444 10
572 23 157 71 345 91 360 39 28 250 105 372 135 l131 31 7 37 c19 101 89 184
414 496 127 122 189 203 248 322 52 107 63 162 39 182 -24 20 -139 2 -368 -60
-104 -28 -192 -49 -194 -46 -3 2 3 21 12 41 13 26 28 40 58 51 60 22 279 80
419 112 l122 26 96 77 c85 68 246 175 289 193 8 3 51 22 95 41 44 20 86 36 93
36 7 0 -20 -27 -60 -59z m8232 -47 c73 -34 124 -85 140 -141 5 -21 17 -81 25
-134 18 -120 25 -138 70 -187 45 -50 90 -72 149 -72 63 0 101 18 233 106 112
75 220 123 278 124 77 0 218 -101 287 -207 25 -37 85 -158 132 -268 48 -109
103 -225 122 -257 38 -62 86 -108 113 -108 25 0 41 -20 41 -51 0 -60 -104 -36
-171 38 -50 56 -97 143 -175 324 -92 215 -131 285 -192 345 -71 71 -126 92
-199 76 -75 -16 -129 -45 -226 -121 -166 -132 -237 -159 -325 -125 -59 22
-140 102 -171 169 -18 38 -71 282 -71 326 0 22 -58 71 -108 90 -47 18 -77 22
-174 22 -125 0 -130 3 -89 51 26 31 51 36 151 33 81 -3 105 -8 160 -33z
m-8935 17 c16 -6 4 -16 -65 -52 -113 -58 -232 -149 -279 -213 -21 -28 -59 -94
-85 -146 -25 -52 -60 -111 -76 -130 -29 -34 -29 -34 -30 -10 0 14 7 50 15 80
15 58 14 66 -8 57 -32 -12 -46 -137 -26 -241 10 -58 -2 -159 -21 -171 -4 -3
-18 11 -30 31 -14 25 -24 34 -31 27 -7 -7 -3 -26 14 -60 35 -68 40 -109 23
-173 -15 -59 -14 -72 9 -64 8 3 21 38 31 82 9 43 25 88 34 102 28 40 43 100
45 175 1 63 5 75 39 125 21 30 39 56 41 58 1 1 76 22 166 46 161 43 231 59
318 71 l44 6 -6 -31 c-12 -56 -87 -198 -148 -280 -34 -45 -125 -140 -203 -212
-231 -213 -305 -300 -352 -416 l-22 -54 -131 -34 c-73 -18 -175 -52 -228 -74
-53 -22 -98 -38 -100 -36 -10 9 134 336 147 336 4 0 13 -7 20 -15 18 -22 43
-20 31 3 -5 9 -18 46 -30 81 -62 189 -28 334 124 521 52 65 95 135 95 155 0 5
-7 -2 -17 -15 -46 -69 -96 -129 -104 -124 -5 3 -9 26 -9 52 0 106 97 226 208
257 149 41 235 77 262 109 25 31 -1 30 -61 -3 -32 -18 -64 -31 -70 -29 -19 6
70 96 132 134 116 70 262 103 334 75z m3648 0 l29 -6 -23 -30 c-12 -16 -33
-42 -47 -56 l-24 -27 -103 52 c-58 28 -104 54 -105 58 0 14 219 21 273 9z
m-2521 -123 c4 -90 -2 -151 -19 -203 -42 -131 -101 -204 -224 -275 -73 -43
-209 -171 -209 -197 0 -27 25 -11 79 49 31 35 93 86 141 116 92 59 160 119
191 169 11 18 30 35 42 39 29 9 108 66 176 128 30 27 79 60 109 74 l56 25 140
-11 c227 -19 382 -66 641 -193 113 -56 144 -75 125 -77 -32 -4 -322 80 -410
118 -72 31 -144 44 -184 34 -47 -12 -21 -29 55 -36 91 -10 163 -43 215 -101
l39 -42 -110 -7 c-61 -3 -128 -11 -150 -17 -31 -8 -5 -10 121 -8 l160 2 44
-29 43 -28 -23 33 c-13 19 -39 54 -58 78 -32 39 -33 43 -13 36 13 -4 51 -15
85 -25 93 -26 186 -78 186 -103 0 -21 -70 -60 -139 -79 l-66 -18 56 4 c31 2
90 16 132 31 l76 27 55 -48 c31 -26 56 -53 56 -59 0 -5 -24 -26 -52 -45 -83
-55 -127 -50 -371 38 -251 91 -328 106 -512 100 -77 -3 -148 -8 -158 -13 -23
-10 -16 -31 9 -27 10 2 72 6 136 9 150 7 252 -8 398 -59 63 -22 178 -60 255
-85 77 -25 163 -54 190 -65 90 -37 421 -43 641 -12 79 11 185 18 274 18 167 0
223 -14 339 -82 l68 -41 31 -138 c66 -293 76 -376 77 -643 0 -135 -3 -257 -8
-272 -9 -34 -30 -35 -107 -8 -81 29 -261 37 -365 17 -226 -46 -364 -85 -516
-147 l-72 -30 -91 93 c-111 114 -158 147 -307 213 -264 118 -274 126 -406 326
-119 182 -194 278 -336 431 -54 59 -96 107 -92 107 19 0 -24 35 -65 53 -37 17
-65 20 -165 20 -221 -2 -411 -47 -855 -203 -439 -155 -617 -201 -830 -216
l-104 -7 18 29 c62 98 155 195 429 448 158 145 219 237 287 434 l32 91 57 22
c56 21 351 100 351 94 0 -20 -26 -45 -96 -91 -142 -95 -268 -224 -249 -255 5
-6 34 18 74 62 113 124 274 231 414 275 31 10 57 24 57 31 0 19 -20 16 -97
-12 -37 -13 -69 -23 -71 -21 -1 2 18 22 43 44 47 41 276 162 308 162 14 0 17
-10 19 -52z m1233 37 c161 -24 294 -60 560 -150 287 -96 367 -115 520 -118
l110 -2 27 -54 c16 -30 27 -56 25 -57 -2 -2 -25 3 -52 11 -72 22 -164 19 -263
-10 -121 -35 -235 -53 -372 -61 l-117 -7 -106 67 c-220 137 -444 243 -676 316
-72 23 -130 44 -128 47 3 2 35 10 73 17 93 19 277 19 399 1z m-681 -20 c209
-29 409 -91 644 -198 174 -80 416 -221 386 -225 -11 -2 -41 4 -65 14 -24 9
-78 24 -119 33 -52 11 -130 43 -252 104 -302 150 -487 199 -750 201 l-157 1
26 27 c38 40 102 67 143 62 19 -2 84 -11 144 -19z m7177 -43 c56 -36 90 -98
135 -245 61 -198 114 -286 197 -329 32 -16 54 -19 111 -16 92 5 155 33 276
123 176 132 237 154 324 121 89 -34 143 -120 226 -362 102 -297 182 -420 299
-459 30 -10 67 -15 85 -12 l33 5 16 -112 c18 -119 64 -316 94 -404 l19 -53
-69 -136 c-38 -74 -87 -179 -109 -232 -22 -53 -77 -174 -123 -268 -46 -95 -82
-173 -80 -173 12 0 296 452 348 557 15 28 31 54 35 57 11 6 65 -43 115 -106
48 -59 117 -191 117 -225 0 -60 -185 -453 -318 -673 -150 -250 -447 -683 -568
-830 -55 -66 -63 -87 -42 -108 26 -26 54 -12 105 51 192 237 577 815 682 1026
18 36 36 60 41 55 9 -10 83 -203 131 -343 42 -124 62 -139 126 -100 19 12 35
20 37 18 2 -2 13 -60 25 -129 26 -147 94 -442 151 -659 22 -85 38 -156 36
-158 -7 -7 -179 -22 -331 -29 -238 -10 -430 22 -735 123 -197 65 -372 109
-495 125 -49 6 -96 16 -103 22 -35 26 -64 110 -69 196 -9 159 -54 264 -275
636 -69 115 -181 309 -249 432 -160 287 -210 352 -270 357 -26 2 -37 27 -76
175 -21 81 -26 129 -33 330 -10 264 -29 398 -84 586 -41 141 -110 309 -166
406 -22 39 -40 76 -40 84 0 24 77 327 123 481 l42 143 78 40 c100 51 160 54
228 12z m-4238 -247 c31 -152 60 -254 90 -317 20 -40 44 -97 55 -125 53 -140
235 -351 427 -495 171 -129 212 -183 348 -453 107 -214 220 -372 330 -462 114
-94 312 -173 434 -173 42 0 55 -4 61 -18 4 -9 48 -71 98 -137 171 -227 267
-381 323 -522 13 -31 11 -35 -18 -68 -17 -20 -31 -46 -31 -58 0 -12 28 -89 61
-172 116 -285 140 -347 137 -350 -2 -2 -239 -122 -528 -268 -977 -495 -1143
-562 -1620 -662 -195 -41 -454 -114 -506 -143 -12 -7 -31 -4 -62 10 -36 16
-49 18 -70 9 -13 -7 -26 -10 -27 -9 -9 11 -91 182 -130 272 -54 127 -235 594
-235 606 0 5 21 31 48 57 93 94 129 202 182 548 17 110 32 207 34 215 3 8 17
55 31 105 l27 90 22 -70 c43 -134 98 -215 146 -215 80 0 75 85 -24 428 -41
142 -56 209 -56 255 0 137 -48 246 -156 353 l-71 72 8 50 c16 106 21 329 10
462 -7 74 -14 143 -17 152 -4 12 7 22 41 37 25 11 72 45 105 76 l59 57 93 -46
c141 -70 269 -92 360 -60 54 18 75 39 84 80 12 59 -37 95 -236 173 -58 22
-129 55 -158 72 -46 26 -53 34 -48 53 3 13 8 70 11 127 9 154 10 159 75 245
32 43 83 120 111 172 l52 93 61 -3 61 -3 8 -40z m-1047 -98 c115 -46 195 -108
379 -296 222 -225 311 -290 505 -361 175 -65 219 -100 183 -149 -31 -40 -93
-54 -185 -42 -145 19 -272 88 -563 301 -277 203 -308 215 -545 214 -96 0 -215
-8 -283 -17 -125 -18 -208 -21 -295 -11 -44 6 -50 9 -40 21 10 12 7 13 -18 7
-16 -4 -46 -13 -68 -21 -67 -23 -196 -13 -196 16 0 6 17 18 38 28 20 10 69 48
107 86 66 64 67 67 28 45 l-41 -22 -54 49 c-29 28 -73 67 -97 87 l-45 36 38
11 c49 13 114 1 192 -35 43 -20 86 -54 158 -126 69 -70 102 -96 109 -89 8 8 4
18 -13 36 -13 14 -22 26 -19 27 2 2 20 11 39 21 20 10 49 29 65 42 29 23 27
23 -48 -6 l-79 -30 -56 52 c-32 29 -58 54 -60 55 -2 1 47 2 109 3 162 1 295
18 438 56 157 41 235 44 317 12z m18450 -542 c-62 -80 -60 -166 6 -440 62
-258 56 -416 -19 -506 -39 -45 -73 -58 -197 -74 -117 -14 -188 -39 -222 -76
-14 -16 -19 -42 -22 -114 -5 -107 -15 -126 -58 -106 -26 11 -26 12 -22 119 5
170 41 216 173 227 39 3 101 8 139 11 204 16 251 151 162 460 -40 143 -60 262
-51 313 17 100 58 177 112 213 16 10 29 18 30 18 2 0 -13 -20 -31 -45z
m-18021 -125 c33 -24 62 -46 64 -47 3 -2 -13 -22 -35 -44 -39 -41 -92 -75
-101 -66 -5 6 -52 214 -53 236 0 9 10 6 33 -11 17 -13 59 -44 92 -68z m-5095
-78 c-10 -33 -22 -92 -25 -133 -4 -41 -22 -123 -40 -184 -19 -60 -40 -132 -48
-160 l-14 -50 -16 54 c-34 111 -15 260 49 382 30 56 97 149 109 149 1 0 -5
-26 -15 -58z m12760 -879 c140 -31 257 -57 259 -59 2 -2 -14 -43 -36 -91 -22
-49 -56 -122 -75 -163 -90 -193 -406 -557 -607 -697 -36 -26 -89 -64 -117 -85
-54 -40 -64 -45 -64 -27 0 5 -27 82 -60 171 -33 88 -57 165 -54 169 11 18 22
8 66 -58 25 -38 64 -92 88 -122 l42 -53 30 30 30 30 -59 78 c-33 44 -80 112
-106 153 -41 64 -47 81 -46 125 1 94 9 95 68 10 57 -82 186 -239 215 -263 15
-12 20 -11 46 14 l29 28 -63 71 c-77 88 -138 168 -204 269 l-51 78 45 41 44
41 77 -84 c88 -96 227 -232 261 -256 23 -16 25 -15 47 13 14 16 24 31 24 34 0
3 -37 39 -82 80 -89 81 -259 260 -265 278 -4 12 37 72 50 72 5 0 52 -36 105
-80 92 -76 255 -194 285 -205 12 -5 57 60 47 69 -2 2 -29 19 -59 38 -58 37
-230 169 -291 223 l-36 32 19 27 c11 14 23 26 28 26 4 0 45 -21 90 -46 82 -47
313 -154 331 -154 8 0 39 52 39 67 0 4 -21 17 -48 27 -62 25 -322 153 -346
171 -16 12 -17 17 -6 30 8 10 22 14 34 11 12 -4 136 -32 276 -63z m-8225 12
c-209 -54 -497 -175 -925 -391 -379 -191 -493 -255 -731 -413 -116 -78 -215
-141 -220 -141 -5 0 -9 7 -9 15 0 9 -7 26 -15 39 -16 24 -16 24 120 95 137 72
309 170 590 336 267 157 682 352 905 424 133 44 213 59 300 59 l75 0 -90 -23z
m11789 -16 c69 -10 76 -13 85 -40 17 -50 119 -177 178 -224 256 -201 780 -316
1983 -435 423 -42 776 -70 871 -70 l56 0 83 -117 c115 -162 257 -336 407 -498
69 -75 123 -138 121 -140 -2 -3 -62 -20 -132 -40 -392 -107 -765 -124 -1133
-50 -299 61 -546 147 -1073 378 -195 85 -420 181 -500 212 -604 240 -1194 341
-1710 295 -161 -15 -541 -70 -965 -140 -509 -84 -731 -110 -945 -110 -225 0
-501 41 -659 99 -101 37 -301 131 -301 142 0 5 29 44 64 88 110 136 249 354
327 513 24 48 38 67 49 63 29 -8 937 -184 1055 -204 526 -89 1233 -75 1503 29
61 23 99 48 173 110 163 139 263 169 463 139z m-11419 -24 c85 -14 179 -95
230 -199 13 -28 30 -85 36 -128 14 -96 1 -168 -75 -405 -59 -184 -76 -258
-106 -468 -46 -318 -90 -433 -189 -496 -49 -32 -74 -35 -132 -18 -42 13 -69 1
-69 -30 0 -19 -87 -79 -136 -94 -47 -14 -97 3 -166 58 -106 83 -148 196 -148
397 0 246 56 472 227 918 94 246 125 293 248 387 75 57 171 95 220 87 11 -1
38 -6 60 -9z m-561 -91 c-79 -48 -118 -77 -191 -147 l-61 -58 -32 46 -31 46
58 26 c77 35 296 122 307 123 6 0 -17 -16 -50 -36z m50 -117 c-66 -126 -223
-554 -274 -752 -60 -233 -74 -489 -35 -639 35 -133 125 -245 242 -303 44 -21
63 -25 117 -21 52 3 75 11 126 42 l61 38 45 -23 c39 -21 44 -27 39 -48 -12
-49 -249 -581 -315 -706 -37 -71 -108 -200 -158 -285 -147 -256 -452 -745
-452 -727 0 4 54 128 120 277 66 149 120 275 120 280 0 6 -6 10 -14 10 -7 0
-25 -26 -39 -57 -225 -515 -303 -684 -333 -725 -20 -27 -38 -47 -40 -45 -8 8
89 289 169 487 80 200 282 758 289 798 2 9 -3 17 -11 17 -7 0 -23 -28 -37 -65
-12 -36 -59 -168 -104 -295 -120 -338 -329 -856 -420 -1040 -56 -115 -66 -128
-213 -285 -299 -320 -598 -558 -790 -629 -121 -44 -195 -56 -352 -55 -106 0
-170 5 -218 17 -307 76 -637 363 -981 855 -170 244 -475 758 -600 1011 l-71
144 -2 148 c-1 85 2 151 8 154 5 4 9 13 9 21 0 8 16 56 36 107 120 305 248
485 402 562 69 35 171 47 284 35 128 -13 208 -37 415 -126 237 -101 389 -157
531 -196 109 -31 127 -33 277 -33 194 0 258 15 440 104 217 106 421 259 563
421 155 176 243 304 451 655 226 379 419 664 521 765 74 75 198 170 220 170 4
0 -7 -28 -26 -63z m-4598 -9 c-3 -13 -6 -36 -6 -52 0 -25 -3 -28 -25 -24 -20
4 -29 -1 -46 -28 -11 -19 -31 -37 -44 -40 -34 -8 -41 -21 -49 -84 -7 -63 8
-49 18 15 3 22 5 40 6 40 0 0 17 9 38 20 20 11 44 26 52 34 13 13 15 12 18
-12 2 -19 -7 -39 -31 -67 -19 -22 -54 -76 -77 -121 -49 -90 -75 -113 -97 -83
-17 23 -16 37 2 109 25 95 71 169 153 246 78 73 98 83 88 47z m4238 -53 l36
-55 -33 -43 c-65 -85 -286 -425 -382 -587 -362 -610 -517 -802 -814 -1001
-264 -178 -494 -250 -708 -221 -48 7 -106 17 -127 23 l-39 11 69 33 c186 91
305 249 370 489 43 161 51 307 28 487 l-6 47 83 27 c98 33 88 27 294 174 402
287 557 379 932 551 142 65 258 119 259 119 1 1 18 -24 38 -54z m3961 39 c13
-5 15 -16 9 -63 -7 -64 10 -308 32 -454 17 -115 43 -201 86 -276 l30 -54 -66
7 c-111 11 -127 16 -137 45 -74 194 -164 368 -301 576 -47 72 -88 142 -92 157
-7 31 -21 26 159 52 106 15 253 20 280 10z m1934 -177 c15 -23 84 -141 151
-262 68 -121 171 -301 230 -400 233 -390 267 -469 280 -630 4 -61 14 -114 24
-133 14 -26 14 -32 2 -32 -30 0 -163 47 -428 151 -543 214 -792 301 -969 341
-148 33 -368 33 -523 -1 -151 -32 -314 -81 -448 -134 -62 -25 -119 -47 -126
-49 -8 -2 -21 17 -33 47 -11 28 -49 121 -85 208 -36 87 -64 161 -61 163 2 3
26 0 53 -7 27 -6 91 -12 142 -14 86 -3 95 -6 131 -34 151 -120 331 -96 457 58
54 65 58 68 142 95 199 63 529 251 738 419 44 36 125 110 180 165 54 54 102
97 106 95 4 -2 21 -23 37 -46z m11871 -167 c34 -34 15 -63 -177 -265 -140
-147 -143 -150 -116 -157 16 -4 50 -12 76 -19 55 -14 91 -39 112 -79 13 -25
12 -37 -10 -125 -14 -54 -25 -105 -25 -115 0 -34 -104 -40 -259 -15 -138 23
-363 107 -369 138 -2 10 14 29 44 49 218 153 495 390 590 505 92 112 100 117
134 83z m-19786 -9 c103 -36 226 -142 280 -241 l26 -48 -36 -12 c-19 -7 -38
-18 -41 -26 -3 -9 -18 7 -40 43 -47 79 -137 168 -201 200 -29 14 -55 23 -58
21 -2 -3 32 -33 76 -68 101 -78 171 -173 204 -280 62 -195 58 -479 -9 -690
-41 -131 -40 -155 4 -65 60 123 76 215 76 442 l0 191 35 5 c19 3 41 6 49 8 22
6 31 -56 32 -206 2 -273 -85 -521 -233 -662 -58 -55 -156 -117 -211 -132 -46
-13 -43 -14 -210 30 -21 6 -109 39 -195 75 -183 75 -201 91 -299 257 -148 251
-215 524 -161 660 63 163 265 358 464 448 147 67 340 88 448 50z m3310 -191
c35 -130 46 -233 27 -244 -27 -17 -69 38 -111 146 -25 64 -27 75 -14 89 8 9
22 48 32 87 9 39 20 68 23 64 4 -4 23 -68 43 -142z m15088 53 c5 -2 12 -13 18
-23 10 -18 -3 -23 -167 -75 -98 -31 -249 -80 -335 -109 l-157 -53 -20 28 c-11
15 -47 66 -80 113 l-60 86 146 0 c159 0 366 14 508 34 81 12 126 11 147 -1z
m-4247 -79 c158 -17 384 -60 555 -105 276 -74 518 -166 1010 -382 374 -164
477 -206 656 -266 408 -136 727 -185 1059 -161 240 16 499 66 668 127 58 21
71 22 85 11 9 -7 46 -37 82 -67 71 -60 297 -211 427 -285 46 -26 85 -51 87
-55 7 -11 -51 -120 -89 -167 -73 -88 -256 -190 -614 -339 -340 -141 -475 -220
-620 -359 -104 -100 -190 -215 -246 -326 -79 -159 -99 -256 -115 -571 -6 -118
-15 -250 -21 -294 -23 -181 -88 -344 -174 -431 l-50 -51 -125 -17 c-284 -36
-521 -50 -855 -50 -490 0 -791 28 -1481 139 l-271 44 -128 62 c-70 34 -180 91
-244 127 -64 35 -134 75 -156 87 -22 12 -119 69 -215 127 -159 95 -295 171
-700 387 -189 101 -275 162 -430 301 -186 168 -340 294 -438 357 -77 51 -82
56 -75 81 13 43 8 322 -6 372 -28 101 -178 196 -482 304 -87 32 -89 33 -130
96 -68 105 -146 194 -342 390 -181 182 -185 187 -235 290 -30 61 -60 142 -72
195 -12 50 -25 105 -30 124 -9 34 -8 36 78 121 48 48 113 101 144 119 l57 32
58 -29 c157 -79 377 -140 590 -163 160 -17 546 -6 743 20 85 12 317 48 515 80
907 150 1125 168 1530 125z m4344 -63 l21 -30 -87 -53 c-49 -30 -117 -72 -153
-93 -36 -21 -118 -72 -183 -113 -64 -40 -121 -72 -126 -70 -13 5 -141 158
-141 168 0 5 87 37 193 70 105 34 248 81 317 104 69 24 128 44 132 45 4 0 16
-12 27 -28z m-17921 -23 c36 -36 -2 -73 -121 -116 -45 -17 -105 -39 -134 -51
l-52 -20 -15 53 c-9 30 -16 56 -16 59 0 5 26 15 160 62 71 26 159 32 178 13z
m18054 -114 c24 -25 44 -49 46 -54 4 -10 -350 -232 -431 -270 -37 -18 -85 -34
-106 -37 -35 -5 -43 -2 -70 28 -17 19 -31 37 -31 40 0 4 77 53 170 110 94 57
214 132 268 165 53 34 100 62 104 63 4 1 27 -20 50 -45z m-20420 -130 c107
-31 235 -114 297 -193 l31 -39 -24 -27 -24 -26 -22 35 c-36 60 -120 125 -219
174 l-96 46 -125 0 c-90 0 -143 -4 -189 -17 -106 -30 -171 -58 -171 -73 0 -18
1 -18 80 10 73 27 203 56 246 56 33 0 38 24 -75 -407 -49 -186 -104 -401 -122
-478 -18 -77 -36 -144 -40 -149 -11 -13 -159 134 -221 221 -67 93 -93 155
-113 268 -12 73 -13 96 -1 163 18 102 64 192 133 259 56 55 145 113 174 113 9
0 22 6 29 14 13 17 109 50 185 65 63 13 199 5 267 -15z m20583 -34 l40 -41
-155 -146 c-85 -81 -184 -177 -220 -214 l-66 -68 -54 43 c-30 24 -80 66 -110
94 -52 49 -54 52 -32 58 44 13 177 81 252 129 134 87 293 185 300 185 3 0 24
-18 45 -40z m-8307 -263 c53 -113 111 -186 260 -327 70 -66 156 -153 191 -193
68 -78 156 -196 150 -202 -3 -2 -24 1 -49 6 -39 9 -49 16 -77 62 -40 66 -127
174 -285 353 -179 204 -277 355 -309 475 -10 39 -10 50 6 83 l19 39 28 -107
c15 -59 45 -144 66 -189z m-12361 228 c10 -3 9 -13 -1 -42 -11 -31 -229 -778
-283 -970 -15 -55 -19 -59 -42 -44 -11 7 -1 57 53 272 72 289 195 767 201 787
4 11 27 10 72 -3z m160 -61 c66 -37 145 -109 168 -154 13 -25 13 -33 0 -64
-28 -66 -11 -116 34 -101 18 5 20 -1 26 -91 8 -105 1 -225 -16 -289 -6 -22
-35 -71 -64 -110 -30 -38 -73 -105 -96 -149 -47 -87 -68 -102 -181 -127 -68
-14 -164 -2 -247 33 -50 20 -53 23 -47 51 7 37 283 988 297 1024 8 21 14 24
37 18 15 -3 55 -22 89 -41z m20663 -19 c22 -14 40 -28 40 -31 0 -3 -56 -69
-124 -147 -131 -151 -258 -277 -279 -277 -6 0 -34 14 -62 32 l-50 31 215 209
c118 114 216 208 217 208 2 0 21 -11 43 -25z m-19907 -27 c7 -49 -9 -59 -115
-70 -110 -11 -192 -28 -274 -59 -32 -13 -63 -23 -69 -24 -5 0 -32 -22 -60 -48
-27 -26 -51 -43 -53 -37 -7 20 19 78 53 117 87 102 220 145 461 152 51 1 52 1
57 -31z m11332 -85 c57 -114 126 -208 289 -394 120 -136 273 -327 265 -332 -2
-2 -103 0 -224 3 l-220 5 -52 205 c-93 362 -125 519 -118 568 4 24 8 42 10 40
2 -2 24 -45 50 -95z m8764 15 c12 -7 21 -18 21 -24 0 -22 -51 -126 -146 -299
-52 -96 -99 -188 -105 -204 -6 -17 -15 -31 -19 -31 -5 0 -60 29 -123 65 l-116
65 92 90 c51 49 146 151 212 228 128 149 125 147 184 110z m-20080 -100 c30
-92 88 -209 158 -317 47 -73 51 -83 31 -77 -166 48 -173 49 -323 50 -132 1
-157 -2 -209 -21 -33 -13 -61 -21 -63 -19 -2 2 1 32 7 67 5 35 13 125 17 201
l6 136 58 16 c72 21 157 33 235 35 l60 1 23 -72z m20284 48 l27 -6 -110 -218
c-116 -230 -176 -332 -197 -332 -7 0 -28 7 -47 16 -42 20 -48 3 86 249 85 158
122 235 142 297 4 14 11 15 38 8 18 -4 45 -11 61 -14z m455 2 c23 -23 11 -69
-47 -183 -84 -162 -244 -425 -283 -462 -30 -29 -36 -31 -71 -23 -21 4 -40 10
-43 13 -2 2 35 75 83 163 92 168 213 427 213 456 0 11 10 20 28 23 15 3 41 10
57 14 43 13 50 12 63 -1z m-12738 -8 c203 -25 430 -100 1086 -358 354 -139
410 -157 591 -182 213 -31 315 -54 518 -120 349 -113 491 -140 740 -140 94 0
213 5 265 10 454 45 710 30 950 -55 268 -95 289 -104 355 -156 36 -28 70 -59
75 -69 13 -25 30 -224 24 -280 -8 -61 -11 -70 -26 -65 -10 4 -13 36 -13 123
-1 157 -24 222 -79 222 -33 0 -51 -24 -143 -198 -213 -401 -272 -540 -298
-694 -5 -35 -8 -38 -41 -38 -31 0 -34 3 -29 23 26 113 26 106 -12 122 -20 8
-39 15 -43 15 -4 0 -13 -37 -20 -81 l-13 -81 -136 4 c-110 4 -151 10 -216 31
-105 34 -222 95 -370 191 -142 93 -325 190 -450 239 -99 39 -240 80 -256 75
-6 -2 40 -34 103 -71 167 -100 402 -271 620 -453 330 -275 442 -357 581 -425
37 -19 67 -37 67 -42 0 -4 -7 -21 -15 -37 -14 -28 -14 -29 19 -49 18 -12 36
-21 38 -21 3 0 13 18 23 40 17 38 21 40 49 34 60 -12 60 -12 -3 -139 -144
-293 -401 -612 -736 -915 -66 -60 -138 -132 -158 -159 -26 -34 -70 -129 -138
-298 -155 -385 -210 -572 -225 -753 -4 -47 -19 -143 -33 -213 l-27 -128 -33
35 c-20 21 -29 36 -22 40 7 4 11 43 11 96 l0 88 -37 15 -38 15 -9 -60 c-4 -33
-12 -56 -16 -51 -4 4 -49 67 -101 138 -156 219 -309 397 -567 659 -197 199
-335 314 -526 441 -134 87 -962 595 -972 595 -4 0 247 -208 388 -322 25 -21
149 -101 275 -179 125 -78 273 -172 328 -210 103 -70 310 -238 302 -245 -2 -2
-37 9 -77 26 -40 16 -82 30 -94 30 -12 0 -103 23 -201 50 -99 28 -184 48 -190
46 -21 -8 367 -177 592 -257 112 -40 122 -46 191 -113 41 -39 83 -84 94 -99
l20 -28 -29 7 c-47 11 -526 151 -558 162 -16 6 -75 25 -130 43 -418 130 -728
305 -1055 596 -192 170 -258 237 -521 523 -298 325 -390 420 -405 420 -15 0
-231 248 -315 362 -86 118 -153 246 -217 418 -100 268 -120 490 -68 743 15 71
35 146 46 167 68 133 299 377 500 529 74 55 174 132 221 169 47 37 99 77 115
89 l29 22 -55 -22 c-95 -37 -257 -123 -346 -183 -120 -81 -221 -171 -342 -304
-142 -157 -205 -254 -231 -355 -85 -338 -66 -596 69 -936 133 -335 246 -476
1000 -1259 141 -146 336 -359 435 -475 291 -342 498 -538 725 -684 114 -74
411 -225 531 -271 l86 -32 172 -497 c328 -949 400 -1222 504 -1896 40 -257 43
-290 37 -400 -4 -66 -12 -130 -18 -141 -25 -47 -278 -98 -435 -88 l-72 4 38
-15 c56 -21 202 -38 282 -32 79 6 171 35 226 71 39 26 53 55 64 139 6 43 8 47
28 42 101 -29 215 -122 261 -213 45 -89 56 -159 66 -442 5 -146 14 -284 20
-308 18 -73 68 -161 179 -312 127 -172 155 -217 254 -415 56 -112 91 -167 136
-218 34 -37 61 -70 61 -73 0 -3 -5 -14 -10 -24 -8 -16 1 -34 55 -105 152 -201
277 -320 575 -543 369 -277 497 -441 508 -648 10 -192 -82 -397 -257 -574
-266 -268 -578 -432 -1276 -670 -367 -125 -547 -197 -760 -304 -202 -102 -363
-205 -507 -326 -156 -130 -250 -245 -480 -588 -179 -268 -261 -373 -381 -489
-153 -147 -318 -248 -567 -346 -364 -144 -696 -203 -1435 -257 -559 -40 -762
-75 -1167 -201 -365 -112 -519 -143 -783 -155 l-150 -7 -50 74 c-27 40 -112
155 -189 254 -247 321 -314 428 -381 610 -32 85 -108 367 -128 473 l-7 33 48
-32 c99 -68 192 -151 258 -231 37 -46 95 -114 129 -153 44 -50 79 -106 123
-195 63 -130 114 -200 163 -225 61 -32 109 -10 109 49 0 45 -58 133 -194 291
-61 72 -123 146 -137 165 -15 19 -68 78 -119 130 -150 155 -271 333 -590 865
-383 642 -567 874 -1434 1805 -658 706 -785 846 -912 1004 -219 272 -434 611
-690 1086 -193 360 -425 897 -617 1435 -42 116 -105 289 -140 385 -102 276
-175 538 -213 766 -18 107 -24 379 -12 499 11 95 -6 65 -34 -62 -43 -193 -23
-419 68 -775 105 -414 314 -1010 510 -1459 41 -96 82 -190 91 -209 14 -33 12
-32 -49 26 -34 33 -103 96 -153 139 -49 43 -270 259 -490 479 -220 221 -422
417 -450 436 -59 40 -56 35 80 -120 435 -500 603 -679 845 -897 129 -116 227
-214 327 -326 18 -19 72 -116 121 -214 49 -98 129 -250 177 -338 48 -88 91
-178 95 -199 15 -74 -32 -339 -99 -571 -16 -55 -28 -101 -26 -103 5 -6 133
305 155 377 12 39 27 71 33 71 19 0 83 -79 112 -140 l29 -62 -38 -73 c-45 -89
-190 -310 -275 -420 -64 -83 -284 -329 -312 -349 -23 -16 -131 -116 -126 -116
2 0 45 30 95 68 195 145 434 379 544 535 98 138 162 140 287 9 103 -108 136
-173 246 -487 56 -161 112 -292 121 -283 3 4 -45 353 -61 438 -7 41 -13 76
-11 77 1 1 75 -59 164 -133 153 -127 167 -142 241 -252 110 -164 165 -264 201
-361 27 -74 29 -86 16 -100 -18 -19 -6 -44 16 -36 11 5 19 -3 27 -26 14 -40
17 -38 -114 -114 -135 -79 -216 -141 -370 -284 -71 -67 -154 -138 -184 -158
-66 -44 -146 -76 -173 -68 -10 4 -30 0 -43 -9 -18 -12 -49 -16 -113 -16 -174
0 -328 40 -577 150 -253 112 -365 142 -525 142 -58 0 -147 -7 -199 -17 -170
-32 -420 -5 -616 66 -237 86 -660 444 -856 725 -185 264 -362 636 -384 804
l-5 45 26 -60 c34 -76 190 -380 234 -459 l34 -60 12 31 c12 28 8 39 -71 194
-80 157 -173 367 -211 475 l-18 51 51 94 c58 107 300 530 308 538 3 3 3 -79
-1 -181 l-7 -187 28 -13 c24 -11 29 -10 45 9 15 19 17 78 23 681 4 363 12 729
17 813 24 342 69 638 140 899 213 787 515 1251 1007 1546 57 35 233 128 391
207 319 161 467 244 604 340 201 141 270 215 478 523 206 303 314 446 419 556
l87 91 57 -42 c31 -24 57 -48 57 -53 0 -6 -27 -103 -59 -217 -115 -400 -160
-642 -168 -892 -5 -161 -4 -183 16 -247 42 -139 131 -239 306 -343 177 -106
272 -121 421 -68 134 47 235 97 399 196 83 50 183 107 223 127 l73 37 164 -65
c233 -93 275 -102 400 -88 137 16 203 34 320 91 421 203 784 762 890 1368 20
118 31 240 50 533 21 332 49 605 89 883 19 127 38 268 41 312 13 153 -21 297
-120 503 -46 95 -65 124 -127 185 -40 40 -100 96 -133 124 l-59 51 109 35 c61
19 166 47 235 62 434 93 565 132 830 245 202 86 641 300 1031 501 522 270 712
350 999 419 200 48 293 56 430 40z m12490 -55 c0 -18 -98 -220 -189 -388 -117
-219 -107 -210 -190 -175 l-30 13 52 82 c29 44 95 167 147 272 52 105 101 192
110 195 22 6 100 7 100 1z m225 -277 c-2 -7 -18 -60 -36 -118 -38 -125 -74
-210 -96 -227 -9 -7 -36 -13 -59 -13 l-42 0 44 66 c24 36 76 119 115 185 67
112 84 136 74 107z m-16916 -313 c126 -332 190 -473 341 -755 86 -160 132
-287 155 -436 l16 -95 -35 -212 c-52 -315 -64 -420 -76 -662 -27 -567 -39
-682 -91 -890 -55 -218 -151 -439 -259 -601 -68 -100 -211 -249 -315 -326 -94
-70 -251 -150 -350 -179 -103 -30 -240 -35 -350 -14 -185 36 -308 17 -455 -68
-41 -24 -140 -81 -220 -127 -151 -88 -266 -139 -312 -140 -43 0 -53 47 -53
240 1 175 16 300 60 495 21 95 103 383 111 394 9 11 184 -156 247 -234 42 -53
43 -47 5 50 -56 146 -112 202 -400 401 -93 64 -168 119 -168 123 0 4 26 28 58
55 356 298 722 736 765 916 8 33 26 68 51 98 135 164 290 388 498 725 298 482
426 723 603 1139 61 141 113 254 116 250 3 -4 29 -70 58 -147z m16028 -30
c-40 -72 -252 -276 -364 -349 -114 -75 -323 -178 -518 -256 -250 -100 -355
-162 -487 -288 -175 -167 -244 -348 -298 -781 -24 -186 -41 -274 -70 -362 -23
-68 -89 -202 -115 -234 -10 -13 -8 -4 6 25 65 133 86 248 104 570 17 285 33
397 70 497 73 193 247 407 429 527 106 70 236 135 476 236 431 181 590 281
659 412 l25 45 52 -1 52 -1 -21 -40z m287 -34 c68 -22 145 -42 172 -46 27 -3
61 -8 75 -11 l26 -5 -14 -77 c-7 -42 -22 -210 -33 -372 -35 -507 -58 -624
-158 -815 -61 -118 -195 -310 -295 -424 -43 -50 -77 -76 -159 -121 -69 -38
-105 -54 -110 -46 -18 26 -102 301 -172 562 -42 155 -99 358 -127 450 -91 295
-118 388 -116 389 1 1 52 28 112 59 61 32 148 83 195 114 108 71 312 274 360
358 l35 61 42 -18 c24 -10 99 -36 167 -58z m-978 -594 c3 -17 35 -124 71 -237
35 -113 98 -331 139 -485 86 -320 123 -445 166 -563 16 -46 28 -85 26 -87 -9
-8 -89 -45 -97 -45 -10 0 -59 147 -146 440 -57 191 -223 854 -234 934 l-8 58
31 13 c38 16 43 13 52 -28z m-14829 -26 c82 -65 206 -202 257 -284 55 -88 121
-250 142 -347 22 -102 17 -217 -21 -475 -54 -363 -73 -553 -100 -985 -25 -391
-51 -554 -126 -773 -186 -547 -526 -941 -906 -1049 -65 -19 -104 -22 -228 -23
l-150 0 -113 47 c-163 68 -278 98 -397 103 l-100 5 67 -19 c109 -30 109 -30
63 -53 -22 -11 -107 -61 -190 -111 -159 -96 -295 -161 -413 -197 -88 -27 -138
-19 -258 41 -165 83 -280 194 -321 312 -24 68 -23 294 1 457 21 138 74 380
119 545 l33 119 11 -43 c10 -36 8 -52 -8 -99 -35 -100 -107 -405 -118 -497
-31 -255 6 -435 107 -527 51 -46 100 -62 176 -55 92 7 203 55 422 184 310 181
346 191 569 153 201 -34 347 -13 541 79 391 186 664 537 808 1038 63 220 87
412 106 873 12 285 28 437 75 720 53 317 59 387 41 475 -26 126 -76 228 -158
323 -32 37 -36 76 -10 91 25 15 26 15 79 -28z m14755 -396 c91 -373 131 -519
224 -820 59 -187 64 -210 50 -221 -43 -31 -411 -151 -584 -189 -240 -54 -652
-115 -780 -115 l-32 0 45 56 c25 30 62 88 82 127 79 158 107 266 143 547 52
412 108 560 274 725 113 112 207 175 361 241 l120 52 8 -36 c5 -21 45 -185 89
-367z m-6447 188 c143 -87 234 -157 416 -317 305 -270 334 -290 669 -466 478
-252 775 -431 986 -596 207 -162 300 -258 452 -472 46 -64 88 -121 93 -127 28
-29 -68 165 -126 255 -53 83 -198 236 -270 285 -30 21 -55 40 -55 42 0 8 113
-59 188 -110 139 -96 234 -221 367 -485 95 -190 115 -243 165 -439 22 -87 54
-203 70 -258 149 -500 224 -1321 224 -2450 1 -449 -2 -540 -22 -765 -58 -658
-46 -1192 39 -1710 57 -345 165 -638 239 -648 53 -8 236 -199 350 -367 127
-187 177 -335 186 -553 7 -179 -8 -287 -66 -467 -47 -143 -52 -203 -22 -262
42 -81 100 -240 122 -333 18 -72 23 -126 24 -227 1 -72 4 -126 8 -118 20 34
38 150 38 240 0 86 -7 132 -37 263 -7 31 12 28 53 -8 19 -16 48 -37 65 -45
l30 -16 -26 51 c-44 86 -58 163 -52 275 6 120 35 217 81 278 l33 43 -56 27
c-31 14 -69 37 -86 51 l-30 24 3 160 c2 89 -2 188 -8 222 -14 77 -2 117 46
160 60 52 75 46 225 -95 148 -137 259 -259 292 -320 20 -36 22 -54 21 -175 -1
-142 -27 -568 -45 -730 -13 -125 -39 -267 -55 -305 -17 -42 -104 -162 -243
-335 -273 -341 -414 -446 -616 -457 -76 -5 -84 -3 -170 35 -114 50 -131 53
-275 57 -159 3 -212 27 -337 150 -148 145 -220 174 -389 154 -88 -10 -107 -9
-151 5 -69 23 -122 72 -189 174 -101 153 -164 209 -330 291 -163 80 -233 151
-293 294 -103 249 -131 544 -132 1407 -1 278 -3 534 -5 570 -28 455 -75 755
-197 1260 -111 460 -188 708 -399 1295 -72 198 -169 473 -218 610 -48 138
-132 369 -185 515 -246 669 -302 884 -312 1195 -4 120 -1 184 11 257 10 62 16
153 15 245 -1 144 -1 147 -16 103 -50 -157 -85 -323 -95 -460 -7 -80 -16 -148
-22 -153 -19 -13 -295 17 -551 59 -301 50 -547 126 -840 259 -344 157 -337
153 -329 178 28 89 211 529 232 557 15 19 63 68 107 110 359 337 561 570 719
831 66 109 148 284 151 324 5 49 -13 66 -96 86 -93 24 -219 84 -329 157 -77
51 -380 288 -380 297 0 2 37 -13 83 -34 113 -52 198 -79 287 -91 101 -13 436
-13 461 0 15 9 19 22 19 69 0 111 67 292 196 529 l46 83 76 -42 c42 -23 118
-67 167 -96z m7808 -138 c29 -21 73 -125 81 -185 3 -30 2 -91 -4 -134 -29
-228 -114 -416 -253 -563 -73 -77 -194 -179 -203 -171 -2 3 -10 55 -16 116
l-12 111 30 22 c63 47 232 228 278 297 66 100 89 176 83 269 -3 40 -13 87 -22
105 -11 23 -14 45 -10 73 13 80 16 85 48 60z m262 -470 c79 -237 347 -1272
446 -1719 152 -691 206 -1223 169 -1661 -26 -296 -61 -567 -77 -592 -15 -23
-16 -40 -5 -187 17 -230 68 -462 184 -840 21 -70 38 -130 36 -131 -2 -2 -32
21 -68 50 -36 30 -70 54 -77 54 -34 2 -14 -24 75 -96 l97 -80 32 -97 32 -98
-52 48 c-29 26 -137 131 -240 233 l-189 186 -7 67 -7 68 23 -22 c17 -16 26
-19 34 -11 8 8 0 23 -26 52 -36 40 -38 47 -56 169 -52 355 -159 805 -358 1507
-72 253 -143 507 -158 565 l-26 105 102 100 c103 101 116 125 80 148 -13 8
-39 -13 -135 -109 -101 -102 -151 -142 -337 -269 -121 -81 -221 -154 -224
-162 -6 -16 14 -43 33 -43 8 0 56 29 108 65 81 56 95 63 101 48 22 -58 275
-1085 275 -1118 0 -25 -343 178 -530 313 -119 86 -388 348 -494 482 -138 173
-270 398 -361 610 -20 47 -91 245 -157 440 -66 195 -151 431 -189 525 -37 93
-65 173 -61 176 4 3 61 18 127 34 279 64 597 168 827 270 l117 52 12 -56 c61
-303 221 -953 234 -957 6 -2 23 7 39 20 l28 24 -66 268 c-59 243 -166 715
-166 735 0 8 152 100 157 96 1 -2 49 -218 107 -482 59 -264 109 -488 114 -497
6 -16 9 -16 40 3 17 12 32 28 32 37 0 10 -47 230 -105 490 -58 260 -105 481
-105 491 0 10 33 43 78 78 201 157 318 318 391 543 25 74 51 212 52 274 l1 41
25 -55 c13 -30 44 -113 68 -185z m-741 -507 c4 -51 9 -104 12 -118 4 -23 -3
-30 -68 -68 -39 -22 -74 -40 -75 -38 -8 8 -41 221 -35 224 4 1 39 22 77 46 39
24 73 44 76 45 4 1 10 -41 13 -91z m-233 -155 c10 -54 18 -103 19 -109 0 -23
-341 -163 -586 -239 -198 -62 -504 -136 -532 -128 -12 3 -22 1 -22 -5 0 -19
-430 -91 -760 -126 -352 -38 -752 -47 -1190 -26 -378 18 -1113 59 -1167 65
-42 5 -53 3 -61 -11 -8 -15 -13 -11 -32 27 -31 60 -90 146 -152 220 l-51 62
39 -6 c585 -98 980 -141 1474 -162 226 -10 752 22 1050 64 74 11 182 22 240
26 171 10 283 24 503 61 416 70 734 169 1087 336 63 30 117 54 119 52 2 -2 12
-47 22 -101z m-1022 -698 c61 -147 153 -404 241 -670 79 -240 127 -360 200
-506 130 -260 287 -476 510 -699 199 -200 356 -315 700 -513 151 -86 148 -83
164 -168 l6 -36 -267 133 c-372 185 -483 269 -746 564 -229 257 -389 486 -514
735 -75 148 -122 274 -237 629 -95 292 -157 452 -218 569 -17 31 -29 59 -27
61 6 6 90 24 115 25 19 1 29 -17 73 -124z m-9001 -895 c133 -38 270 -74 302
-81 60 -12 61 -12 143 -111 45 -55 98 -123 117 -151 20 -29 61 -86 91 -127 31
-41 76 -104 101 -140 61 -86 140 -168 172 -176 31 -7 126 42 245 127 45 32 81
56 81 54 0 -3 -27 -69 -61 -147 -256 -602 -448 -1173 -620 -1842 -30 -118 -45
-163 -50 -150 -5 10 -20 98 -34 194 -87 578 -180 922 -497 1835 -88 253 -162
469 -165 480 -3 11 -9 29 -14 40 -13 28 -89 257 -89 268 0 5 8 6 18 2 9 -3
126 -37 260 -75z m1483 -257 c16 -10 29 -20 29 -24 0 -24 -328 -301 -410 -347
-38 -21 -41 -22 -37 -5 3 10 11 36 16 59 8 31 22 48 58 75 54 38 236 195 272
233 27 31 34 31 72 9z m278 -32 c277 -102 726 -191 1052 -208 l116 -6 16 -116
c35 -243 90 -427 309 -1031 77 -212 168 -466 203 -565 35 -99 124 -349 198
-555 169 -469 232 -665 307 -944 52 -196 90 -390 90 -460 0 -28 -97 -177 -298
-458 -332 -466 -382 -591 -492 -1223 -27 -159 -66 -355 -86 -435 -35 -137 -97
-325 -114 -344 -5 -4 -21 4 -37 19 -63 60 -119 66 -240 24 -31 -10 -57 -18
-59 -17 -1 2 4 28 11 58 7 30 17 87 23 125 14 86 0 150 -58 270 -79 164 -187
277 -469 489 -216 163 -298 232 -410 346 -159 161 -250 299 -411 620 -92 184
-152 280 -270 436 -137 179 -160 244 -160 447 0 172 -17 392 -35 460 -45 171
-164 302 -330 363 -33 13 -59 26 -58 31 4 21 212 730 264 903 161 525 312 964
474 1376 l67 172 140 131 c77 72 143 131 145 131 3 0 54 -18 112 -39z m9860
-2811 c41 -90 46 -104 116 -380 78 -304 109 -380 255 -636 167 -293 187 -355
225 -699 41 -382 75 -820 75 -980 l0 -50 -37 60 c-100 165 -137 277 -178 545
-34 214 -58 326 -105 480 -74 238 -188 490 -315 688 -36 56 -76 125 -90 153
-34 65 -70 203 -95 364 -12 72 -34 182 -50 245 -23 89 -31 155 -40 293 -5 98
-10 183 -10 190 0 7 47 -33 105 -88 94 -89 109 -109 144 -185z m193 -138 l87
-90 35 -113 c54 -175 93 -313 121 -434 31 -129 74 -339 71 -342 -9 -9 -54 41
-102 113 -70 105 -140 261 -187 414 -63 204 -147 512 -147 536 0 36 20 22 122
-84z m-7813 -1185 c-34 -61 -130 -218 -211 -347 -293 -463 -332 -564 -423
-1111 -52 -311 -102 -518 -169 -699 -60 -160 -61 -162 -86 -130 -25 31 -25 29
49 221 80 207 123 376 166 647 82 526 133 662 377 1020 70 103 178 265 240
360 62 96 114 169 116 163 2 -6 -25 -62 -59 -124z m90 -144 c42 -480 51 -762
31 -992 l-8 -105 -166 -335 c-91 -185 -179 -377 -195 -426 l-30 -90 -11 -410
c-6 -226 -14 -430 -18 -455 l-7 -44 -102 114 c-186 210 -403 491 -403 522 0 9
19 64 41 124 83 216 122 378 164 674 66 466 142 689 361 1055 105 174 316 504
325 504 3 1 11 -61 18 -136z m6418 -230 c12 -21 58 -129 103 -241 138 -345
196 -458 395 -777 211 -338 237 -401 290 -719 49 -293 63 -328 238 -607 147
-234 171 -293 236 -574 62 -268 93 -342 243 -584 175 -282 205 -349 274 -618
28 -111 60 -208 90 -275 38 -83 48 -114 48 -161 1 -50 -3 -62 -22 -77 -24 -20
-122 -45 -215 -56 l-57 -7 -58 124 c-90 191 -117 271 -141 419 -38 233 -94
373 -274 680 -112 191 -137 254 -176 445 -54 261 -81 323 -249 578 -128 193
-147 240 -208 502 -82 348 -129 459 -316 737 -182 270 -288 467 -360 673 l-25
70 47 165 c71 247 100 340 109 340 4 0 17 -17 28 -37z m-171 -635 c17 -24 63
-110 104 -193 48 -96 126 -227 218 -365 208 -312 254 -415 333 -755 65 -284
86 -332 235 -552 136 -200 169 -278 220 -519 50 -239 56 -255 194 -490 166
-280 222 -421 260 -649 25 -154 37 -195 103 -340 27 -60 55 -129 63 -152 l13
-43 -62 0 c-80 1 -205 23 -245 44 -49 26 -96 99 -151 236 -67 170 -79 215 -92
349 -21 223 -52 318 -180 547 -91 163 -126 252 -163 414 -47 212 -92 309 -233
505 -126 176 -133 195 -218 555 -51 218 -113 350 -319 675 -59 94 -130 216
-158 272 l-51 102 22 113 c36 180 62 288 70 288 4 0 21 -19 37 -42z m-106
-510 c17 -18 43 -53 58 -78 14 -25 73 -119 131 -210 186 -292 228 -387 291
-647 64 -268 70 -289 101 -353 15 -33 69 -118 119 -188 122 -170 173 -275 210
-432 49 -210 87 -309 177 -473 130 -234 164 -332 178 -525 8 -120 28 -213 70
-327 20 -55 45 -124 56 -154 30 -81 25 -85 -61 -47 -157 70 -156 69 -223 213
-95 205 -106 235 -142 391 -43 189 -69 256 -154 400 -81 135 -105 195 -161
399 -51 186 -85 257 -205 424 -128 178 -168 263 -195 409 -57 309 -69 361
-102 440 -19 47 -70 141 -113 210 -43 69 -89 148 -102 177 l-24 52 21 163 c21
165 25 188 34 188 3 0 19 -15 36 -32z m-38 -488 c25 -41 64 -105 86 -142 76
-123 116 -247 147 -453 37 -246 72 -331 225 -545 117 -165 151 -236 204 -433
47 -172 88 -269 181 -427 69 -118 89 -171 126 -335 39 -170 50 -203 125 -363
61 -127 63 -134 37 -117 -168 107 -343 261 -480 421 -47 56 -63 83 -73 125 -6
30 -52 137 -100 239 -103 215 -110 237 -150 473 -16 98 -37 204 -46 235 -22
76 -78 187 -153 300 -79 120 -132 226 -166 332 -24 78 -27 103 -32 305 -6 225
3 484 17 468 4 -4 27 -42 52 -83z m-7289 -251 c9 -17 17 -50 17 -73 0 -77 -64
-237 -133 -334 -26 -36 -33 -40 -45 -29 -11 12 -7 23 27 72 23 32 41 62 41 67
0 6 14 40 30 78 53 120 34 175 -58 175 -26 0 -62 -4 -81 -9 -26 -6 -32 -5 -29
5 4 11 173 76 203 78 6 1 18 -13 28 -30z m-290 -249 l28 -50 -33 -43 c-271
-346 -338 -407 -586 -531 -163 -82 -948 -392 -1257 -496 -366 -124 -796 -297
-952 -385 -38 -21 -42 -21 -33 -5 12 22 136 133 227 203 112 86 265 177 438
262 206 101 365 164 720 285 550 188 787 294 1045 471 112 76 258 204 317 278
26 33 50 60 53 60 3 1 18 -22 33 -49z m7696 -564 c66 -97 124 -220 145 -306 8
-36 25 -126 36 -200 29 -195 53 -272 137 -443 74 -149 107 -227 97 -227 -12 0
-152 229 -213 350 -133 261 -226 500 -285 735 -27 109 -66 306 -66 333 0 9 22
-23 48 -73 26 -49 72 -126 101 -169z m-7789 145 c0 -31 -413 -303 -690 -453
-314 -171 -461 -230 -870 -349 -222 -65 -626 -201 -755 -254 -136 -56 -384
-178 -514 -253 -69 -40 -126 -72 -128 -72 -2 0 12 23 31 52 32 47 48 58 158
115 328 169 616 288 1054 437 323 110 1086 411 1254 495 138 69 260 148 355
230 64 55 105 75 105 52z"/>
<path d="M23410 27114 c0 -11 7 -67 15 -125 66 -474 71 -925 14 -1283 -21
-129 -30 -210 -54 -486 -9 -96 -18 -197 -20 -225 l-5 -50 15 50 c20 66 109
467 129 575 52 288 71 590 56 887 -15 306 -32 422 -74 528 -42 105 -76 162
-76 129z"/>
<path d="M18467 29092 c-72 -67 -95 -78 -197 -95 -63 -10 -76 -16 -89 -38 -14
-25 -11 -33 41 -145 31 -65 71 -166 88 -224 53 -175 95 -232 208 -281 79 -35
137 -22 199 43 48 50 80 131 113 284 36 167 45 196 77 252 14 24 23 54 21 70
-3 27 -3 27 -88 27 -131 1 -152 12 -257 139 -12 14 -29 26 -37 26 -9 0 -45
-26 -79 -58z m147 -67 c54 -63 100 -90 169 -100 34 -5 53 -14 63 -30 14 -21
10 -38 -46 -220 -33 -109 -69 -213 -81 -232 -54 -87 -162 -118 -244 -71 -65
38 -96 98 -169 320 -36 111 -66 210 -66 219 0 23 19 35 62 42 51 8 99 32 165
83 31 24 66 44 78 44 13 0 39 -20 69 -55z"/>
<path d="M19929 28997 c-57 -40 -129 -92 -159 -116 -104 -81 -369 -306 -365
-309 2 -2 41 20 87 50 85 55 167 122 313 256 44 40 120 100 168 133 49 32 82
59 74 59 -8 0 -61 -33 -118 -73z"/>
<path d="M16991 27219 c-131 -145 -177 -253 -151 -349 6 -24 24 -56 40 -72 24
-23 37 -28 78 -28 64 0 107 29 150 100 30 50 92 223 92 253 -1 6 -23 -32 -51
-85 -60 -116 -112 -174 -165 -184 -32 -6 -40 -3 -57 17 -40 50 2 189 112 364
21 33 41 66 45 73 18 31 -10 4 -93 -89z"/>
<path d="M20107 25622 c-69 -93 -194 -195 -285 -232 -56 -22 -27 -23 45 -2
145 45 261 147 287 255 10 40 -8 33 -47 -21z"/>
<path d="M21100 25630 c0 -6 8 -24 19 -38 10 -15 64 -117 120 -227 118 -234
179 -323 243 -354 24 -11 56 -21 70 -21 36 0 76 35 87 78 20 69 -53 254 -126
323 l-37 34 23 -35 c38 -59 83 -163 89 -204 6 -47 -21 -106 -50 -106 -48 0
-77 31 -156 162 -114 188 -282 420 -282 388z"/>
<path d="M17845 24934 c-281 -51 -637 -254 -871 -495 -223 -232 -364 -537
-364 -792 0 -295 138 -555 356 -669 154 -81 280 -90 579 -44 276 42 417 34
715 -42 326 -84 492 -79 680 19 181 94 348 309 391 504 27 125 9 366 -40 535
-102 351 -280 606 -544 781 -142 93 -225 129 -389 169 -214 51 -362 61 -513
34z m344 -89 c36 -8 92 -19 123 -24 82 -15 251 -83 349 -141 109 -66 249 -187
316 -275 68 -89 160 -269 208 -405 63 -181 91 -414 66 -546 -45 -236 -259
-466 -482 -519 -134 -31 -268 -18 -554 55 -266 68 -389 72 -715 24 -91 -13
-199 -24 -240 -24 -259 0 -462 170 -541 456 -31 112 -32 278 0 389 28 100 112
278 179 377 194 288 596 558 942 632 87 19 266 20 349 1z"/>
<path d="M17535 24348 c115 -122 158 -248 85 -248 -26 0 -32 6 -51 50 -32 74
-39 77 -95 32 -162 -129 -258 -295 -273 -472 l-7 -85 -8 49 c-30 176 72 373
284 549 36 31 40 37 20 31 -41 -10 -128 -72 -184 -130 -150 -157 -212 -382
-144 -526 66 -142 228 -172 376 -71 211 144 281 423 168 668 -44 96 -136 189
-206 210 -20 6 -13 -5 35 -57z"/>
<path d="M18413 24360 c-194 -97 -305 -308 -274 -520 39 -261 166 -406 353
-403 131 2 234 63 278 165 19 44 22 65 18 142 -3 80 -8 100 -42 170 -44 90
-136 189 -227 243 -83 49 -80 50 -140 -11 -55 -56 -75 -66 -97 -44 -33 33 5
91 111 172 40 29 98 68 130 86 31 18 57 34 57 36 0 2 -20 4 -44 4 -31 0 -67
-12 -123 -40z"/>
<path d="M17815 23254 c-11 -2 -45 -9 -75 -15 -30 -6 -116 -35 -190 -64 -75
-29 -153 -56 -173 -60 -20 -4 -37 -11 -37 -16 0 -5 10 -7 23 -5 12 3 40 8 62
11 22 3 108 22 190 42 127 30 169 35 275 36 122 2 128 1 250 -40 107 -36 280
-77 280 -67 0 7 -210 104 -280 129 -123 44 -252 63 -325 49z"/>
<path d="M19996 24896 l39 -35 -35 -8 c-34 -8 -34 -8 19 -13 l54 -5 -42 -52
c-23 -29 -39 -53 -36 -53 3 0 26 19 50 41 53 49 59 46 107 -38 27 -48 33 -53
64 -53 49 0 51 20 9 95 l-36 65 78 0 c76 1 77 1 50 16 -16 9 -53 18 -83 21
-44 5 -52 8 -43 19 14 17 5 18 -23 3 -16 -9 -26 -7 -49 10 -22 16 -43 21 -95
21 l-67 0 39 -34z"/>
<path d="M20320 24706 c-61 -37 -86 -46 -144 -52 -71 -7 -71 -7 -31 -16 72
-17 71 -16 34 -54 l-34 -36 34 17 c18 9 37 13 41 8 11 -12 40 -135 34 -145 -3
-4 -10 -6 -15 -3 -5 4 -9 1 -9 -4 0 -6 6 -11 14 -11 22 0 28 -42 9 -63 -15
-16 -15 -17 -1 -12 14 5 17 -5 23 -59 7 -59 10 -67 31 -72 51 -13 57 -2 52 96
-6 101 -11 97 71 64 19 -8 36 -12 38 -10 6 6 -62 46 -78 46 -7 0 3 16 22 36
29 32 31 35 9 24 -14 -7 -38 -22 -53 -32 -23 -17 -34 -18 -65 -10 l-37 10 33
1 c18 1 35 7 38 15 5 12 -12 92 -32 159 -5 17 -1 18 43 12 26 -3 66 -8 88 -11
l40 -5 -29 19 c-16 11 -49 26 -73 33 l-44 12 42 43 c24 24 39 44 33 44 -5 0
-43 -20 -84 -44z"/>
<path d="M20190 24216 c0 -2 21 -13 46 -25 60 -29 57 -54 -11 -98 -57 -37 -54
-43 6 -12 23 11 42 19 44 17 1 -2 -2 -41 -7 -88 -8 -80 -7 -86 13 -103 19 -15
25 -16 43 -4 18 12 22 29 30 111 5 53 12 96 16 96 4 0 52 -42 106 -92 53 -51
92 -84 87 -73 -6 11 -52 60 -102 108 -50 48 -91 89 -91 91 0 2 16 14 36 25 49
29 39 35 -21 12 l-48 -18 -70 28 c-72 30 -77 32 -77 25z"/>
<path d="M16061 23185 c96 -179 203 -307 393 -472 155 -135 155 -135 98 -63
-29 36 -88 97 -133 135 -98 85 -184 183 -256 290 -29 44 -71 100 -94 125 l-41
45 33 -60z"/>
<path d="M20885 22807 c-156 -237 -264 -365 -395 -470 -35 -28 -34 -28 30 5
98 49 228 193 351 388 35 55 102 191 97 196 -2 1 -39 -52 -83 -119z"/>
<path d="M8954 19407 c14 -41 81 -129 140 -185 60 -56 338 -276 374 -296 50
-28 -129 148 -278 273 -36 30 -105 93 -154 140 -49 47 -86 78 -82 68z"/>
<path d="M17290 20362 c0 -4 21 -28 46 -52 105 -102 152 -271 160 -590 9 -332
-13 -1521 -31 -1685 -29 -264 -92 -582 -150 -760 l-7 -20 17 20 c9 11 46 79
81 150 49 100 70 155 89 240 42 191 66 420 71 670 2 127 9 469 15 760 16 850
-3 1022 -132 1169 -23 26 -65 60 -93 76 -53 31 -66 35 -66 22z"/>
<path d="M14959 17774 c-58 -44 -142 -82 -210 -95 -35 -7 -68 -16 -73 -20 -9
-8 106 -23 174 -23 26 0 63 10 86 22 44 22 120 114 109 132 -11 18 -50 11 -86
-16z"/>
<path d="M21850 20046 c0 -8 27 -34 60 -57 70 -49 127 -127 147 -201 24 -94
37 -474 36 -1098 -2 -983 -29 -1440 -99 -1648 -28 -83 -47 -114 -182 -290 -52
-68 -92 -125 -89 -128 3 -3 45 34 95 81 149 142 254 296 287 420 8 33 22 123
30 200 32 311 39 560 39 1360 1 908 -6 1065 -50 1146 -46 84 -151 178 -241
215 -29 12 -33 12 -33 0z"/>
<path d="M18305 19659 c-37 -71 -72 -294 -129 -824 -63 -578 -97 -1037 -95
-1275 1 -130 4 -101 29 270 46 677 60 839 96 1161 35 318 70 531 103 637 21
69 20 78 -4 31z"/>
<path d="M3520 17695 c-86 -24 -169 -69 -248 -136 -40 -34 -70 -64 -68 -66 2
-2 68 28 147 66 181 88 228 101 394 102 l130 1 -60 20 c-80 27 -222 33 -295
13z"/>
<path d="M3280 17109 c-322 -183 -451 -279 -578 -430 -60 -72 -136 -206 -180
-319 -30 -76 -46 -247 -26 -277 8 -13 22 -23 31 -23 29 0 133 118 237 267 54
78 135 188 181 245 98 122 305 340 364 383 23 17 58 57 78 90 70 116 102 175
95 175 -4 0 -95 -50 -202 -111z"/>
<path d="M1690 16684 c-40 -17 -82 -53 -75 -64 3 -5 22 -4 42 1 91 21 203 1
368 -65 84 -34 88 -35 60 -11 -63 53 -154 115 -196 135 -53 24 -149 26 -199 4z"/>
<path d="M2120 16174 c1 -32 45 -130 79 -173 33 -42 127 -96 186 -107 19 -3
51 0 72 7 l38 13 -55 16 c-108 33 -192 94 -270 196 -32 43 -50 60 -50 48z"/>
<path d="M6093 18595 c-35 -8 -67 -16 -72 -19 -4 -3 -33 0 -62 6 -58 12 -189
3 -189 -13 0 -5 33 -9 73 -9 39 0 107 -7 150 -15 96 -18 95 -18 72 -1 -18 13
-15 15 37 31 55 15 58 15 96 -4 22 -11 74 -49 117 -83 167 -136 225 -177 173
-121 -37 39 -35 46 12 41 54 -5 38 8 -33 26 -42 11 -72 27 -106 58 -26 24 -68
57 -92 73 -24 17 -45 33 -47 38 -5 10 -58 7 -129 -8z"/>
<path d="M16990 16523 c-318 -31 -595 -81 -940 -169 -507 -131 -483 -124 -420
-118 104 10 406 55 725 109 418 70 512 83 680 95 276 19 682 8 911 -25 327
-48 523 -113 1083 -359 107 -47 196 -84 198 -82 6 5 -401 240 -535 308 -238
121 -517 196 -869 233 -125 13 -721 19 -833 8z"/>
<path d="M6305 16821 c-47 -6 -52 -9 -96 -68 -75 -99 -93 -156 -94 -298 0
-106 3 -130 29 -205 37 -111 43 -198 21 -347 -20 -141 -13 -184 40 -241 l34
-37 -16 54 c-12 42 -14 86 -10 200 5 159 8 172 86 350 23 51 40 96 37 98 -5 5
-64 -72 -73 -94 -8 -20 -18 -15 -31 15 -6 15 -21 42 -33 60 -47 73 -27 254 45
416 26 58 26 59 62 53 76 -13 141 -82 149 -158 5 -54 29 -76 59 -55 27 18 32
76 11 131 -22 58 -85 125 -118 125 -14 0 -31 2 -39 3 -7 2 -35 1 -63 -2z"/>
<path d="M3918 14236 c-216 -89 -402 -300 -458 -522 -77 -300 71 -640 334
-769 331 -162 714 89 850 559 68 234 29 422 -118 569 -154 154 -442 231 -608
163z m297 -83 c144 -36 278 -140 338 -263 31 -62 32 -70 32 -185 0 -112 -3
-127 -36 -222 -52 -146 -110 -244 -204 -339 -142 -144 -301 -193 -467 -144
-60 17 -159 90 -211 155 -206 257 -189 587 42 829 64 66 140 125 209 160 73
37 172 41 297 9z"/>
<path d="M3943 14096 c-103 -38 -198 -121 -261 -226 -11 -19 -33 -71 -48 -115
-22 -66 -27 -98 -28 -185 -1 -90 3 -117 28 -193 46 -142 124 -243 228 -299 37
-20 58 -23 143 -23 89 0 106 3 157 28 138 68 281 290 309 481 35 235 -122 469
-360 540 -71 21 -93 20 -168 -8z m232 -41 c46 -23 166 -142 200 -200 81 -136
91 -321 25 -462 -20 -43 -56 -90 -117 -154 -123 -128 -196 -161 -304 -138
-108 23 -188 78 -247 172 -63 100 -75 145 -76 282 0 108 3 127 27 190 36 90
70 148 120 203 52 56 86 80 156 109 67 28 154 27 216 -2z"/>
<path d="M16048 15885 c-104 -36 -224 -103 -262 -145 -55 -61 -60 -96 -39
-280 9 -88 14 -162 11 -166 -4 -3 -63 -14 -132 -24 -68 -10 -134 -21 -145 -25
-42 -13 -46 -64 -27 -324 10 -131 15 -259 11 -283 -10 -64 8 -75 141 -93 60
-8 139 -15 175 -15 48 0 68 -4 72 -14 3 -8 9 -92 12 -188 7 -195 18 -241 69
-286 40 -35 39 -35 331 -66 790 -86 1906 -145 2536 -134 264 4 252 -2 381 178
129 179 185 289 200 397 l12 81 125 6 c69 4 137 12 150 19 30 15 54 96 111
377 43 208 49 280 26 299 -8 7 -92 19 -187 27 -96 8 -176 17 -178 20 -8 8 19
223 40 321 l21 94 -22 24 c-38 40 -80 46 -650 95 -278 24 -476 33 -910 45
-731 20 -1715 63 -1785 79 -11 3 -50 -6 -87 -19z m637 -100 c270 -13 666 -29
880 -35 740 -20 962 -30 1206 -50 322 -28 617 -58 628 -64 5 -3 0 -45 -10 -93
-25 -124 -46 -374 -59 -688 -14 -362 -28 -466 -80 -570 -52 -104 -217 -334
-250 -349 -46 -21 -961 -6 -1475 24 -496 29 -922 64 -1295 106 l-225 25 -36
35 -37 36 -6 131 c-18 354 -50 763 -82 1055 -30 281 -30 293 1 330 50 59 239
142 310 135 22 -2 261 -14 530 -28z m-919 -837 c13 -156 23 -304 24 -329 0
-44 -1 -45 -27 -43 -124 13 -229 27 -241 31 -11 5 -13 17 -9 48 4 22 0 126 -8
231 -8 104 -15 217 -15 251 l0 62 33 6 c58 11 212 31 216 28 2 -1 14 -130 27
-285z m3849 231 c83 -7 153 -15 158 -18 14 -13 -96 -548 -122 -589 -6 -10 -44
-15 -131 -19 l-123 -6 7 44 c5 33 23 457 26 587 0 15 0 15 185 1z"/>
<path d="M16140 15590 c-47 -3 -76 -7 -65 -8 19 -2 20 -10 23 -305 2 -166 7
-435 12 -599 8 -255 6 -317 -10 -363 0 0 37 1 83 3 48 2 144 -5 232 -18 83
-12 233 -25 335 -30 102 -5 311 -16 465 -24 154 -9 492 -20 750 -26 259 -5
585 -17 725 -25 140 -9 260 -13 267 -11 9 4 13 -6 13 -32 0 -54 17 -21 24 47
3 31 11 160 16 286 17 400 52 829 72 893 14 47 51 86 120 128 88 54 54 61 -51
10 l-86 -41 -150 1 c-82 1 -229 9 -325 18 -313 29 -748 56 -1085 66 -181 6
-440 17 -574 25 -241 15 -627 17 -791 5z m628 -40 c682 -37 871 -50 1427 -100
303 -27 604 -52 670 -55 143 -7 166 -11 160 -28 -3 -6 -11 -131 -19 -275 -8
-145 -16 -266 -18 -268 -8 -7 -234 -24 -329 -24 l-96 0 -12 87 c-13 102 -29
133 -71 133 -50 0 -71 -30 -169 -254 -12 -27 -23 -47 -26 -45 -2 3 -9 45 -15
94 -17 143 -40 195 -85 195 -23 0 -55 -26 -80 -64 -16 -23 -19 -24 -218 -28
-211 -5 -253 -13 -276 -50 -8 -12 -26 -72 -41 -132 -37 -152 -44 -120 -60 284
-9 246 -20 303 -58 308 -18 3 -26 -4 -37 -32 -19 -46 -19 -56 1 -28 20 29 52
29 59 0 3 -13 9 -156 14 -318 6 -162 14 -308 18 -324 20 -68 43 -31 82 138 11
49 24 93 29 98 14 14 42 16 259 24 l208 6 41 40 c71 68 99 41 134 -132 11 -57
22 -106 25 -108 2 -2 38 63 79 146 82 163 103 185 138 142 14 -17 18 -40 18
-94 0 -112 2 -116 69 -116 31 0 127 5 214 11 134 10 160 10 172 -2 22 -22 9
-506 -14 -518 -9 -4 -367 -5 -796 0 -783 7 -1040 17 -1594 59 -298 23 -325 31
-376 114 l-30 49 -5 198 c-5 180 -3 198 12 208 12 7 135 11 370 11 l353 1 70
95 c75 102 109 136 129 128 23 -9 45 -70 66 -186 28 -157 60 -284 75 -304 11
-16 14 -16 29 8 9 14 27 69 41 122 26 103 79 386 73 392 -2 1 -30 -102 -61
-229 -32 -128 -62 -239 -67 -247 -11 -18 -13 -7 -39 180 -26 181 -42 244 -71
275 -48 51 -81 32 -165 -95 -36 -55 -73 -104 -83 -108 -9 -5 -180 -7 -378 -4
l-362 5 -7 165 c-14 305 6 396 100 453 38 24 55 24 523 -1z"/>
<path d="M15934 15498 c3 -46 8 -139 11 -208 3 -69 12 -208 21 -310 8 -102 21
-270 29 -375 l14 -190 -7 325 c-4 179 -7 441 -7 583 l0 257 -33 0 -33 0 5 -82z"/>
<path d="M19110 15283 c0 -10 -7 -251 -16 -536 -9 -285 -14 -521 -10 -524 3
-4 8 -4 10 -2 20 19 47 1079 28 1079 -7 0 -12 -8 -12 -17z"/>
<path d="M16225 14235 c49 -18 480 -48 1135 -80 173 -8 371 -20 440 -25 197
-16 902 -33 1019 -25 226 16 34 30 -809 60 -223 8 -603 23 -845 34 -817 38
-961 44 -940 36z"/>
<path d="M14770 15695 c-6 -8 -10 -20 -8 -28 5 -22 304 -327 321 -327 24 0 40
27 33 56 -4 14 -69 89 -148 170 -143 146 -170 163 -198 129z"/>
<path d="M14792 15398 c-7 -7 -12 -19 -12 -28 0 -18 252 -273 274 -278 17 -4
46 25 46 46 0 24 -252 272 -276 272 -11 0 -25 -5 -32 -12z"/>
<path d="M14762 15168 c-21 -21 -14 -39 35 -92 203 -220 212 -228 237 -222 32
8 40 33 20 64 -9 14 -66 78 -126 143 -110 119 -137 136 -166 107z"/>
<path d="M20594 14939 c-187 -113 -227 -152 -192 -187 17 -17 53 -15 68 3 7 8
69 50 139 92 140 85 161 100 161 119 0 16 -28 44 -44 44 -8 0 -67 -32 -132
-71z"/>
<path d="M20509 14674 c-192 -137 -221 -168 -187 -202 19 -19 50 -14 77 12 15
14 84 67 155 118 71 51 134 101 140 110 8 13 6 22 -8 37 -11 12 -25 21 -31 21
-7 0 -73 -43 -146 -96z"/>
<path d="M20418 14373 c-78 -60 -146 -116 -152 -125 -14 -23 3 -52 32 -56 20
-3 42 12 273 191 49 37 60 62 37 85 -24 24 -50 10 -190 -95z"/>
<path d="M14302 12958 c-39 -57 -80 -114 -91 -128 l-19 -25 28 -33 28 -34 59
79 c33 43 77 104 99 137 l38 58 -29 24 c-17 13 -32 24 -35 24 -3 0 -38 -46
-78 -102z"/>
<path d="M14062 12645 c-40 -47 -72 -88 -72 -93 0 -12 44 -52 56 -51 5 0 34
30 64 66 87 104 84 98 59 133 -13 16 -26 30 -29 30 -3 0 -39 -38 -78 -85z"/>
<path d="M13860 12425 l-65 -65 30 -30 30 -30 65 65 65 65 -30 30 -30 30 -65
-65z"/>
<path d="M13670 12235 l-65 -65 30 -30 30 -30 64 64 63 64 -29 31 -28 32 -65
-66z"/>
<path d="M13192 11346 c-28 -119 -28 -118 7 -139 37 -22 51 -22 51 1 0 9 11
58 23 109 l23 91 -33 16 c-19 9 -37 16 -42 16 -4 0 -17 -42 -29 -94z"/>
<path d="M13147 11098 c-4 -18 -9 -60 -13 -93 l-6 -60 37 -18 c21 -10 39 -17
40 -15 4 3 25 152 25 172 0 10 -58 46 -74 46 -2 0 -6 -15 -9 -32z"/>
<path d="M7032 10465 c-196 -44 -370 -192 -440 -375 -75 -194 -91 -454 -42
-674 43 -193 122 -414 189 -528 22 -38 38 -68 35 -68 -2 0 -62 25 -132 56
-203 90 -506 245 -735 375 -117 67 -267 151 -334 186 -132 69 -158 73 -169 25
-4 -15 -39 -115 -79 -222 -75 -201 -278 -809 -335 -1007 -18 -62 -36 -113 -39
-113 -4 0 -15 33 -25 73 -28 109 -82 250 -142 367 -209 409 -535 574 -839 425
-340 -166 -497 -721 -349 -1233 31 -108 110 -274 168 -357 104 -146 273 -266
422 -301 145 -34 388 16 516 107 28 20 30 21 24 3 -12 -40 -78 -387 -112 -589
-40 -242 -60 -429 -51 -465 5 -17 52 -57 154 -131 189 -136 959 -649 974 -649
6 0 9 8 5 18 -3 9 -20 58 -37 107 -28 78 -33 107 -36 215 -4 93 -1 142 11 194
49 208 181 341 379 382 181 38 391 -41 501 -187 25 -34 46 -64 46 -69 0 -4 -7
-27 -15 -50 -8 -23 -15 -48 -15 -54 1 -25 64 92 92 170 17 46 34 84 38 84 10
0 84 -110 100 -148 17 -42 15 -75 -5 -132 -18 -51 -65 -224 -64 -237 0 -4 11
15 23 42 l24 50 17 -40 c30 -67 32 -222 5 -330 -26 -106 -73 -209 -129 -284
-23 -30 -41 -60 -41 -67 0 -16 214 -166 388 -273 174 -107 339 -193 536 -281
88 -39 165 -75 172 -81 18 -15 30 13 38 91 28 261 190 1068 251 1247 19 55 19
93 1 93 -7 0 -40 -14 -72 -30 -110 -56 -364 -62 -479 -11 -103 46 -211 138
-269 230 -36 56 -81 196 -100 310 -20 116 -20 140 -2 160 12 14 271 561 326
688 20 47 25 52 68 63 172 43 358 6 499 -101 88 -66 157 -160 241 -327 73
-146 77 -153 92 -134 9 11 35 86 59 168 81 282 140 470 249 794 126 372 129
383 104 408 -9 9 -100 48 -202 86 -369 137 -590 230 -590 248 0 22 29 58 124
152 152 151 196 244 196 412 l0 81 111 239 c96 204 196 460 186 471 -2 2 -25
-45 -52 -104 -26 -60 -86 -189 -132 -288 -47 -99 -123 -263 -170 -365 -47
-102 -108 -230 -135 -285 -70 -139 -228 -415 -239 -415 -13 0 -185 64 -297
110 -98 41 -103 44 -97 68 8 31 151 351 245 547 236 493 472 1033 516 1184 52
178 45 166 -67 -106 -23 -57 -44 -103 -48 -103 -4 0 -15 14 -25 30 -30 52
-185 208 -270 272 -98 74 -233 141 -341 169 -105 27 -287 34 -373 14z m365
-46 c211 -55 443 -221 585 -417 l46 -63 -88 -202 c-94 -217 -221 -495 -345
-752 -124 -258 -260 -572 -298 -685 -39 -116 -81 -279 -74 -286 2 -2 32 76 67
173 34 98 66 188 71 200 l8 22 83 -36 c136 -59 310 -123 335 -123 13 0 23 -2
23 -5 0 -2 -27 -73 -60 -157 -32 -83 -58 -153 -56 -155 5 -5 154 312 171 364
l16 51 95 -45 c52 -24 228 -95 392 -157 245 -92 298 -116 300 -132 4 -25 -75
-278 -163 -524 -36 -102 -102 -309 -146 -460 -43 -151 -82 -282 -85 -290 -3
-9 -27 27 -61 95 -61 121 -101 183 -153 241 -137 151 -310 224 -504 211 -50
-4 -102 -9 -115 -13 -21 -6 -22 -5 -13 13 6 11 13 44 16 74 6 50 5 52 -7 27
-7 -16 -33 -41 -57 -56 -93 -59 -209 -204 -275 -344 -56 -119 -76 -213 -77
-363 0 -71 -4 -134 -8 -140 -4 -5 -17 -32 -29 -60 -19 -44 -19 -47 -2 -26 l18
24 18 -99 c24 -138 68 -269 111 -333 70 -103 190 -199 301 -241 108 -40 359
-35 462 11 24 10 45 18 46 17 1 -2 -15 -73 -37 -158 -75 -303 -218 -1054 -218
-1152 0 -16 -1 -28 -3 -28 -12 0 -362 162 -443 205 -180 96 -470 279 -594 374
l-24 19 43 61 c54 78 95 168 122 271 30 118 25 292 -11 365 l-25 50 36 116
c21 63 40 146 43 185 l6 69 -21 -65 -21 -64 -24 51 c-14 28 -43 71 -65 96
l-40 46 36 98 c20 54 43 116 52 138 17 44 47 225 38 233 -3 3 -5 -2 -5 -11 0
-25 -87 -279 -152 -444 l-60 -152 -76 78 c-91 91 -168 133 -287 157 -220 43
-419 -39 -537 -220 -95 -147 -119 -391 -59 -586 11 -35 19 -65 17 -67 -4 -5
-788 520 -920 616 l-128 94 7 81 c14 173 56 429 132 814 51 260 50 282 -12
213 -93 -103 -361 -174 -518 -137 -288 68 -513 350 -599 749 -29 138 -32 392
-5 517 45 210 110 342 227 461 80 81 142 117 245 144 108 28 199 15 320 -44
231 -114 420 -409 525 -820 40 -157 34 -162 106 79 94 310 244 762 335 1007
44 117 79 219 79 228 0 36 30 22 430 -205 157 -88 366 -201 465 -249 229 -113
504 -235 512 -228 3 4 -13 39 -36 79 -135 237 -229 533 -247 773 -11 165 25
375 90 510 74 157 232 276 411 311 90 17 239 10 342 -17z m783 -1579 c-21 -94
-87 -205 -170 -285 -26 -25 -16 2 72 181 79 162 104 205 106 185 2 -14 -1 -51
-8 -81z m-831 -1652 c-27 -62 -103 -225 -167 -362 l-117 -250 -3 76 c-7 193
89 417 251 581 36 37 71 67 76 67 6 0 -12 -51 -40 -112z"/>
<path d="M11120 8673 c0 -9 98 -125 484 -572 494 -573 575 -646 1074 -975 139
-91 296 -198 349 -237 52 -39 102 -73 111 -76 25 -7 -211 222 -308 300 -47 37
-164 122 -262 188 -97 66 -241 173 -320 237 -160 130 -455 420 -753 742 -279
301 -375 402 -375 393z"/>
<path d="M12437 3948 c-178 -192 -345 -387 -453 -530 -105 -140 -299 -427
-292 -433 5 -5 220 230 324 355 118 142 544 720 530 720 -3 0 -51 -51 -109
-112z"/>
<path d="M17460 3970 c0 -22 103 -355 121 -391 18 -37 46 -65 55 -57 11 11
-69 266 -110 354 -40 84 -66 121 -66 94z"/>
<path d="M22989 11777 c-101 -79 -331 -234 -451 -306 -60 -35 -108 -70 -108
-77 0 -7 10 -19 22 -25 18 -10 34 -5 110 34 59 31 90 42 93 34 2 -7 11 -38 20
-70 17 -61 19 -62 69 -22 19 15 20 16 2 85 -10 39 -17 72 -15 74 2 2 33 22 68
46 69 46 75 45 86 -20 10 -57 16 -61 53 -30 l33 28 -12 62 c-8 41 -9 64 -2 68
42 28 134 110 139 125 6 20 -12 47 -30 46 -6 0 -41 -24 -77 -52z"/>
<path d="M23079 11514 c-77 -80 -254 -218 -422 -328 -98 -64 -177 -122 -175
-128 2 -6 13 -14 24 -18 14 -6 46 8 119 51 55 32 103 59 106 59 3 0 11 -25 18
-55 7 -30 18 -55 24 -55 7 0 24 10 39 23 l28 22 -15 55 c-8 30 -15 57 -15 61
0 11 121 90 129 84 5 -3 12 -22 16 -43 10 -61 17 -65 55 -34 33 28 33 29 22
75 -7 25 -12 52 -12 59 0 7 34 42 75 76 76 63 91 92 63 120 -20 20 -43 14 -79
-24z"/>
<path d="M23558 21228 c-148 -146 -185 -193 -194 -246 -4 -23 -4 -42 -1 -42 3
0 56 64 118 143 62 78 135 168 162 200 27 31 45 57 40 57 -6 0 -62 -51 -125
-112z"/>
<path d="M23218 20789 c-110 -199 -154 -442 -112 -619 31 -133 133 -309 273
-470 162 -188 583 -597 832 -810 159 -136 524 -430 533 -430 3 0 6 22 6 48 0
42 -4 51 -30 70 -42 32 -376 309 -495 412 -55 48 -140 119 -190 159 -131 105
-408 364 -524 490 -107 117 -258 314 -309 403 -74 130 -108 272 -91 380 16 97
65 237 114 322 30 53 42 83 36 93 -6 11 -17 -1 -43 -48z"/>
<path d="M15182 3009 c-12 -85 -31 -233 -42 -329 -11 -96 -31 -263 -45 -370
-67 -521 -54 -745 59 -1034 75 -193 180 -384 324 -591 74 -106 184 -246 190
-241 2 3 -1 35 -7 73 -34 207 -43 362 -51 918 -6 452 -11 592 -24 675 -19 118
-54 265 -86 355 -32 93 -137 337 -207 481 -34 72 -63 138 -63 145 -1 8 -7 27
-13 43 -12 27 -15 17 -35 -125z m207 -494 c23 -57 52 -146 66 -197 55 -208 56
-228 65 -813 5 -302 11 -588 14 -635 7 -101 13 -114 -98 235 -140 446 -167
562 -187 800 -15 189 -6 320 37 507 19 84 37 165 41 181 3 15 9 27 13 27 5 0
27 -47 49 -105z"/>
<path d="M13220 2957 c0 -37 42 -219 70 -299 36 -107 111 -267 117 -250 20 54
-108 451 -176 552 -9 13 -11 12 -11 -3z"/>
<path d="M15816 1652 c-3 -6 -3 -144 1 -307 5 -239 9 -298 20 -302 8 -3 15 -4
16 -2 2 2 -1 139 -5 304 -8 273 -14 335 -32 307z"/>
<path d="M14487 1448 c-63 -291 -114 -561 -158 -832 -27 -171 -60 -375 -74
-454 -14 -79 -25 -147 -25 -152 0 -6 13 -10 30 -10 34 0 35 4 45 115 13 149
78 608 141 993 63 392 77 510 41 340z"/>
<path d="M10516 1402 c-3 -5 43 -83 103 -173 497 -752 632 -952 721 -1077 94
-132 122 -163 136 -150 3 3 -37 63 -88 134 -105 148 -336 487 -484 714 -371
568 -375 573 -388 552z"/>
</g>
</svg>
