<?xml version="1.0" standalone="no"?>
<!DOCTYPE svg PUBLIC "-//W3C//DTD SVG 20010904//EN"
 "http://www.w3.org/TR/2001/REC-SVG-20010904/DTD/svg10.dtd">
<svg version="1.0" xmlns="http://www.w3.org/2000/svg"
 width="2475.000000pt" height="3300.000000pt" viewBox="0 0 2475.000000 3300.000000"
 preserveAspectRatio="xMidYMid meet">

<g transform="translate(0.000000,3300.000000) scale(0.100000,-0.100000)"
fill="#000000" stroke="none">
<path d="M12240 31954 c-14 -2 -63 -9 -110 -15 -249 -32 -519 -138 -740 -290
-372 -255 -625 -637 -721 -1089 -19 -89 -23 -137 -23 -315 -1 -234 14 -342 75
-526 257 -777 1051 -1272 1869 -1164 782 103 1387 694 1506 1470 22 145 15
425 -15 564 -159 742 -768 1284 -1530 1361 -97 9 -256 12 -311 4z m365 -125
c160 -20 369 -85 524 -163 292 -148 575 -431 719 -721 57 -116 107 -255 134
-375 20 -93 23 -131 23 -330 0 -180 -4 -242 -18 -310 -129 -605 -594 -1082
-1203 -1236 -317 -80 -623 -68 -937 36 -546 182 -953 631 -1079 1191 -20 92
-23 130 -23 324 0 245 9 307 71 495 132 401 435 743 829 935 302 148 613 198
960 154z"/>
<path d="M17205 30965 c-333 -54 -627 -201 -871 -437 -259 -251 -417 -558
-464 -904 -16 -120 -8 -421 15 -524 103 -469 415 -871 840 -1084 738 -370
1635 -130 2082 555 252 387 317 885 172 1324 -77 233 -196 423 -383 611 -237
237 -487 374 -817 445 -126 27 -442 35 -574 14z m538 -95 c203 -40 394 -119
577 -241 120 -79 313 -271 391 -389 297 -447 341 -985 120 -1456 -202 -427
-585 -729 -1062 -836 -91 -20 -130 -23 -319 -23 -240 0 -304 9 -490 71 -223
74 -427 201 -595 369 -209 209 -342 456 -407 753 -31 143 -31 435 0 579 127
585 572 1032 1165 1168 175 40 432 42 620 5z"/>
<path d="M7115 30954 c-414 -63 -726 -218 -986 -492 -203 -213 -340 -472 -404
-762 -26 -118 -32 -430 -10 -561 53 -318 203 -606 439 -844 208 -209 448 -348
726 -421 477 -125 994 -26 1380 265 309 232 510 541 602 926 25 103 36 412 19
539 -77 575 -497 1078 -1061 1269 -177 60 -281 78 -490 82 -102 2 -198 1 -215
-1z m443 -99 c336 -59 628 -214 857 -457 396 -417 513 -1027 300 -1559 -295
-736 -1130 -1119 -1896 -869 -299 98 -586 310 -768 565 -304 430 -355 996
-131 1471 228 486 701 816 1240 865 108 9 297 2 398 -16z"/>
<path d="M21645 28895 c-226 -36 -444 -122 -645 -256 -124 -82 -323 -281 -409
-407 -71 -105 -158 -281 -194 -393 -54 -165 -62 -228 -62 -474 0 -216 2 -236
27 -337 110 -433 369 -776 753 -992 439 -247 981 -270 1440 -61 463 212 797
639 886 1134 18 100 20 142 16 306 -3 123 -11 217 -22 265 -139 625 -631 1095
-1266 1210 -132 23 -393 26 -524 5z m570 -99 c343 -79 635 -261 848 -527 536
-669 373 -1651 -353 -2121 -458 -297 -1032 -324 -1520 -72 -395 204 -672 571
-767 1014 -28 134 -26 440 5 579 31 139 62 223 133 362 223 433 659 731 1159
793 19 2 112 3 205 2 144 -2 188 -7 290 -30z"/>
<path d="M2592 28870 c-650 -117 -1139 -584 -1277 -1220 -10 -46 -19 -145 -22
-255 -4 -156 -2 -196 16 -300 76 -423 308 -777 665 -1017 560 -375 1297 -354
1838 52 478 359 701 949 582 1540 -35 170 -127 383 -236 542 -79 116 -242 286
-348 364 -224 164 -489 271 -750 303 -130 17 -349 12 -468 -9z m570 -90 c285
-60 534 -191 740 -389 133 -127 214 -238 298 -406 118 -237 156 -413 147 -688
-8 -244 -40 -373 -146 -592 -263 -539 -864 -874 -1465 -817 -682 64 -1209 534
-1343 1197 -25 124 -25 405 0 525 131 630 606 1079 1252 1185 126 20 387 13
517 -15z"/>
<path d="M8115 26236 c-126 -30 -238 -80 -357 -162 -57 -38 -90 -54 -125 -59
-221 -29 -416 -96 -553 -188 -25 -17 -104 -90 -177 -163 -130 -132 -134 -134
-265 -200 -261 -130 -352 -207 -486 -413 -41 -62 -115 -157 -164 -210 -101
-108 -256 -332 -289 -419 -13 -34 -23 -86 -25 -131 l-3 -75 -72 -66 -72 -66
-37 41 c-59 63 -88 117 -151 277 -73 184 -89 217 -198 397 -219 365 -430 585
-668 699 -74 35 -83 37 -178 37 -92 0 -104 -2 -148 -28 -26 -15 -60 -47 -75
-69 -23 -36 -27 -52 -27 -117 0 -142 45 -209 350 -521 116 -118 226 -236 243
-262 45 -66 76 -152 132 -368 71 -270 77 -290 109 -342 l30 -47 -77 -54 c-119
-83 -129 -87 -265 -96 -67 -5 -151 -17 -187 -26 -91 -23 -218 -85 -302 -146
-91 -66 -124 -80 -291 -124 -76 -19 -160 -44 -187 -55 -127 -50 -263 -130
-352 -208 -24 -20 -84 -64 -134 -97 -49 -33 -129 -98 -178 -145 -149 -143
-224 -254 -278 -411 -28 -83 -32 -107 -33 -204 0 -125 14 -169 69 -208 91 -65
369 18 668 200 132 80 206 149 274 256 27 43 66 105 88 138 21 34 50 65 65 71
109 45 223 101 321 157 146 84 195 100 295 101 44 1 103 5 130 10 28 4 52 6
53 5 2 -2 -8 -23 -22 -47 -14 -24 -93 -192 -176 -373 -83 -182 -167 -355 -187
-385 -50 -74 -194 -217 -267 -265 -105 -68 -238 -132 -341 -164 -153 -48 -222
-105 -259 -214 -50 -149 16 -282 167 -334 84 -29 232 -24 332 11 132 46 257
126 366 235 53 53 94 89 92 81 -2 -8 -28 -137 -57 -287 l-54 -271 -100 -209
c-149 -313 -191 -434 -227 -668 -23 -142 -16 -388 14 -515 34 -148 97 -280
154 -325 l32 -24 7 -318 c6 -277 5 -323 -8 -358 -9 -22 -20 -50 -25 -63 -9
-24 -9 -24 -55 17 -68 60 -143 107 -247 156 -135 64 -201 79 -337 79 -100 0
-124 -4 -183 -27 -155 -60 -262 -177 -327 -356 -41 -112 -54 -211 -47 -359 8
-172 35 -322 111 -628 127 -511 168 -752 251 -1469 89 -770 150 -1028 306
-1300 113 -198 273 -320 514 -390 117 -35 283 -45 370 -22 33 8 66 17 74 19
11 2 17 -11 23 -47 75 -451 174 -946 238 -1193 151 -578 382 -1030 845 -1651
399 -535 1107 -1417 1384 -1723 512 -567 1021 -898 1541 -1002 243 -48 582
-84 887 -93 197 -6 215 -5 233 12 11 10 20 28 20 39 0 12 9 48 21 81 53 151
113 514 129 783 15 240 2 448 -51 819 -35 245 -42 320 -46 503 -4 208 -4 218
21 310 15 52 38 138 52 190 21 76 26 119 27 210 0 128 -10 194 -55 353 -35
126 -34 153 14 337 82 316 79 530 -11 707 l-30 60 43 54 c61 77 501 493 946
894 85 76 218 198 295 270 77 72 248 227 380 344 202 181 240 210 247 195 4
-11 176 -944 383 -2074 207 -1130 379 -2063 381 -2072 3 -11 15 -18 28 -18 20
0 24 7 32 63 49 312 711 4116 716 4115 4 -2 398 -353 875 -780 l869 -778 1
-58 c2 -56 18 -110 78 -250 71 -169 72 -392 3 -682 -11 -47 -22 -123 -25 -170
-5 -82 -4 -91 41 -220 67 -197 71 -240 46 -429 -12 -86 -36 -246 -53 -356 -40
-258 -43 -464 -8 -650 13 -66 32 -169 43 -230 17 -87 21 -151 21 -310 1 -277
-29 -493 -120 -885 -51 -219 -57 -301 -24 -334 16 -16 41 -21 133 -28 408 -29
998 84 1448 279 209 91 371 182 537 305 262 192 462 415 1216 1355 404 504
560 708 694 908 223 335 347 588 493 1005 140 401 202 597 270 864 27 103 50
189 52 190 2 1 52 13 111 28 118 30 259 92 358 158 172 116 405 413 548 698
61 122 137 317 202 520 206 638 255 776 407 1142 336 811 387 964 428 1271 23
174 15 461 -15 574 -47 178 -154 335 -269 398 -162 88 -481 72 -761 -38 -36
-14 -66 -24 -67 -22 -2 1 -12 45 -24 97 -11 53 -37 156 -58 230 l-39 135 13
115 c31 289 83 974 106 1404 l12 228 19 -28 c39 -56 145 -149 201 -178 91 -45
148 -56 296 -56 229 0 323 31 430 139 169 171 169 378 0 493 -56 38 -82 46
-324 102 -163 38 -236 77 -335 177 -100 102 -170 193 -249 325 l-60 99 -21
190 c-12 105 -21 200 -21 213 l0 22 40 -20 c22 -11 95 -37 163 -57 108 -32
135 -36 242 -37 94 -1 133 3 179 19 83 26 145 71 181 129 26 44 30 58 30 125
0 63 -5 86 -28 133 -69 141 -227 242 -475 304 -131 32 -133 33 -207 104 -33
31 -97 79 -143 105 -71 42 -82 52 -77 69 13 43 18 420 6 508 -27 205 -81 361
-209 603 -144 273 -189 350 -273 461 -98 130 -185 201 -344 282 -33 17 -98 55
-145 86 -153 101 -309 151 -510 162 l-105 7 -106 78 c-58 43 -114 87 -124 99
-10 11 -30 20 -45 20 -22 0 -34 12 -73 73 -113 178 -265 283 -562 387 -146 51
-195 76 -262 132 -219 183 -270 217 -378 250 -117 36 -265 27 -383 -24 -34
-14 -69 -18 -156 -18 -100 0 -115 2 -131 20 -27 30 -198 138 -270 171 -90 41
-276 95 -375 110 -222 32 -478 -18 -720 -142 l-95 -48 -175 -6 c-96 -3 -198
-8 -226 -11 -90 -9 -86 2 -85 -260 l2 -229 -101 -118 c-67 -77 -128 -136 -178
-172 -97 -70 -320 -180 -477 -235 -66 -23 -141 -53 -167 -66 -93 -47 -148
-114 -148 -180 0 -64 81 -145 173 -174 232 -73 581 36 814 253 35 33 65 58 67
56 2 -2 0 -186 -5 -409 -11 -569 -11 -1589 1 -2139 5 -256 11 -646 14 -866 l5
-399 -156 -161 c-86 -88 -451 -460 -812 -826 -497 -504 -658 -662 -663 -650
-4 9 -60 282 -123 606 -63 325 -169 858 -235 1185 -171 845 -260 1352 -360
2065 -17 125 -25 153 -42 168 -18 15 -24 16 -35 5 -7 -8 -32 -128 -57 -288
-47 -286 -92 -531 -201 -1080 -78 -394 -102 -526 -250 -1395 -207 -1217 -237
-1390 -240 -1393 -4 -5 -391 309 -730 592 -383 319 -922 791 -1007 882 l-26
29 -7 2565 c-6 2161 -9 2568 -21 2587 -18 29 -220 126 -325 157 -142 40 -237
49 -402 37 -80 -6 -181 -11 -225 -11 l-79 0 -120 78 c-157 102 -246 133 -393
138 -66 2 -127 -2 -165 -10z m180 -136 c92 -32 186 -83 234 -128 39 -37 42
-43 21 -38 -166 39 -359 -13 -485 -129 -35 -32 -39 -39 -15 -22 169 120 348
146 514 77 l78 -33 -72 -33 c-39 -18 -104 -57 -143 -85 -89 -64 -106 -80 -47
-45 85 51 176 94 233 111 66 19 108 16 300 -21 136 -27 206 -48 277 -84 l45
-22 -44 46 c-31 32 -40 47 -30 50 99 31 176 49 229 54 l65 5 -115 39 c-101 34
-124 39 -191 36 -56 -2 -82 -8 -96 -21 -19 -17 -22 -16 -78 18 -33 19 -63 35
-69 35 -6 0 -6 3 0 9 15 13 295 34 355 26 105 -14 172 -43 304 -130 71 -47
134 -85 140 -85 13 0 25 -594 25 -1183 l0 -310 -42 -55 c-97 -125 -369 -337
-552 -429 -90 -46 -172 -58 -472 -72 -435 -21 -651 -50 -869 -114 -66 -20
-167 -47 -224 -62 -179 -45 -579 -174 -751 -241 -294 -116 -718 -336 -911
-473 -346 -246 -437 -405 -548 -959 -22 -108 -52 -276 -66 -372 -41 -269 -174
-1063 -196 -1170 -48 -226 -79 -299 -244 -585 -165 -287 -357 -677 -439 -890
-86 -229 -178 -535 -182 -609 -4 -64 -24 -105 -22 -45 1 19 -4 102 -10 184
-66 837 -28 1821 98 2570 36 215 131 680 185 911 30 127 90 265 258 589 135
262 165 316 237 428 l40 62 -46 -50 c-67 -74 -243 -307 -325 -432 l-71 -108 7
80 c8 92 27 198 49 268 25 84 -4 49 -81 -94 -83 -154 -148 -301 -210 -478 -23
-68 -45 -126 -47 -128 -18 -18 43 307 64 342 10 17 73 139 139 271 67 133 143
275 169 315 46 70 51 75 99 86 81 18 199 70 298 128 75 44 101 54 155 60 216
22 411 91 507 178 29 28 61 63 69 79 35 68 83 107 158 128 39 12 89 28 111 36
126 48 322 214 385 326 27 48 38 59 68 67 21 4 77 18 127 30 137 32 271 101
370 192 22 20 56 41 75 47 54 17 265 50 355 56 141 9 296 70 369 145 l37 38
212 -5 c245 -5 400 6 580 43 143 29 159 28 257 -18 36 -16 92 -37 125 -46 54
-15 64 -22 94 -66 19 -28 31 -43 28 -34 -3 9 -15 47 -27 85 -28 92 -56 137
-141 228 -99 106 -178 143 -344 161 l-60 7 60 -31 c33 -17 86 -52 119 -78 72
-58 70 -59 -115 -67 -74 -4 -228 -11 -344 -18 l-210 -11 -98 33 -98 34 43 43
c55 57 143 120 221 160 34 18 57 33 51 33 -38 1 -222 -82 -281 -126 -17 -13
-34 -24 -36 -24 -27 0 -175 -178 -201 -241 -12 -30 -28 -42 -88 -72 -40 -20
-100 -45 -133 -56 -74 -24 -232 -57 -240 -50 -8 8 127 241 181 310 41 54 88
97 164 152 55 39 -90 -39 -155 -84 -83 -57 -141 -110 -182 -164 -38 -50 -113
-187 -113 -206 0 -8 -33 -28 -78 -47 -42 -18 -113 -59 -157 -92 -91 -67 -226
-141 -311 -170 -81 -28 -88 -27 -69 10 9 17 40 84 69 150 61 137 121 225 203
300 l58 54 -45 -25 c-25 -13 -85 -64 -135 -113 l-90 -88 -95 -4 c-52 -2 -135
-1 -184 3 l-88 8 103 83 c57 46 137 100 178 120 73 36 77 37 185 36 61 0 172
-2 246 -5 117 -3 298 6 288 16 -2 2 -57 8 -123 15 -66 6 -172 22 -235 36 -63
15 -146 29 -185 33 l-70 7 50 16 c28 9 82 26 122 37 53 16 93 37 155 83 126
93 155 103 328 103 107 0 166 -5 225 -19 98 -22 276 -81 328 -108 22 -11 41
-17 44 -15 7 7 -151 90 -270 142 -60 25 -148 57 -197 69 l-90 23 41 22 c55 31
181 51 326 52 112 1 129 -2 235 -35 190 -61 348 -118 344 -125 -2 -3 8 -6 23
-7 14 0 66 -20 115 -42 49 -23 92 -42 95 -42 14 1 -40 35 -124 77 -49 25 -137
72 -195 106 -58 33 -141 74 -184 92 l-79 32 79 27 c164 57 207 67 294 66 97 0
153 -13 260 -60 74 -33 78 -34 270 -41 116 -5 220 -14 258 -23 164 -41 317
-123 436 -234 56 -53 58 -54 27 -15 -39 51 -136 137 -211 187 -105 69 -376
156 -489 156 -67 0 -24 18 127 54 215 51 333 66 567 73 263 9 209 26 -85 27
-245 1 -445 -24 -640 -79 -171 -49 -166 -49 -245 -22 l-70 24 155 51 c175 58
507 154 590 171 81 16 259 31 390 32 113 2 114 2 50 11 -78 11 -327 2 -493
-17 -94 -11 -131 -11 -176 -2 -79 16 -389 13 -548 -7 -295 -35 -579 -119 -838
-246 -147 -72 -197 -107 -65 -46 310 145 812 249 1180 245 68 -1 72 -2 40 -11
-140 -42 -314 -104 -359 -129 -47 -25 -66 -29 -130 -29 -83 0 -186 -22 -331
-70 -85 -28 -114 -32 -275 -41 -99 -5 -200 -11 -225 -14 -121 -14 -317 -99
-411 -178 -129 -108 -213 -160 -305 -188 -210 -63 -264 -96 -429 -264 -77 -78
-150 -147 -162 -154 -12 -6 -75 -31 -140 -54 -65 -24 -133 -52 -151 -61 -19
-10 -36 -15 -38 -13 -7 7 73 202 117 288 37 71 47 82 149 158 59 44 119 94
133 110 l24 29 6 -76 c4 -43 12 -106 19 -142 l13 -65 6 120 c4 66 15 145 24
175 45 145 153 288 284 374 71 47 231 130 231 120 0 -3 -6 -45 -14 -93 -21
-124 -39 -309 -35 -361 4 -39 6 -33 16 46 45 320 284 684 528 805 56 27 219
69 273 69 23 0 22 -1 -11 -42 -82 -101 -210 -337 -271 -500 -44 -119 -45 -132
-3 -51 121 234 144 268 332 483 65 74 130 150 144 168 33 42 139 121 210 157
77 38 187 66 239 59 23 -3 67 -14 97 -24z m7815 -96 c96 -18 198 -53 294 -101
73 -37 179 -104 173 -110 -2 -2 -28 1 -57 7 -191 36 -809 96 -1035 101 -23 0
-12 7 49 30 217 81 407 106 576 73z m-397 -230 l97 -7 0 -68 c0 -106 14 -99
-194 -99 -99 0 -244 7 -321 15 -77 8 -195 15 -262 15 l-123 0 0 74 0 75 33 4
c41 7 642 -1 770 -9z m332 -29 c39 -3 89 -8 113 -12 l43 -5 -2 -104 c-2 -73 1
-107 11 -118 18 -23 100 -44 220 -56 58 -6 137 -15 175 -21 39 -5 180 -23 315
-38 l245 -29 102 -109 c56 -59 100 -109 99 -110 -1 -2 -74 13 -162 32 -250 56
-380 74 -649 92 -285 18 -331 15 -380 -28 -41 -36 -66 -88 -185 -379 -112
-275 -129 -308 -199 -389 -31 -36 -79 -100 -106 -141 -27 -41 -94 -124 -148
-184 -54 -60 -127 -152 -162 -204 -39 -57 -110 -142 -181 -213 -72 -73 -114
-123 -111 -132 7 -19 205 -72 337 -91 58 -8 209 -27 335 -41 127 -14 257 -30
290 -35 33 -5 218 -30 410 -55 299 -39 546 -75 698 -101 44 -8 44 -6 52 -164
10 -196 49 -298 160 -418 l62 -67 7 -117 c13 -222 71 -374 198 -519 l74 -86
12 -111 c23 -207 66 -293 234 -468 58 -61 100 -113 104 -130 3 -16 13 -55 20
-87 8 -32 12 -62 9 -66 -2 -5 -21 -12 -42 -16 -146 -27 -636 -182 -863 -273
-226 -90 -604 -261 -597 -269 3 -2 42 11 88 28 46 17 185 66 309 109 124 43
266 93 315 113 177 68 580 191 785 240 23 6 28 0 64 -78 85 -187 223 -338 434
-479 51 -33 74 -55 78 -74 31 -129 48 -180 80 -243 88 -177 175 -267 354 -368
41 -24 83 -50 93 -59 10 -8 45 -65 78 -126 74 -135 116 -193 177 -247 68 -59
118 -86 203 -107 41 -11 105 -36 143 -56 37 -20 88 -41 113 -47 38 -10 47 -18
67 -58 49 -97 147 -357 221 -587 102 -319 145 -487 145 -573 0 -56 -107 -702
-126 -765 -4 -12 -24 30 -60 125 -60 161 -162 376 -232 489 -171 278 -356 459
-641 627 -262 155 -605 237 -1086 261 l-140 7 210 111 c240 127 361 198 368
218 8 20 -7 37 -40 42 -16 3 -89 -4 -161 -16 -167 -26 -182 -24 -57 6 172 41
319 64 482 77 l158 12 3 27 c3 25 -1 28 -65 46 -205 59 -458 95 -783 112 -209
12 -308 10 -555 -11 -322 -26 -555 -82 -841 -203 -150 -63 -277 -142 -435
-272 -74 -61 -150 -117 -169 -127 -38 -18 -1177 -193 -1188 -182 -8 8 -20 557
-21 940 l-1 299 625 1310 c344 720 625 1316 623 1325 -10 49 -43 21 -302 -245
-143 -148 -425 -435 -626 -638 l-367 -368 -7 463 c-3 255 -11 705 -17 999 -6
294 -10 716 -8 936 4 397 4 402 26 420 38 33 253 274 373 419 166 200 264 331
361 487 61 98 257 463 265 495 11 40 -26 51 -256 73 -118 11 -270 27 -338 35
-68 8 -183 20 -257 27 l-135 12 0 46 0 45 158 4 c189 6 186 6 489 -4 274 -9
291 -6 319 53 9 20 19 67 22 105 l5 68 36 -5 c20 -3 68 -8 106 -11z m398 -50
c355 -55 403 -72 552 -190 l60 -48 -55 7 c-61 7 -527 50 -659 61 l-84 7 7 61
c3 33 6 75 6 93 0 19 3 34 8 34 4 0 78 -11 165 -25z m1040 -31 c54 -28 126
-81 211 -157 l48 -44 -115 -12 c-176 -20 -200 -29 -82 -30 196 -2 497 -72 657
-152 139 -70 259 -177 334 -300 33 -55 117 -249 110 -256 -1 -2 -61 25 -133
59 -114 54 -132 66 -142 94 -13 37 -112 151 -191 221 l-55 48 31 -40 c16 -22
37 -52 46 -66 24 -37 68 -149 60 -149 -4 0 -50 11 -102 24 -52 13 -124 27
-160 30 l-65 6 70 -19 c114 -31 151 -47 315 -133 249 -130 307 -159 453 -227
135 -63 139 -66 231 -162 111 -115 204 -252 246 -361 35 -89 82 -259 75 -267
-3 -2 -18 7 -33 21 -89 82 -352 259 -472 317 -36 17 -54 23 -40 14 87 -63 148
-114 249 -208 163 -152 263 -234 366 -300 151 -97 381 -336 503 -524 51 -77
156 -290 148 -299 -8 -8 -269 131 -359 191 -53 36 -97 64 -97 62 0 -8 217
-191 295 -249 106 -79 312 -182 510 -256 166 -63 254 -102 352 -158 40 -22
116 -56 168 -75 117 -42 296 -143 368 -208 89 -79 111 -158 61 -218 -32 -39
-146 -76 -260 -86 -143 -13 -240 25 -429 168 -114 86 -163 143 -300 350 -32
48 -59 86 -61 85 -1 -2 19 -66 46 -143 27 -77 49 -143 50 -147 0 -12 -100 35
-166 77 -137 86 -243 176 -283 239 -49 77 -108 196 -132 261 -15 44 -18 46
-18 20 0 -16 6 -59 14 -94 9 -35 14 -65 13 -67 -9 -9 -166 98 -185 126 -39 56
-63 139 -74 249 -19 199 -65 337 -158 474 -28 42 -53 77 -56 77 -2 0 14 -37
35 -82 46 -100 79 -231 87 -346 l6 -84 -24 7 c-38 12 -131 61 -169 89 -49 37
-115 121 -154 196 -40 78 -76 184 -121 362 l-34 133 -1 -117 c0 -65 -4 -118
-8 -118 -5 0 -38 19 -73 41 -84 54 -223 195 -286 289 -119 177 -260 511 -288
680 l-12 75 -8 -79 c-8 -81 -2 -216 11 -251 5 -13 -11 -3 -42 26 -27 25 -94
78 -149 119 -232 170 -344 313 -479 605 -35 77 -71 160 -79 185 l-16 45 -1
-50 0 -49 -64 70 c-35 38 -110 110 -167 159 -146 128 -263 235 -267 245 -2 5
34 20 80 34 114 34 112 34 216 35 82 1 99 -2 145 -25z m-13062 -318 c84 -34
186 -106 293 -207 53 -50 96 -95 96 -99 0 -14 -100 -33 -148 -27 -28 3 -40 2
-31 -4 21 -11 135 -29 191 -29 45 0 48 -2 106 -71 68 -82 168 -237 159 -246
-4 -3 -37 -6 -75 -6 -56 0 -79 5 -128 30 l-59 30 -12 89 c-6 49 -17 100 -23
114 -10 25 -10 25 -5 -3 7 -35 -12 -180 -28 -220 l-12 -29 -35 44 c-19 25
-144 159 -278 298 -133 139 -245 263 -248 277 -22 87 96 116 237 59z m10790
-11 c222 -14 547 -53 563 -66 16 -14 -184 -337 -361 -582 -35 -49 -110 -150
-167 -226 -57 -76 -161 -223 -232 -327 l-129 -188 -3 64 c-2 36 1 304 7 595 6
292 11 578 11 638 l0 107 48 0 c26 0 144 -7 263 -15z m1443 -110 c180 -17 408
-60 587 -110 174 -48 208 -63 271 -121 52 -47 57 -55 77 -134 25 -98 64 -185
119 -267 71 -104 162 -177 362 -288 165 -92 220 -154 420 -477 60 -96 220
-253 343 -335 109 -73 118 -86 215 -285 35 -73 69 -125 108 -167 65 -70 157
-142 214 -167 36 -16 45 -28 93 -128 30 -61 67 -126 83 -145 38 -46 162 -125
236 -152 55 -21 63 -28 120 -108 161 -227 311 -348 469 -382 49 -10 83 -24
117 -47 12 -8 69 -487 93 -787 40 -499 -67 -2177 -187 -2935 -14 -85 -27 -174
-31 -198 -3 -23 -8 -41 -10 -38 -2 2 -11 55 -19 117 -36 284 -71 430 -174 734
-40 116 -78 224 -85 242 l-13 31 42 11 c66 16 120 62 152 128 26 51 29 69 29
153 0 127 -25 182 -138 299 -75 79 -85 93 -116 179 -61 169 -161 290 -292 356
-39 20 -78 36 -85 36 -8 0 -14 9 -14 20 0 34 -66 153 -115 208 -25 28 -90 81
-144 117 -143 96 -176 127 -189 177 -12 45 -37 436 -52 813 -15 378 -69 863
-112 1007 -15 52 -38 70 -158 122 -119 53 -278 142 -465 261 -72 46 -147 91
-166 100 -27 13 -39 28 -52 64 -28 78 -93 169 -192 265 l-94 91 -11 70 c-39
253 -137 440 -292 555 -46 33 -97 72 -114 85 -18 14 -54 66 -84 122 -92 171
-182 278 -284 338 -58 34 -71 28 -16 -9 86 -57 167 -193 213 -358 14 -49 24
-88 23 -88 0 0 -46 16 -100 35 -54 20 -104 34 -110 31 -6 -2 -4 -5 5 -5 23 -1
212 -96 267 -133 232 -158 348 -336 327 -500 -12 -87 -19 -88 -119 -24 -105
68 -276 155 -276 141 0 -2 24 -17 54 -33 29 -17 81 -55 116 -84 138 -118 167
-140 212 -164 62 -32 214 -146 256 -192 67 -73 121 -154 142 -210 20 -51 64
-261 57 -268 -1 -2 -23 13 -47 33 -25 19 -72 56 -105 81 l-60 46 84 -89 c152
-162 213 -282 241 -474 11 -74 8 -206 -4 -218 -9 -9 -181 116 -261 189 l-79
73 49 -65 c47 -63 160 -178 337 -345 55 -52 100 -105 126 -150 54 -93 117
-285 93 -285 -23 0 -316 207 -390 276 l-85 79 45 -64 c73 -107 225 -257 371
-368 75 -57 159 -128 186 -158 58 -63 136 -179 124 -183 -27 -9 -293 110 -379
170 -24 16 -43 27 -43 25 0 -3 37 -36 83 -75 78 -66 182 -139 349 -244 135
-85 238 -197 287 -310 l19 -46 -61 14 c-95 22 -185 53 -262 91 -62 30 -66 31
-40 9 62 -51 185 -116 334 -175 84 -33 182 -77 217 -96 108 -61 225 -184 249
-262 6 -22 4 -23 -52 -23 -89 0 -262 19 -323 35 -30 8 -56 13 -58 11 -7 -8
142 -58 317 -106 219 -61 275 -86 350 -160 64 -63 95 -112 142 -225 42 -103
58 -124 149 -196 41 -33 87 -78 102 -100 70 -105 53 -280 -33 -327 -40 -22
-173 -10 -249 23 -36 15 -126 48 -200 73 -134 46 -135 46 -205 116 -40 41 -84
97 -103 132 -36 70 -89 253 -138 483 l-33 156 0 -85 c1 -47 1 -133 0 -193 l-1
-107 -52 26 c-98 50 -174 103 -230 161 -67 71 -96 121 -144 243 -35 91 -36
101 -37 220 0 76 4 136 12 154 6 16 9 31 7 33 -8 8 -46 -74 -60 -130 -8 -28
-19 -51 -24 -50 -16 4 -182 121 -227 161 -120 105 -224 268 -262 412 -28 105
-23 296 11 415 4 11 -13 -20 -37 -68 l-43 -89 -96 101 c-137 144 -158 197
-158 399 0 142 27 252 95 389 36 73 46 98 29 78 -63 -76 -124 -182 -150 -261
l-27 -85 -13 31 c-8 17 -41 61 -74 98 -34 37 -72 86 -86 108 -71 120 -22 318
123 500 37 47 85 106 105 132 36 46 83 122 75 122 -2 0 -17 -19 -32 -42 -16
-24 -83 -99 -150 -168 -66 -69 -139 -147 -160 -174 l-40 -49 -7 39 c-16 93 -8
222 23 366 23 105 32 175 34 263 2 66 1 102 -1 80 -8 -84 -27 -165 -70 -298
-24 -75 -44 -144 -44 -152 0 -30 -20 -23 -68 25 -63 62 -108 153 -123 247 -20
137 17 361 85 516 14 31 24 57 22 57 -9 0 -96 -147 -121 -204 l-26 -59 -45 44
c-55 53 -98 141 -115 231 -14 79 -2 229 31 367 11 46 19 85 17 87 -2 2 -22
-51 -44 -119 -23 -67 -43 -115 -46 -107 -2 8 -12 42 -22 75 -20 69 -54 141
-98 205 -43 62 -328 361 -340 357 -25 -8 -14 -30 55 -104 201 -216 231 -272
292 -550 40 -181 56 -230 119 -365 25 -54 43 -98 40 -98 -3 0 -108 20 -232 44
-124 25 -302 56 -396 70 -199 29 -721 90 -915 106 -74 6 -189 18 -255 26 -66
8 -126 14 -133 14 -21 0 57 90 193 223 134 133 218 199 350 281 50 31 97 60
105 65 34 23 -142 -61 -206 -97 -38 -22 -71 -38 -73 -36 -2 2 23 33 55 69 66
76 174 172 251 223 29 19 53 37 53 39 0 5 -58 -26 -115 -61 -27 -18 -56 -36
-64 -41 -10 -6 -8 3 6 26 11 19 39 66 61 105 56 97 123 184 185 240 60 54 36
40 -41 -25 l-54 -44 75 144 c41 79 110 220 153 313 98 211 92 206 260 206 66
0 192 -7 278 -15z m-2130 -227 c-4 -37 -13 -70 -23 -80 -21 -22 -120 -58 -160
-58 -46 0 -47 -19 -1 -26 22 -4 40 -8 40 -10 0 -3 -11 -21 -24 -42 -27 -43
-76 -138 -76 -148 0 -3 26 19 58 49 83 80 118 107 137 107 22 0 13 -45 -26
-121 -24 -48 -35 -59 -76 -77 -235 -100 -451 -102 -555 -4 -38 35 -34 83 11
120 26 21 130 67 218 96 112 37 325 145 403 205 36 27 69 50 73 50 4 1 5 -27
1 -61z m4382 -306 c353 -275 660 -591 955 -987 200 -269 351 -530 467 -810 80
-191 80 -199 -14 -146 -56 33 -81 62 -144 171 -70 121 -155 243 -260 373 -116
145 -201 228 -333 326 -53 40 -102 81 -107 91 -5 10 -19 61 -30 113 -58 270
-151 428 -390 668 -80 80 -171 165 -202 188 -34 24 -66 58 -78 81 -23 45 -25
56 -7 43 6 -6 71 -56 143 -111z m-14012 -49 c138 -130 180 -156 242 -151 35 3
38 1 55 -42 55 -138 70 -182 66 -187 -5 -5 -88 7 -167 23 -23 5 -22 3 10 -24
19 -17 33 -32 30 -34 -3 -3 -22 -14 -43 -26 l-38 -22 7 53 c4 28 6 57 5 62 -1
6 -5 54 -10 108 -4 53 -10 100 -13 102 -3 3 -8 -30 -12 -74 -10 -127 -45 -227
-115 -330 l-36 -54 -6 164 c-5 127 -11 182 -29 244 -13 44 -23 87 -23 95 -2
60 4 150 10 150 3 0 34 -26 67 -57z m14331 -13 c287 -114 557 -322 700 -540
226 -344 417 -740 475 -984 32 -132 23 -129 -49 19 -156 322 -325 575 -625
935 -124 148 -383 416 -516 533 -41 37 -72 67 -68 67 4 0 41 -13 83 -30z
m-12665 -285 c0 -2 -15 -28 -34 -57 -40 -63 -99 -179 -126 -249 -11 -28 -53
-90 -92 -137 -160 -194 -196 -221 -385 -285 -54 -19 -106 -38 -116 -42 -17 -7
-17 -5 2 26 12 19 39 90 61 159 43 138 86 212 179 313 67 72 178 162 254 206
62 36 257 86 257 66z m-290 -50 c0 -2 -21 -16 -47 -29 -168 -85 -366 -290
-405 -418 -10 -33 -15 -38 -32 -33 -52 15 -162 17 -257 4 -57 -7 -94 -15 -81
-17 21 -3 17 -9 -42 -72 -35 -38 -88 -107 -117 -154 -29 -47 -53 -86 -54 -86
-1 0 -19 9 -42 20 -58 28 -149 40 -303 40 l-135 0 54 36 c126 85 253 135 433
170 48 9 100 25 116 34 16 10 63 58 103 107 159 191 253 273 391 338 76 36 88
38 293 54 55 5 106 9 113 10 6 0 12 -1 12 -4z m3463 -2447 c4 -1201 7 -2706 7
-3345 l0 -1161 -172 0 c-215 1 -427 -33 -607 -97 -24 -8 -45 -14 -47 -13 -1 2
2 44 8 93 15 130 5 343 -20 437 -51 189 -141 343 -292 499 -51 52 -80 78 -67
59 46 -64 119 -223 157 -340 49 -149 107 -408 121 -540 9 -94 5 -211 -8 -233
-3 -5 -23 36 -45 90 -94 235 -231 485 -341 621 -198 245 -558 433 -1048 546
-344 80 -644 116 -952 116 -368 0 -701 -52 -996 -155 -411 -144 -718 -426
-921 -847 -96 -200 -150 -391 -150 -537 0 -105 13 -97 -188 -105 -97 -3 -191
-9 -208 -12 l-31 -6 -7 134 c-4 73 -11 154 -15 181 -7 43 -2 62 61 235 39 103
97 270 130 372 68 209 68 209 113 70 26 -82 30 -68 16 58 -6 46 -5 88 1 110 9
33 111 297 290 752 85 217 226 512 383 806 227 423 228 427 306 894 27 168 68
404 90 525 22 121 55 340 75 488 39 302 57 409 84 517 25 99 81 248 114 304
106 181 486 457 876 636 582 268 1302 477 1901 554 64 8 258 27 430 41 l314
25 80 41 c44 22 114 64 155 94 41 29 141 99 222 154 81 56 150 105 153 111 3
5 10 10 14 10 4 0 11 -982 14 -2182z m-4025 1917 c35 -8 68 -13 74 -9 23 15
-27 -167 -62 -224 -37 -61 -197 -151 -409 -230 l-131 -50 26 42 c14 22 58 109
98 191 72 148 119 221 180 280 30 29 33 30 96 23 36 -3 94 -14 128 -23z m-773
-262 c112 -16 256 -50 269 -63 4 -5 -4 -34 -18 -67 -71 -156 -135 -220 -253
-254 -115 -33 -252 -58 -378 -69 -66 -5 -147 -12 -179 -16 l-59 -5 56 61 c31
33 100 118 154 188 53 70 114 148 135 173 21 26 38 54 38 64 0 15 8 16 68 10
37 -4 112 -13 167 -22z m-336 -50 c-36 -38 -74 -81 -85 -96 -19 -27 -20 -27
-54 -13 -57 23 -178 37 -269 31 l-86 -6 35 31 c92 82 187 105 489 119 l34 1
-64 -67z m-463 -126 c-167 -107 -285 -267 -382 -519 -38 -97 -165 -301 -245
-391 -63 -73 -161 -142 -242 -173 -40 -15 -117 -45 -172 -67 -169 -66 -237
-87 -286 -87 -40 0 -51 4 -73 31 -23 27 -26 39 -26 108 0 176 73 320 260 514
60 63 107 100 202 157 l123 75 145 -1 c127 -1 156 -4 233 -28 49 -14 93 -24
98 -21 38 24 -33 66 -154 91 -54 11 -85 12 -153 4 -46 -6 -96 -15 -111 -21
-14 -5 -27 -8 -30 -6 -9 10 148 122 221 157 98 47 296 116 390 136 39 8 84 23
100 34 20 12 48 20 76 19 39 0 42 -2 26 -12z m237 -39 l77 -21 -16 -26 c-79
-124 -159 -224 -188 -234 -42 -14 -139 -66 -266 -141 -58 -35 -136 -80 -173
-100 l-68 -38 42 84 c87 174 245 368 384 470 57 42 72 43 208 6z m14037 -403
c91 -56 210 -125 266 -153 55 -28 114 -62 130 -75 16 -13 56 -43 89 -66 l59
-42 18 -117 c9 -64 17 -146 18 -182 1 -189 82 -1082 116 -1279 l5 -33 -53 54
c-29 30 -72 67 -95 83 -24 15 -43 34 -43 42 0 20 -67 149 -113 218 -22 33 -71
90 -107 127 l-67 67 -7 76 c-14 149 -75 293 -175 413 -52 61 -57 70 -49 97 11
38 1 211 -17 301 -8 38 -35 110 -61 161 -25 51 -43 96 -40 101 3 5 -1 30 -9
57 -8 26 -22 89 -30 139 -9 50 -18 99 -22 110 -4 14 -2 16 8 11 8 -5 88 -54
179 -110z m-5945 -280 c71 -466 122 -743 310 -1680 207 -1033 311 -1566 320
-1655 4 -36 9 -68 12 -73 2 -4 31 16 65 45 62 55 1110 1107 1348 1353 74 77
324 331 555 565 232 234 517 524 635 645 245 252 250 266 -75 -200 -237 -340
-609 -882 -980 -1430 -164 -242 -481 -708 -705 -1035 -448 -656 -653 -960
-646 -960 6 0 332 462 781 1105 181 259 502 718 715 1020 446 636 673 961 860
1235 180 264 311 453 322 465 5 6 -15 -42 -45 -105 -83 -176 -1665 -3487
-1698 -3554 -37 -74 -37 -80 4 -72 57 12 3911 595 3914 592 1 -1 -84 -28 -190
-60 -188 -57 -1144 -367 -1887 -611 -530 -175 -1041 -340 -1585 -514 -477
-153 -707 -229 -692 -230 11 -1 209 58 682 204 539 166 1188 363 1780 540 821
245 1466 442 1744 531 145 47 265 83 267 81 2 -2 -92 -50 -209 -107 -116 -57
-446 -219 -732 -360 -286 -141 -1004 -494 -1595 -785 -591 -290 -1083 -536
-1093 -545 -18 -17 -18 -18 5 -43 13 -14 263 -149 573 -308 303 -155 557 -288
566 -296 9 -8 28 -17 41 -21 25 -7 2128 -1085 2124 -1089 -5 -6 -640 183
-1086 322 -129 41 -530 164 -890 275 -360 111 -884 273 -1165 360 -678 211
-986 303 -992 296 -3 -2 242 -86 543 -185 678 -222 1993 -652 2571 -840 522
-171 1129 -379 1121 -386 -2 -1 -838 123 -1858 276 -1020 153 -1867 279 -1882
279 -21 0 -29 -6 -34 -24 -4 -18 192 -393 889 -1697 492 -921 902 -1690 912
-1709 20 -40 20 -40 -61 55 -32 38 -91 106 -129 150 -81 92 -315 382 -560 695
-240 306 -1786 2238 -1825 2280 -83 92 1165 -1516 1810 -2330 360 -455 679
-877 668 -885 -7 -5 -2823 2527 -2830 2546 -11 29 -50 22 -58 -11 -4 -14 -157
-899 -341 -1967 l-334 -1943 -7 203 c-3 111 -11 423 -18 692 -6 270 -15 621
-20 780 -12 367 -35 1170 -56 1975 -8 344 -19 675 -24 735 -9 126 -7 -2 15
-1075 8 -382 19 -949 25 -1260 5 -311 12 -677 15 -815 14 -682 25 -1118 30
-1189 2 -43 2 -77 0 -74 -3 3 -160 848 -350 1879 -189 1031 -351 1894 -360
1919 -16 45 -35 226 -29 284 3 30 3 30 -8 6 -32 -75 -81 -159 -119 -208 -24
-30 -138 -139 -254 -242 -115 -102 -257 -231 -315 -286 -58 -54 -195 -180
-305 -279 -110 -99 -291 -265 -403 -370 -113 -104 -227 -210 -254 -233 l-48
-44 -20 45 c-11 24 -26 73 -34 108 -14 58 -35 258 -36 334 l-1 30 -20 -27
c-23 -31 -44 -36 -53 -12 -10 26 34 93 155 239 36 44 208 269 381 500 172 231
386 512 474 625 88 113 243 313 344 445 101 132 212 276 248 320 56 71 58 74
13 25 -78 -83 -710 -885 -1101 -1395 -101 -132 -238 -309 -304 -392 l-121
-153 -3 57 c-2 31 6 99 18 152 29 136 40 260 40 457 l0 171 220 377 c266 455
239 412 267 427 30 16 224 230 398 439 76 91 196 233 267 315 129 150 128 149
-131 -115 -143 -146 -329 -340 -413 -431 l-153 -166 -102 -22 c-56 -13 -110
-21 -120 -19 -35 6 -117 299 -139 496 l-7 63 -56 -7 c-45 -5 -59 -3 -70 10
-21 25 -6 45 56 72 32 14 64 31 71 36 7 6 47 25 90 42 85 35 442 200 438 203
-1 1 -114 -31 -251 -72 -138 -41 -256 -75 -262 -75 -10 0 -13 67 -13 304 0
167 3 316 6 332 5 28 8 29 67 31 34 1 161 17 282 37 121 20 261 39 310 43 179
14 22 24 -321 21 l-331 -3 -7 89 c-3 49 -6 178 -6 286 l0 198 -27 10 c-16 6
-65 25 -110 42 -81 31 -92 41 -74 69 7 11 29 9 132 -14 68 -15 174 -40 234
-56 152 -40 485 -119 499 -118 29 1 -370 138 -581 199 l-73 21 0 68 c0 72 26
190 62 281 24 62 87 180 96 180 49 0 156 -32 237 -70 150 -71 589 -253 715
-297 8 -3 -28 18 -80 47 -52 28 -176 96 -275 150 -201 110 -377 196 -415 204
-18 4 -39 28 -77 88 -93 150 -131 231 -177 384 -71 240 -116 512 -116 710 0
100 0 100 -114 249 -48 62 -60 93 -45 111 6 8 15 14 18 14 4 0 33 -31 64 -70
32 -38 62 -69 66 -67 5 1 53 -50 107 -113 131 -153 405 -460 410 -460 3 0
-112 146 -255 324 l-260 323 7 312 7 313 115 -103 c341 -303 752 -650 1230
-1039 l275 -223 51 -141 c65 -179 96 -257 100 -254 9 10 -29 220 -56 308 -30
96 -31 109 -22 165 6 33 47 274 92 535 310 1819 298 1749 420 2375 55 281 108
555 118 610 l19 100 6 -105 c9 -147 26 -667 37 -1103 5 -211 13 -373 18 -380
6 -7 14 -28 19 -47 6 -22 9 309 7 860 -1 492 0 888 2 880 2 -8 24 -150 49
-315z m-8223 -607 l-3 -116 -69 -46 c-97 -66 -175 -102 -248 -116 -34 -7 -65
-11 -68 -8 -2 3 15 18 38 33 59 39 242 225 302 307 27 37 50 67 50 65 1 -1 0
-54 -2 -119z m-68 -320 c-27 -54 -170 -187 -314 -292 -166 -122 -205 -140
-275 -133 -112 11 -177 74 -179 171 -1 88 36 123 178 166 38 12 104 39 147 60
68 35 84 39 124 34 25 -4 45 -10 45 -14 0 -3 -12 -17 -26 -31 -36 -34 -135
-172 -174 -244 -32 -59 -32 -60 -4 -25 58 72 135 147 204 200 38 30 73 65 76
76 5 18 15 22 69 27 34 3 78 13 96 21 49 21 51 20 33 -16z m16848 -928 c75
-49 152 -74 317 -101 144 -24 219 -55 257 -105 34 -44 34 -91 0 -148 -66 -113
-219 -180 -438 -193 -125 -7 -126 -7 -170 81 -51 100 -118 419 -118 558 l0 31
45 -42 c25 -23 73 -59 107 -81z m-16877 -32 c-4 -24 -30 -124 -56 -223 -78
-286 -109 -475 -125 -760 l-8 -130 -15 65 c-23 103 -19 360 8 485 22 102 188
605 199 605 2 0 1 -19 -3 -42z m10690 -1629 c8 -173 16 -391 17 -486 l3 -172
-30 -5 c-94 -17 -508 -77 -511 -74 -2 2 110 241 248 531 139 289 253 525 255
524 1 -2 10 -145 18 -318z m-4951 -72 c10 -17 73 -129 139 -247 65 -118 142
-252 169 -298 28 -46 48 -85 46 -87 -2 -2 -88 11 -190 28 l-187 32 -3 302 c-2
167 -1 303 2 303 3 0 14 -15 24 -33z m-6300 -456 c143 -51 304 -152 360 -226
l27 -35 -112 -282 c-61 -156 -115 -293 -120 -306 -9 -22 -11 -21 -91 44 -94
76 -170 115 -240 122 -26 2 -48 2 -48 -1 0 -3 21 -17 48 -32 125 -73 283 -238
269 -283 -3 -9 -28 -79 -57 -156 -101 -275 -170 -545 -170 -668 0 -88 80 -179
169 -194 20 -3 41 -7 48 -9 6 -2 21 -48 33 -102 12 -54 35 -132 50 -175 48
-132 52 -162 35 -315 -14 -125 -14 -145 0 -216 19 -92 65 -228 107 -312 36
-72 129 -197 163 -219 34 -22 32 -10 -15 76 -58 109 -128 272 -155 363 -54
185 -59 516 -11 740 14 66 26 130 26 143 0 12 4 22 8 22 5 0 98 11 208 25 233
29 214 28 214 15 0 -6 13 -28 29 -50 17 -23 48 -100 76 -187 56 -176 113 -308
197 -458 227 -406 493 -711 793 -908 153 -100 330 -176 575 -247 268 -78 489
-91 755 -46 324 56 537 123 795 252 344 172 601 376 775 613 128 175 294 472
355 636 16 44 29 73 29 65 1 -29 -110 -566 -143 -695 -61 -234 -85 -281 -245
-475 -145 -177 -187 -238 -260 -380 -35 -69 -82 -152 -104 -185 -73 -108 -348
-453 -436 -548 -92 -99 -91 -98 75 46 114 100 233 229 329 357 l55 74 0 -52
c0 -121 48 -240 125 -311 47 -43 135 -91 169 -91 13 0 16 -3 9 -12 -13 -16
-150 -328 -191 -433 -17 -44 -70 -179 -118 -300 -79 -202 -184 -497 -184 -518
0 -12 52 1 67 16 13 14 83 179 108 257 10 30 47 132 83 225 68 181 119 330
202 593 42 132 55 162 68 160 18 -4 19 -16 9 -58 -4 -14 1 -8 11 13 17 36 49
48 45 17 -1 -8 -42 -109 -93 -225 -50 -115 -118 -286 -150 -380 -32 -93 -89
-251 -128 -350 -101 -260 -105 -285 -18 -115 97 189 218 491 361 900 32 91 61
169 65 173 4 4 14 5 23 1 14 -5 14 -13 -9 -71 -13 -37 -23 -68 -21 -69 2 -2
19 28 37 66 19 39 40 70 47 70 20 0 17 -10 -41 -137 -76 -167 -130 -296 -182
-434 -56 -152 -127 -369 -121 -375 10 -10 162 350 331 789 46 117 61 147 76
147 22 0 34 35 -123 -370 -104 -269 -185 -462 -271 -644 -31 -65 -55 -120 -54
-121 2 -1 23 3 46 9 l44 11 63 210 c117 386 314 895 348 895 9 0 17 -2 17 -5
0 -3 -29 -75 -64 -160 -36 -85 -89 -221 -120 -302 -60 -163 -178 -534 -172
-540 10 -11 225 564 327 875 34 104 47 132 61 132 10 0 18 -4 18 -9 0 -5 -40
-127 -89 -272 -49 -145 -88 -265 -87 -267 4 -3 131 319 176 446 25 71 37 92
51 92 11 0 19 -6 19 -13 0 -12 -124 -480 -214 -807 -25 -90 -43 -166 -41 -168
8 -8 125 375 205 671 l83 307 33 0 c19 0 34 -3 34 -6 0 -3 -43 -148 -94 -322
-52 -174 -117 -395 -144 -491 l-49 -174 -62 -23 c-33 -13 -61 -21 -61 -17 0 3
41 154 90 335 49 181 90 332 90 336 0 4 -14 -27 -31 -68 -17 -41 -80 -192
-141 -335 -60 -143 -114 -270 -119 -283 -9 -22 -7 -23 23 -17 20 3 -16 -20
-88 -58 -115 -60 -304 -174 -304 -183 0 -2 24 9 53 25 123 69 303 130 552 187
168 39 346 39 565 1 211 -37 402 -59 449 -51 38 6 40 5 61 -36 28 -55 50 -159
50 -240 0 -92 -13 -173 -57 -353 l-38 -157 -45 6 c-124 17 -321 60 -460 101
-404 119 -453 124 -1045 100 -541 -23 -747 -10 -934 57 -76 28 -55 11 46 -37
173 -81 322 -120 506 -133 52 -4 230 1 407 11 343 18 578 12 702 -21 61 -15
168 -65 267 -123 63 -37 218 -103 286 -122 43 -11 169 -15 243 -7 21 3 26 -4
43 -57 54 -169 72 -346 48 -471 -14 -68 -34 -95 -104 -135 -44 -26 -60 -29
-136 -29 -179 0 -570 44 -804 91 -134 27 -295 74 -374 110 -87 40 -89 36 -6
-12 124 -73 258 -136 461 -218 315 -127 504 -168 739 -159 l130 5 0 -156 c0
-173 13 -487 22 -541 6 -33 6 -34 13 -10 14 53 20 -87 10 -245 -6 -88 -13
-389 -17 -670 -4 -349 -10 -525 -18 -560 -12 -48 -13 -46 -15 80 l-3 130 -8
-90 c-4 -49 -7 -127 -8 -172 -1 -80 -14 -133 -34 -133 -6 0 -7 47 -3 128 31
579 37 752 43 1147 6 476 1 645 -22 645 -14 0 -20 -71 -30 -395 -14 -408 -66
-1246 -91 -1462 -6 -52 -7 -53 -41 -53 -33 0 -34 1 -28 33 10 59 54 490 65
632 14 182 24 1078 13 1175 l-8 75 -18 -195 c-10 -107 -33 -395 -52 -640 -36
-466 -38 -488 -55 -665 -14 -136 -50 -408 -55 -414 -11 -10 -36 11 -31 26 12
39 56 421 75 653 12 135 37 436 56 670 20 234 39 459 43 502 l8 76 -39 6 c-21
4 -42 4 -47 1 -17 -11 -22 -92 -50 -875 -17 -475 -43 -937 -56 -1017 -3 -23
-10 -33 -22 -33 -16 0 -17 8 -10 83 14 162 38 588 53 952 23 576 35 828 41
855 4 17 2 22 -4 15 -17 -17 -45 -341 -67 -780 -34 -671 -57 -1032 -71 -1097
-3 -16 -12 -28 -21 -28 -13 0 -15 9 -10 53 20 168 40 456 67 972 22 410 35
601 50 735 5 47 10 96 10 110 l-1 25 -13 -25 c-10 -17 -21 -130 -35 -345 -40
-607 -53 -771 -89 -1140 -33 -327 -39 -370 -55 -373 -22 -5 -23 -20 18 387 29
298 48 519 70 826 3 45 1 63 -4 50 -5 -11 -17 -121 -26 -245 -31 -415 -84
-756 -151 -962 -12 -35 -21 -48 -35 -48 -23 0 -24 -7 6 97 56 192 103 477 135
824 11 117 20 220 20 228 0 9 -19 -4 -47 -33 -26 -26 -60 -55 -75 -64 -16 -9
-28 -21 -28 -27 0 -5 -12 -109 -25 -230 -41 -355 -54 -496 -61 -632 -3 -70 -7
-134 -9 -140 -6 -17 -35 -5 -36 16 -1 13 -2 12 -6 -2 -4 -16 -11 -18 -41 -12
-21 4 -38 8 -39 9 -1 1 11 125 27 276 17 151 30 281 29 290 0 8 -18 -84 -39
-205 -63 -366 -61 -355 -83 -355 -17 0 -19 5 -14 33 3 17 24 135 46 260 23
126 52 311 66 410 14 100 27 194 30 210 4 26 3 27 -43 27 l-48 0 -22 -168
c-12 -92 -27 -210 -32 -262 -5 -52 -22 -184 -37 -292 -26 -193 -27 -198 -50
-198 -12 0 -23 2 -23 4 0 2 4 26 10 54 29 156 107 859 95 870 -3 3 -24 6 -47
6 l-41 1 -38 -224 c-23 -141 -41 -294 -48 -410 -16 -245 -19 -271 -37 -271
-11 0 -14 16 -15 68 l-1 67 -15 -61 c-12 -53 -17 -61 -34 -57 -10 3 -19 7 -19
9 0 2 13 64 29 137 45 204 69 332 97 530 14 100 28 192 30 204 5 19 0 23 -36
33 -23 6 -43 10 -45 8 -13 -14 -123 -606 -145 -783 -6 -49 -13 -91 -15 -94 -2
-2 -11 -1 -20 2 -12 5 -14 17 -9 64 12 111 64 409 105 605 23 108 39 203 36
212 -4 9 -14 16 -24 16 -16 0 -22 -28 -51 -222 -55 -370 -110 -626 -138 -635
-5 -1 -15 1 -22 5 -9 7 -8 21 8 67 26 75 72 313 113 587 l33 217 -47 21 c-26
11 -52 20 -58 20 -7 0 -11 -24 -11 -57 0 -76 -25 -431 -46 -660 -17 -178 -17
-181 -38 -172 -20 10 -21 14 -14 147 4 75 17 263 29 417 11 154 22 297 22 319
2 37 0 40 -59 77 l-62 37 -6 -356 c-6 -355 -15 -582 -22 -582 -2 0 -13 5 -24
12 -17 11 -18 22 -14 148 2 74 6 289 8 477 l5 341 -74 51 c-40 28 -75 51 -77
51 -3 0 -3 -218 -1 -486 4 -480 3 -485 -16 -474 -11 5 -22 14 -25 18 -7 12
-15 348 -15 689 l-1 291 -47 15 c-27 9 -63 19 -80 22 l-33 7 0 -64 c0 -76 47
-735 59 -819 8 -60 5 -63 -31 -31 -13 11 -18 30 -18 68 0 30 -7 127 -15 216
-8 90 -19 258 -25 373 -14 276 -9 259 -73 251 -28 -4 -53 -8 -54 -9 -1 -2 7
-92 17 -202 27 -282 51 -587 47 -591 -2 -2 -11 4 -19 13 -12 14 -21 82 -38
288 -12 149 -23 275 -25 280 -10 29 -1 -168 21 -455 l7 -85 -22 19 c-17 15
-21 32 -23 80 l-1 61 -6 -54 c-5 -43 -8 -51 -17 -40 -7 9 -16 112 -23 274 -6
143 -14 289 -18 324 l-6 63 -45 -6 c-25 -3 -46 -7 -47 -9 -4 -5 16 -251 30
-374 8 -73 15 -144 15 -160 0 -24 -2 -26 -15 -12 -11 11 -21 69 -35 205 -11
104 -20 210 -20 235 0 66 -10 107 -27 113 -12 5 -13 -5 -8 -62 4 -37 12 -147
19 -246 l12 -178 -21 24 c-19 22 -23 46 -34 219 -14 232 -19 266 -37 273 -20
7 -18 -18 11 -244 14 -106 24 -197 22 -203 -2 -7 -11 0 -19 13 -11 17 -25 102
-43 255 -24 203 -30 237 -56 290 l-29 60 3 -236 2 -235 -21 25 c-15 19 -23 44
-26 91 -3 36 -15 169 -28 295 -18 192 -26 239 -46 284 -14 29 -26 52 -28 50
-2 -2 0 -56 5 -119 4 -63 8 -193 8 -289 1 -173 1 -174 -19 -156 -19 17 -20 31
-20 189 0 248 -16 449 -37 489 l-18 32 -3 -45 c-2 -25 -2 -163 0 -307 l3 -262
-20 20 c-19 19 -20 33 -20 342 l0 322 -45 82 c-24 45 -46 81 -47 79 -6 -5 -36
-359 -42 -490 l-6 -139 -37 46 -38 45 0 179 c0 98 5 230 11 293 17 188 13 292
-16 405 -14 55 -29 144 -32 198 -9 144 -23 98 -23 -78 0 -264 -32 -840 -46
-855 -12 -11 -24 28 -19 60 9 66 25 356 29 560 l5 205 -14 -180 c-8 -99 -25
-250 -36 -335 -12 -85 -21 -175 -20 -200 l1 -45 -26 30 c-25 27 -26 33 -20 97
3 37 3 68 -1 68 -5 0 -16 -19 -26 -42 -12 -29 -20 -39 -28 -31 -7 7 -5 22 5
49 31 79 54 202 59 314 l6 115 -34 -165 c-19 -91 -37 -194 -41 -228 -6 -62 -7
-63 -24 -45 -18 17 -17 26 11 223 45 313 90 613 95 636 5 17 -1 24 -27 33 -18
6 -34 10 -35 8 -2 -1 -26 -183 -54 -402 -28 -220 -52 -404 -53 -409 -2 -5 -17
9 -35 32 l-32 40 15 94 c8 51 26 206 40 343 54 526 128 1058 200 1440 49 258
50 262 37 250 -19 -17 -93 -457 -197 -1160 -72 -488 -136 -879 -145 -889 -5
-5 -14 1 -20 16 -13 27 2 226 41 568 57 502 159 1059 256 1394 4 16 0 14 -30
-8 -20 -15 -52 -47 -72 -72 -34 -41 -39 -56 -70 -218 -105 -540 -195 -1203
-195 -1450 l-1 -121 -24 28 c-29 33 -30 39 -10 246 18 197 25 786 9 744 -14
-35 -73 -722 -74 -858 0 -26 -2 -28 -15 -14 -13 13 -13 39 0 234 19 273 34
459 41 505 l5 35 -40 -43 c-40 -42 -41 -43 -59 -177 -18 -129 -18 -140 -1
-297 10 -90 18 -174 18 -188 0 -24 0 -24 -11 -5 -6 11 -17 69 -23 130 -12 112
-15 112 -33 5 -7 -43 -10 -51 -17 -36 -5 12 -2 77 8 160 16 130 13 263 -5 281
-3 3 -8 -52 -12 -122 -12 -225 -18 -285 -29 -274 -7 7 -6 75 2 212 7 110 11
202 9 203 -2 2 -22 -1 -45 -6 l-43 -9 -1 -92 c0 -51 -4 -112 -7 -137 l-7 -45
-20 30 c-17 25 -20 47 -20 135 0 130 -19 153 -23 27 -4 -116 -22 -104 -22 14
0 55 -4 89 -10 89 -6 0 -40 12 -75 28 l-64 27 -80 140 c-310 541 -419 920
-631 2180 -71 424 -106 572 -199 836 -48 134 -90 239 -91 223 0 -6 5 -36 10
-65 16 -79 140 -850 140 -865 0 -20 -49 -41 -124 -55 -85 -16 -194 -2 -319 40
-137 47 -203 86 -292 176 -67 66 -90 99 -137 190 -137 268 -182 474 -273 1250
-82 696 -116 897 -240 1405 -85 346 -102 438 -114 600 -15 184 9 328 71 440
64 116 129 176 231 212 72 26 246 20 331 -11z m14796 -86 c345 -40 592 -101
773 -191 362 -181 618 -465 811 -903 87 -200 120 -301 152 -469 l27 -143 -46
-47 c-74 -77 -94 -137 -76 -224 12 -52 68 -128 95 -128 20 0 19 -7 -32 -158
-131 -396 -368 -754 -704 -1065 -167 -155 -306 -242 -518 -326 -318 -127 -686
-176 -950 -127 -333 61 -669 204 -982 417 -76 52 -143 109 -128 109 20 0 1681
-251 1712 -258 49 -13 68 -6 64 23 -2 18 -63 53 -348 198 -190 97 -790 405
-1334 685 l-988 508 -15 40 c-33 90 -53 162 -59 216 l-7 58 34 0 c122 1 185
109 139 236 -26 71 -26 84 1 242 26 159 69 309 122 431 l42 98 815 402 815
402 225 -5 c124 -3 286 -12 360 -21z m-11510 -29 c187 -26 385 -64 550 -106
402 -101 625 -216 845 -435 140 -139 193 -214 290 -410 75 -151 160 -345 153
-350 -31 -19 -81 -45 -88 -45 -4 0 -22 45 -40 99 -54 169 -193 392 -332 535
-94 96 -104 98 -29 6 127 -156 244 -373 307 -569 33 -102 36 -114 21 -123 -9
-5 -28 -28 -42 -52 -20 -35 -25 -56 -25 -112 0 -38 4 -83 9 -99 12 -43 -5
-219 -33 -344 -96 -428 -373 -828 -793 -1148 -66 -50 -175 -128 -243 -172 -68
-45 -120 -81 -115 -81 17 0 214 116 326 191 398 270 632 536 782 890 68 158
109 306 132 472 6 42 8 46 25 37 10 -5 28 -10 39 -10 26 0 26 7 -3 -120 -44
-196 -129 -437 -211 -601 -148 -296 -365 -546 -614 -706 -288 -187 -576 -306
-906 -375 -135 -29 -167 -32 -325 -32 -473 0 -918 155 -1260 440 -217 180
-429 455 -591 769 -68 131 -159 350 -159 384 0 10 -9 44 -20 75 -10 31 -22 90
-26 131 -6 67 -4 78 20 126 14 29 26 67 26 83 0 36 -30 90 -59 105 -18 10 -19
19 -15 103 10 193 51 342 152 547 133 271 301 465 534 618 206 135 467 222
823 273 189 28 194 28 500 25 187 -2 318 -9 395 -19z m13736 -266 c37 -158 80
-459 108 -750 9 -91 21 -203 27 -250 21 -179 23 -361 5 -442 -29 -129 -75
-183 -195 -229 -142 -53 -397 -98 -436 -76 -25 14 -55 83 -55 127 0 51 18 87
67 131 46 42 103 60 287 94 77 14 142 28 145 31 10 10 3 566 -11 874 -16 355
-15 481 1 578 7 40 15 72 17 69 2 -2 20 -73 40 -157z m-16509 86 c41 -60 43
-107 7 -191 -49 -114 -236 -681 -304 -920 -70 -249 -84 -312 -72 -331 5 -8 41
-6 127 8 171 28 480 31 548 5 59 -23 72 -45 57 -93 -16 -48 -66 -83 -136 -94
-130 -20 -455 -42 -578 -38 -142 4 -174 13 -209 60 l-20 27 37 148 c46 180
120 427 187 628 27 83 57 173 66 200 24 75 152 432 177 495 13 30 31 77 40
103 10 26 23 46 29 44 6 -2 26 -25 44 -51z m17323 -179 c73 -27 156 -110 198
-198 70 -146 91 -306 74 -547 -25 -337 -88 -553 -336 -1141 -198 -469 -315
-778 -416 -1101 -183 -586 -262 -775 -430 -1027 -173 -260 -292 -378 -475
-468 -108 -54 -258 -105 -271 -93 -3 4 -9 57 -12 119 l-7 113 -61 -170 c-33
-93 -78 -239 -99 -324 -75 -312 -169 -595 -277 -840 -39 -88 -58 -143 -55
-159 3 -14 -1 -43 -7 -65 -19 -59 -78 -198 -83 -193 -2 3 5 37 16 78 12 40 20
74 18 75 -1 2 -42 -90 -91 -204 -49 -114 -110 -252 -135 -307 -46 -101 -176
-315 -191 -315 -5 0 -13 7 -18 16 -7 12 -16 -4 -37 -62 -20 -59 -49 -107 -112
-192 -46 -63 -86 -112 -88 -110 -2 2 16 66 40 143 25 76 43 140 41 142 -2 2
-16 -32 -31 -74 -88 -240 -121 -309 -185 -388 -35 -43 -65 -74 -67 -68 -2 6
17 92 42 191 25 100 45 185 44 189 0 4 -37 -105 -83 -243 l-83 -251 -113 -141
c-63 -78 -115 -141 -116 -139 -2 1 13 63 32 137 44 173 105 472 149 723 l34
198 -49 64 -49 64 -5 -52 c-51 -473 -77 -657 -138 -997 -34 -187 -44 -230 -66
-257 -13 -19 -26 -32 -28 -30 -2 1 5 41 16 87 66 307 140 789 180 1187 9 89 9
120 -1 148 -7 19 -15 35 -19 35 -3 0 -27 -161 -54 -358 -72 -533 -152 -992
-206 -1184 -10 -35 -97 -154 -107 -145 -2 3 16 103 41 223 60 288 89 462 191
1117 77 502 83 553 73 600 l-12 52 -12 -67 c-7 -36 -43 -268 -79 -515 -107
-727 -161 -1034 -240 -1362 -35 -141 -36 -145 -92 -214 -32 -38 -59 -65 -61
-59 -1 5 6 47 18 92 32 126 18 105 -21 -29 -31 -111 -38 -124 -86 -178 -29
-32 -51 -51 -48 -43 21 69 170 632 193 730 75 314 144 749 177 1120 19 214 48
746 42 763 -3 6 -6 -1 -6 -17 -1 -16 -28 -216 -60 -445 -34 -240 -61 -471 -64
-546 -7 -159 -37 -341 -84 -500 -19 -66 -55 -228 -79 -360 -24 -132 -67 -353
-94 -491 -28 -139 -50 -263 -50 -276 0 -40 -265 -298 -425 -414 -25 -18 -34
-21 -23 -9 11 13 41 142 87 378 39 197 71 360 71 362 0 2 -24 -7 -52 -20 -29
-13 -69 -27 -89 -30 l-37 -7 -6 -111 c-16 -275 -38 -574 -45 -601 -4 -16 -17
-36 -31 -45 l-23 -16 6 85 c19 250 38 555 35 573 -2 12 -11 -45 -21 -128 -18
-151 -30 -184 -61 -172 -21 8 -20 26 8 237 13 96 22 177 20 179 -2 2 -9 1 -17
-2 -10 -4 -16 -34 -21 -104 -24 -328 -79 -731 -104 -750 -9 -7 -19 -13 -22
-13 -4 0 6 75 21 168 36 215 36 260 -1 72 -50 -262 -48 -256 -77 -269 -24 -11
-25 -11 -18 16 16 63 76 383 115 613 22 135 43 252 45 261 4 12 -14 19 -90 34
-52 10 -97 17 -99 14 -5 -5 -106 -916 -106 -956 0 -30 -34 -82 -46 -70 -2 2 2
66 11 142 22 196 17 206 -11 20 -13 -88 -23 -163 -24 -167 0 -7 -70 -32 -74
-26 -2 1 10 118 25 258 40 360 82 830 76 837 -3 3 -26 8 -51 10 l-44 5 -6 -73
c-3 -41 -10 -168 -16 -284 -10 -203 -33 -537 -46 -698 -6 -63 -11 -80 -27 -88
-18 -10 -19 -8 -13 28 22 143 79 1104 66 1116 -4 5 -17 6 -28 2 -15 -4 -22
-17 -26 -48 -7 -49 -21 -361 -36 -777 -6 -162 -13 -305 -15 -316 -3 -12 -12
-25 -21 -28 -14 -5 -15 3 -10 71 7 101 16 344 11 318 -2 -11 -14 -106 -26
-212 -19 -168 -24 -192 -40 -196 -23 -6 -24 -24 6 222 34 289 96 912 93 937
-3 20 -4 20 -64 6 l-62 -15 -6 -176 c-21 -602 -40 -987 -50 -993 -6 -4 -19 -8
-29 -8 -16 0 -18 6 -13 38 18 114 42 1112 28 1112 -38 0 -42 -11 -42 -119 0
-237 -29 -743 -53 -956 l-12 -100 -51 -11 -51 -11 -7 266 c-12 412 -32 840
-41 849 -4 4 -5 -29 -1 -73 11 -150 17 -670 9 -860 -7 -169 -10 -190 -25 -193
-16 -3 -18 9 -19 130 l-2 133 -12 -132 c-6 -73 -13 -134 -16 -136 -2 -3 -21
-7 -41 -11 -30 -5 -37 -3 -42 11 -2 10 -10 191 -16 403 -6 212 -13 390 -15
395 -6 17 -10 -419 -6 -619 3 -152 1 -190 -10 -197 -8 -5 -38 -9 -67 -9 l-53
0 5 123 5 122 -14 -125 c-7 -69 -14 -126 -14 -127 -1 -2 -15 -3 -32 -3 l-32 0
7 58 c19 157 36 343 46 487 14 207 25 1037 16 1138 -7 72 -10 78 -36 92 -16 8
-33 15 -38 15 -5 0 -12 -349 -15 -802 -4 -442 -10 -845 -13 -895 -6 -83 -9
-93 -26 -93 -19 0 -20 8 -15 318 3 190 2 271 -3 202 -4 -63 -8 -206 -9 -317
l-1 -203 -81 0 c-79 0 -81 1 -75 22 3 13 11 77 17 143 11 111 77 476 78 430 1
-11 -6 -141 -14 -289 -8 -148 -13 -271 -11 -273 3 -4 19 140 31 277 23 272 42
1490 23 1490 -5 0 -9 -64 -9 -142 -1 -79 -4 -129 -6 -113 -21 166 -37 252 -50
267 -31 35 -13 352 32 568 5 24 12 27 93 38 48 6 125 23 172 38 102 31 550
211 568 228 7 7 -80 -5 -210 -30 -240 -46 -383 -64 -515 -64 -81 0 -83 1 -78
23 42 186 30 347 -40 529 -38 98 -49 165 -26 160 39 -8 171 25 325 83 225 83
306 100 456 91 63 -3 131 -9 152 -12 36 -6 97 -56 260 -211 50 -47 60 -53 78
-43 20 11 20 14 -35 117 l-56 106 38 -7 c143 -24 207 -30 353 -30 96 0 196 5
240 13 131 23 345 99 364 129 2 4 1 14 -3 21 -7 10 -13 10 -29 2 -11 -6 -67
-23 -124 -37 -95 -24 -124 -27 -364 -31 -255 -5 -264 -5 -380 21 -66 15 -128
29 -139 31 -14 4 -61 83 -170 287 -82 155 -151 285 -153 290 -5 11 250 -80
367 -131 52 -23 96 -39 98 -37 7 7 -267 186 -346 226 -43 21 -100 44 -125 51
-46 11 -85 49 -51 49 13 0 15 19 14 123 -1 67 -5 136 -8 152 -7 29 -8 28 -14
-15 -3 -25 -9 -76 -12 -115 -3 -38 -8 -83 -12 -99 l-5 -30 -14 26 c-11 21 -11
51 2 189 15 161 14 311 -3 357 -7 18 -12 4 -22 -65 -8 -56 -22 -105 -38 -135
-23 -43 -25 -55 -20 -124 3 -42 4 -74 3 -72 -2 1 -35 62 -75 135 l-71 132 -1
113 c-1 207 -26 252 -38 70 l-7 -97 -37 72 c-37 72 -37 74 -36 185 2 149 7
170 43 179 l29 8 -6 -111 c-5 -86 -4 -109 5 -100 16 16 55 15 61 0 3 -7 6 42
6 110 1 101 4 122 16 122 12 0 15 -22 17 -132 l1 -133 8 130 c3 72 7 133 8
138 0 4 9 7 19 7 18 0 19 -17 27 -252 4 -139 11 -280 14 -313 l7 -60 16 55
c33 110 50 384 33 525 -8 60 -1 75 38 75 16 0 17 -7 11 -74 -4 -44 -1 -122 7
-193 l13 -118 8 90 c4 50 11 139 15 200 6 85 11 110 23 113 13 2 15 -45 16
-377 0 -265 4 -405 14 -466 11 -68 11 -88 1 -94 -19 -12 -10 -121 11 -135 9
-5 19 -8 22 -5 9 9 76 985 76 1107 0 6 7 12 15 12 19 0 19 9 -5 -415 -21 -368
-36 -591 -46 -662 l-5 -43 34 0 c33 0 34 1 41 46 3 26 6 241 7 478 1 467 7
607 26 613 9 3 10 -131 6 -570 l-6 -575 22 -7 c12 -4 25 -5 27 -2 17 17 41
458 49 897 5 279 8 327 22 340 14 14 15 -21 9 -390 -3 -223 -10 -466 -16 -540
-5 -74 -12 -178 -16 -230 l-7 -96 37 -11 37 -11 -7 653 -7 654 36 40 c60 67
93 145 105 251 l7 62 72 -109 c39 -59 122 -166 183 -238 132 -154 166 -189
118 -120 -20 28 -70 98 -111 157 -139 195 -277 434 -277 477 0 40 -59 200 -93
254 -19 29 -56 79 -83 112 -27 33 -65 79 -83 103 l-33 43 12 94 c12 88 14 94
34 90 11 -2 116 -18 231 -35 128 -19 211 -36 214 -43 9 -32 189 -191 297 -263
496 -332 1097 -495 1584 -430 217 29 412 92 641 206 229 115 435 268 537 400
330 424 493 721 618 1123 14 46 16 62 6 77 -11 17 -8 20 31 30 23 6 72 20 109
30 82 25 81 25 75 -2 -4 -13 -15 -133 -27 -268 -37 -449 -57 -536 -198 -850
l-64 -145 12 -130 c6 -71 15 -148 19 -170 7 -38 7 -36 13 30 7 78 46 196 109
331 23 49 45 109 49 134 13 75 76 232 185 460 174 364 236 569 281 925 28 227
35 259 71 370 48 146 130 304 265 510 l58 90 -153 -155 c-84 -85 -180 -186
-214 -224 l-60 -69 -12 129 c-7 71 -24 215 -37 319 -14 105 -28 211 -31 237
-6 46 -5 47 33 66 22 11 82 33 134 50 194 62 419 74 540 29z m-951 -527 c16
-248 31 -561 31 -656 l0 -80 -112 -11 c-62 -6 -115 -10 -117 -7 -2 2 4 41 13
86 9 46 22 119 29 163 67 402 133 741 138 712 4 -17 12 -111 18 -207z m-4449
-47 c-29 -70 -71 -185 -94 -254 l-41 -127 -36 14 -35 15 8 76 c9 85 30 171 58
244 11 27 17 55 14 63 -4 11 19 27 83 59 48 25 90 43 92 41 2 -2 -20 -61 -49
-131z m-353 -135 c-1 -40 1 -92 5 -114 l8 -42 -71 25 c-40 13 -108 33 -153 42
l-81 18 140 71 c77 39 143 71 147 71 3 1 5 -32 5 -71z m-5910 -163 c108 -18
139 -30 147 -59 14 -53 -1 -239 -22 -257 -4 -3 -72 0 -152 8 -176 17 -554 11
-675 -11 -128 -24 -210 -43 -232 -54 -11 -6 -56 -24 -99 -40 -43 -17 -86 -33
-96 -37 -13 -5 -18 3 -27 45 -26 121 -8 147 163 230 180 89 397 153 596 179
107 14 299 12 397 -4z m5685 -40 c151 -35 300 -100 366 -160 51 -46 94 -126
90 -168 -3 -29 -6 -32 -40 -35 -23 -2 -80 11 -149 33 -218 70 -334 91 -589
105 -142 7 -228 19 -340 46 -21 5 -2 18 120 79 128 63 180 82 305 108 47 10
179 6 237 -8z m-122 -356 c89 -10 236 -45 330 -77 l55 -19 7 -58 c4 -32 17
-92 28 -133 11 -41 19 -75 18 -76 -4 -3 -726 369 -735 378 -9 9 165 0 297 -15z
m-5792 -49 c126 -11 216 -28 239 -45 15 -11 18 -40 24 -221 13 -368 12 -2161
0 -2244 -27 -178 -86 -327 -143 -356 -41 -21 -148 -20 -211 1 -26 9 -52 13
-57 10 -5 -3 -11 -1 -15 4 -3 5 -13 10 -23 10 -9 0 -24 1 -32 4 -109 29 -163
58 -247 134 -32 28 -82 72 -111 97 -62 54 -132 132 -169 187 -14 22 -28 37
-30 35 -3 -3 5 -34 17 -70 23 -71 101 -206 150 -262 17 -20 30 -38 28 -39 -4
-5 -321 31 -483 55 -71 10 -157 28 -190 41 -194 71 -232 298 -95 569 49 96
109 181 248 350 126 152 155 202 205 346 57 164 155 625 242 1141 19 114 38
210 42 214 8 8 191 36 273 42 95 7 239 6 338 -3z m5197 -1238 l50 -7 6 -155
c14 -358 19 -614 11 -600 -24 40 -432 808 -432 812 0 3 71 -6 158 -19 86 -13
180 -27 207 -31z m-4435 -38 c0 -7 -349 -605 -361 -618 -5 -6 -9 113 -9 271
l0 280 173 36 c189 38 197 40 197 31z m5175 -119 c71 -9 168 -24 215 -35 90
-22 255 -74 279 -89 11 -7 13 -26 8 -83 -7 -94 -22 -129 -87 -203 -28 -33 -63
-82 -77 -109 -27 -53 -96 -237 -90 -242 1 -2 18 28 36 66 19 38 76 123 126
187 104 133 115 138 189 86 48 -34 65 -62 122 -201 51 -125 68 -223 62 -355
-5 -107 -24 -153 -86 -209 -109 -98 -227 -135 -561 -173 -74 -8 -156 -22 -183
-30 -26 -7 -48 -12 -48 -9 0 3 12 28 26 57 l26 52 -86 -84 c-47 -47 -87 -83
-89 -80 -7 7 -302 562 -311 584 -5 11 -12 193 -16 405 -8 354 -7 386 8 395 43
26 132 58 192 70 89 18 191 18 345 0z m2882 -321 c-3 -3 -12 -4 -19 -1 -8 3
-5 6 6 6 11 1 17 -2 13 -5z m-9417 -1168 c0 -7 -18 -76 -41 -152 -23 -76 -75
-283 -115 -458 -41 -176 -77 -323 -80 -328 -3 -4 -11 -8 -19 -8 -11 0 -11 11
1 63 28 116 25 122 -11 25 -27 -70 -42 -98 -57 -101 -15 -4 -18 -2 -13 11 76
187 205 590 266 830 27 107 37 132 51 132 10 0 18 -6 18 -14z m130 -2 c0 -4
-24 -92 -54 -198 -30 -105 -85 -311 -122 -458 -50 -200 -70 -268 -81 -268 -11
0 -14 7 -9 25 14 60 14 76 -1 28 -11 -37 -21 -53 -33 -53 -15 0 -10 24 35 173
28 94 87 304 130 465 l79 292 28 0 c15 0 28 -3 28 -6z m70 -11 c0 -5 -21 -87
-46 -183 -61 -227 -68 -260 -104 -480 -40 -244 -39 -240 -56 -240 -10 0 -13 7
-9 23 10 47 35 201 32 203 -2 2 -20 -48 -41 -111 -24 -76 -42 -115 -52 -115
-18 0 -19 -9 16 96 93 273 168 559 208 787 3 20 10 27 28 27 13 0 24 -3 24 -7z
m90 -37 c0 -2 -20 -122 -45 -267 -25 -145 -44 -267 -42 -272 2 -6 27 105 56
244 63 306 60 294 74 280 11 -11 9 -22 -84 -456 -88 -408 -87 -405 -115 -405
-13 0 -24 6 -24 13 0 6 18 102 39 212 21 110 56 302 77 428 27 158 42 227 51
227 7 0 13 -2 13 -4z m96 -63 l-6 -38 10 33 c6 17 17 32 25 32 8 0 15 -1 15
-3 0 -2 -14 -66 -31 -143 -16 -76 -55 -256 -85 -399 -30 -143 -56 -270 -59
-282 -4 -16 -13 -23 -30 -23 -14 0 -25 2 -25 4 0 3 9 42 20 88 15 62 140 746
140 765 0 2 7 3 15 3 13 0 15 -8 11 -37z m178 -1 c3 -5 -6 -92 -20 -193 -13
-101 -37 -295 -52 -431 -16 -136 -32 -251 -35 -255 -4 -4 -12 -2 -18 4 -7 7
-1 89 20 273 17 145 30 265 28 266 -2 2 -11 -38 -21 -89 -25 -134 -95 -410
-106 -421 -7 -7 -14 -6 -20 0 -7 7 2 55 25 145 38 145 93 417 121 597 18 111
18 112 45 112 15 0 30 -4 33 -8z m61 -34 c-3 -18 -21 -159 -40 -313 -52 -409
-75 -545 -91 -545 -18 0 -18 -3 11 190 13 91 38 275 55 410 37 292 36 290 56
290 11 0 14 -8 9 -32z m33 -125 c-9 -87 -29 -273 -43 -413 -33 -338 -34 -340
-51 -340 -18 0 -19 -13 15 320 55 533 63 590 81 590 15 0 15 -13 -2 -157z m7
-374 c-19 -342 -24 -383 -49 -387 -16 -3 -18 0 -13 24 3 16 20 165 38 332 18
166 34 301 35 299 2 -2 -3 -122 -11 -268z m5750 -562 c45 -39 190 -170 324
-290 l243 -217 -109 6 c-78 4 -137 1 -213 -11 -100 -16 -478 -54 -483 -48 -2
1 5 49 15 105 23 126 27 359 9 441 -7 32 -10 62 -6 65 5 6 67 16 125 20 8 1
51 -31 95 -71z m1402 -3394 c6 -14 -9 -105 -39 -246 -9 -43 -40 -79 -55 -64
-6 7 47 286 59 310 11 22 27 22 35 0z"/>
<path d="M8965 24800 c-11 -17 8 -37 115 -118 99 -76 187 -159 238 -227 19
-25 18 -19 -7 30 -42 86 -100 154 -209 245 -90 76 -123 93 -137 70z"/>
<path d="M19201 20184 c0 -11 3 -14 6 -6 3 7 2 16 -1 19 -3 4 -6 -2 -5 -13z"/>
<path d="M6255 18999 c-134 -14 -293 -49 -432 -95 -142 -47 -416 -169 -461
-205 -19 -16 -21 -20 -7 -15 188 68 550 135 733 136 l103 0 267 -89 c426 -143
707 -211 962 -232 114 -10 151 -9 240 4 139 21 200 41 252 80 70 53 78 127 18
149 -17 5 -30 14 -30 19 0 6 -16 17 -36 25 -41 17 -445 100 -672 138 -540 91
-720 108 -937 85z"/>
<path d="M12403 19950 c0 -102 3 -239 6 -305 l6 -120 9 180 c7 141 5 206 -6
305 l-15 125 0 -185z"/>
<path d="M12428 18677 c2 -89 7 -261 11 -382 8 -209 8 -201 7 152 -1 233 -5
376 -11 382 -7 7 -9 -44 -7 -152z"/>
<path d="M10921 18673 c43 -59 283 -328 316 -354 10 -8 -18 27 -62 76 -44 50
-127 145 -184 213 -57 67 -105 122 -107 122 -3 0 14 -26 37 -57z"/>
<path d="M13450 15466 c0 -2 8 -10 18 -17 15 -13 16 -12 3 4 -13 16 -21 21
-21 13z"/>
<path d="M8144 13898 c-27 -15 -39 -40 -87 -166 -89 -231 -284 -828 -274 -838
4 -4 62 136 133 321 31 83 75 193 96 245 45 108 170 451 166 455 -2 1 -17 -6
-34 -17z"/>
<path d="M8041 13818 c-16 -43 -22 -68 -18 -68 3 0 12 20 20 45 16 45 14 65
-2 23z"/>
<path d="M7962 13773 c-27 -23 -84 -160 -184 -443 -121 -340 -227 -684 -216
-696 3 -3 17 0 31 7 29 13 54 81 241 664 63 198 124 387 136 419 11 33 18 61
16 63 -2 2 -13 -4 -24 -14z"/>
<path d="M7823 13686 c-75 -49 -342 -710 -437 -1079 -13 -52 -13 -58 1 -53 8
3 16 6 19 6 7 0 111 215 169 350 77 181 289 774 283 791 -2 3 -18 -3 -35 -15z"/>
<path d="M7580 13549 c-52 -28 -100 -56 -107 -62 -23 -22 -233 -585 -336 -900
-43 -131 -51 -167 -38 -162 9 4 23 9 31 12 22 6 56 71 95 177 64 178 138 344
295 664 87 177 158 322 157 322 -1 0 -45 -23 -97 -51z"/>
<path d="M7337 13432 c-21 -4 -32 -29 -108 -252 -46 -133 -204 -639 -245 -782
-3 -11 0 -18 8 -18 8 0 31 57 61 153 27 83 78 231 114 327 57 152 196 572 190
575 -1 1 -10 0 -20 -3z"/>
<path d="M8486 13355 c-9 -26 -7 -32 5 -12 6 10 9 21 6 23 -2 3 -7 -2 -11 -11z"/>
<path d="M7122 13342 c-30 -15 -42 -36 -117 -207 -45 -104 -99 -226 -120 -270
-20 -44 -65 -161 -100 -260 -35 -99 -82 -231 -104 -294 -23 -63 -40 -116 -37
-118 6 -6 163 298 246 477 40 85 90 205 112 265 21 61 66 179 100 263 33 84
59 155 57 157 -2 2 -19 -4 -37 -13z"/>
<path d="M6923 13193 c-148 -317 -186 -403 -228 -514 -56 -147 -136 -381 -132
-386 8 -8 194 402 270 597 83 209 141 379 134 386 -2 2 -22 -35 -44 -83z"/>
<path d="M6859 13244 c-32 -13 -42 -27 -78 -105 -39 -86 -129 -415 -116 -427
3 -3 5 0 5 7 0 17 111 273 165 381 54 107 76 160 67 159 -4 0 -23 -7 -43 -15z"/>
<path d="M6673 13168 c-6 -7 -15 -33 -21 -58 -27 -110 -82 -363 -81 -373 1
-31 65 165 95 293 19 79 34 146 34 147 0 8 -19 1 -27 -9z"/>
<path d="M7492 13135 c-30 -62 -27 -71 4 -12 14 27 24 51 22 53 -3 2 -14 -17
-26 -41z"/>
<path d="M6552 13019 c-88 -201 -196 -596 -266 -969 -44 -235 -48 -300 -21
-300 37 0 75 99 80 210 1 25 18 108 37 185 20 77 59 246 87 375 29 129 74 322
100 428 27 105 46 192 42 192 -3 0 -30 -55 -59 -121z"/>
<path d="M6485 13079 c-27 -18 -51 -32 -52 -33 -2 -2 -63 -361 -63 -372 0 -5
23 50 51 121 65 168 119 315 116 315 -1 0 -24 -14 -52 -31z"/>
<path d="M7047 12922 c-50 -121 -168 -466 -167 -488 1 -14 95 233 166 435 35
101 63 186 61 187 -2 2 -29 -58 -60 -134z"/>
<path d="M8052 12904 c-34 -69 -62 -127 -62 -129 0 -2 13 0 28 6 25 9 31 21
63 129 20 66 35 120 34 120 -1 0 -30 -57 -63 -126z"/>
<path d="M7322 12688 c-56 -111 -101 -203 -98 -205 2 -2 25 6 52 19 39 19 50
30 58 58 5 19 28 100 52 180 24 79 42 145 41 146 -1 1 -48 -88 -105 -198z"/>
<path d="M6072 12709 c-13 -20 -55 -281 -50 -308 2 -9 17 61 35 154 17 94 30
171 29 172 -1 1 -7 -7 -14 -18z"/>
<path d="M7507 12664 c-31 -63 -31 -64 -13 -64 11 0 51 108 43 117 -2 1 -15
-22 -30 -53z"/>
<path d="M7681 12713 c-1 -6 -4 -20 -7 -30 -5 -17 -5 -17 6 0 6 10 9 23 6 30
-3 9 -5 9 -5 0z"/>
<path d="M6537 12518 c-36 -114 -92 -369 -85 -390 6 -18 85 266 108 386 11 60
19 111 16 113 -2 2 -20 -47 -39 -109z"/>
<path d="M5992 12557 c-60 -159 -79 -292 -86 -596 -3 -129 -4 -232 -2 -230 2
2 16 105 30 229 14 124 39 320 55 435 16 116 27 211 26 213 -2 2 -12 -21 -23
-51z"/>
<path d="M6942 12468 c-28 -73 -50 -133 -48 -135 1 -2 10 3 19 10 15 11 93
245 84 253 -1 2 -26 -56 -55 -128z"/>
<path d="M6211 12554 c0 -11 3 -14 6 -6 3 7 2 16 -1 19 -3 4 -6 -2 -5 -13z"/>
<path d="M6198 12503 c-3 -15 -21 -113 -41 -218 -59 -306 -146 -942 -135 -977
2 -6 25 133 51 308 27 176 68 451 93 613 25 161 43 295 41 298 -3 2 -7 -9 -9
-24z"/>
<path d="M6774 12340 c-58 -114 -59 -125 -7 -83 19 16 81 188 71 198 -1 2 -31
-50 -64 -115z"/>
<path d="M6012 12355 c0 -16 2 -22 5 -12 2 9 2 23 0 30 -3 6 -5 -1 -5 -18z"/>
<path d="M6572 12212 c-55 -112 -91 -222 -73 -222 17 1 31 23 61 100 32 83 81
242 77 247 -2 1 -31 -55 -65 -125z"/>
<path d="M6401 12054 c0 -11 3 -14 6 -6 3 7 2 16 -1 19 -3 4 -6 -2 -5 -13z"/>
<path d="M6392 12005 c0 -16 2 -22 5 -12 2 9 2 23 0 30 -3 6 -5 -1 -5 -18z"/>
<path d="M6426 11945 c-21 -48 -57 -237 -44 -229 33 20 84 206 68 249 -7 18
-10 15 -24 -20z"/>
<path d="M5694 11825 c-3 -8 -2 -32 4 -52 10 -37 10 -37 11 -8 1 17 4 40 7 53
7 25 -13 31 -22 7z"/>
<path d="M6345 11764 c-4 -22 -11 -56 -15 -76 -4 -21 -4 -36 0 -33 9 6 33 135
26 142 -3 3 -8 -12 -11 -33z"/>
<path d="M5523 11730 c0 -36 2 -50 4 -32 2 17 2 47 0 65 -2 17 -4 3 -4 -33z"/>
<path d="M6287 11719 c-9 -6 -26 -7 -37 -4 -16 5 -20 0 -26 -31 -6 -32 -3 -40
16 -56 13 -10 28 -17 34 -15 9 3 39 107 33 113 -1 2 -10 -2 -20 -7z"/>
<path d="M6390 11665 c-9 -11 -10 -19 -3 -26 8 -8 13 -5 18 11 9 28 2 35 -15
15z"/>
<path d="M6357 11565 c-15 -36 -37 -128 -37 -159 0 -7 9 -12 19 -12 17 0 22
11 31 67 6 36 10 84 8 105 l-3 39 -18 -40z"/>
<path d="M6306 11551 c-4 -24 -5 -46 -2 -48 7 -7 19 63 14 79 -3 7 -8 -7 -12
-31z"/>
<path d="M6315 11230 c-4 -28 -5 -53 -2 -56 2 -3 7 19 11 47 4 28 5 53 3 56
-3 2 -8 -19 -12 -47z"/>
<path d="M6542 10920 c0 -19 2 -27 5 -17 2 9 2 25 0 35 -3 9 -5 1 -5 -18z"/>
<path d="M6494 10490 c0 -63 1 -89 3 -57 2 31 2 83 0 115 -2 31 -3 5 -3 -58z"/>
<path d="M9456 10383 c4 -65 8 -120 10 -122 2 -2 4 50 4 117 0 78 -4 122 -10
122 -7 0 -9 -38 -4 -117z"/>
<path d="M6892 10280 c0 -14 2 -19 5 -12 2 6 2 18 0 25 -3 6 -5 1 -5 -13z"/>
<path d="M8823 9612 c-13 -8 -109 -859 -99 -870 3 -3 6 -1 6 5 0 6 14 89 30
185 25 143 47 317 84 651 4 38 1 43 -21 29z"/>
<path d="M17505 18080 c-103 -9 -270 -44 -365 -75 -41 -14 -64 -23 -50 -20 84
17 230 24 322 15 55 -5 103 -11 105 -13 2 -2 -23 -9 -54 -16 -101 -23 -246
-72 -323 -111 -88 -45 -243 -152 -390 -270 -59 -47 -117 -93 -130 -103 -25
-18 -24 -18 5 -1 17 10 86 55 155 100 151 98 266 161 380 207 141 56 233 75
568 117 149 19 183 20 245 10 131 -22 361 -78 446 -109 134 -49 310 -148 441
-248 l45 -35 -50 48 c-123 117 -403 302 -570 377 -173 77 -237 96 -405 117
-159 21 -236 22 -375 10z"/>
<path d="M16300 17723 c-48 -109 -120 -315 -148 -423 -28 -109 -48 -212 -35
-180 3 8 36 87 74 175 109 256 181 446 175 461 -12 31 -45 15 -66 -33z"/>
<path d="M17510 17414 c-264 -34 -344 -56 -560 -153 -129 -58 -164 -82 -75
-51 58 20 296 72 302 66 2 -1 -75 -79 -170 -172 -167 -164 -176 -171 -295
-233 -172 -90 -214 -144 -159 -206 17 -20 43 -30 115 -45 103 -23 135 -37 263
-116 195 -119 459 -238 615 -275 77 -18 107 -21 224 -16 74 4 162 13 195 21
193 47 430 147 576 241 135 87 343 248 437 337 72 69 98 88 121 88 33 0 49 26
29 46 -7 7 -94 51 -193 97 -99 46 -276 132 -392 191 -125 62 -248 116 -299
131 -206 60 -499 79 -734 49z m184 -103 c3 -4 26 -11 50 -13 104 -12 165 -92
158 -206 -1 -12 -26 -47 -57 -78 -42 -43 -53 -60 -46 -72 22 -40 -34 -71 -61
-34 -9 12 -27 18 -56 20 -88 3 -151 61 -166 154 -5 33 -10 39 -24 33 -9 -4
-42 -9 -73 -12 -44 -4 -64 -1 -98 16 -23 12 -45 30 -48 39 -3 9 -13 25 -21 34
-14 16 -11 20 40 42 30 13 95 36 144 51 49 15 94 28 99 30 23 8 154 4 159 -4z
m716 -93 c52 -22 209 -94 348 -161 l254 -121 -36 -18 c-20 -10 -86 -67 -148
-126 -322 -307 -659 -485 -991 -523 -126 -14 -230 -3 -368 41 -120 37 -343
148 -482 239 -144 94 -156 100 -266 128 -52 13 -97 26 -100 29 -11 11 19 41
110 112 148 114 243 178 236 158 -17 -45 -18 -69 -2 -123 14 -49 28 -69 90
-129 131 -129 287 -182 505 -171 184 9 311 55 449 162 175 134 251 284 251
494 l0 63 28 -7 c15 -3 70 -24 122 -47z m-1035 -204 c23 -9 46 -60 39 -88 -21
-87 -134 -73 -134 16 0 59 43 92 95 72z m187 -151 c24 -22 23 -78 -2 -103 -30
-30 -83 -27 -109 6 -28 36 -26 70 5 101 20 20 31 24 57 19 17 -3 39 -14 49
-23z"/>
<path d="M19650 17326 c0 -2 25 -38 55 -78 111 -147 145 -259 152 -509 6 -188
-4 -286 -46 -452 -72 -283 -206 -555 -380 -772 -91 -114 -205 -236 -279 -300
-39 -33 -69 -62 -67 -64 7 -6 130 67 193 114 74 56 209 213 303 354 164 244
295 586 329 863 17 131 9 399 -15 498 -21 89 -38 126 -98 205 -39 52 -147 156
-147 141z"/>
<path d="M17360 16000 c14 -11 66 -40 115 -65 222 -111 554 -142 761 -71 104
35 116 43 112 74 -4 38 -35 39 -107 2 -78 -39 -145 -56 -256 -64 -183 -15
-391 24 -565 105 -50 23 -75 31 -60 19z"/>
<path d="M7160 18229 c-303 -61 -489 -113 -635 -176 -178 -77 -528 -275 -752
-425 -109 -72 -144 -105 -45 -42 212 137 705 386 951 481 l115 44 45 -17 c26
-9 160 -66 300 -126 140 -60 256 -106 259 -103 7 6 17 0 -108 61 -58 29 -166
86 -240 128 -74 42 -141 76 -150 76 -13 1 -13 2 1 10 20 12 323 90 349 90 10
0 22 5 25 10 8 13 0 12 -115 -11z"/>
<path d="M4987 17853 c-166 -217 -266 -435 -326 -715 -40 -185 -49 -431 -21
-573 l8 -40 1 50 c1 28 5 77 11 110 5 33 16 125 25 205 20 176 43 293 85 425
30 95 144 351 230 518 22 42 38 77 36 77 -3 0 -25 -26 -49 -57z"/>
<path d="M6535 17480 c-28 -4 -77 -15 -110 -25 -100 -28 -379 -141 -457 -184
-40 -22 -120 -56 -178 -76 -202 -70 -350 -166 -350 -225 0 -35 225 -252 337
-326 126 -82 316 -159 462 -185 110 -20 357 -28 456 -14 202 28 427 113 545
206 50 38 235 202 285 251 11 11 -52 -24 -140 -78 -264 -161 -474 -252 -640
-279 -431 -69 -815 33 -1085 290 -47 44 -102 94 -123 109 l-38 29 23 24 c38
41 169 97 437 187 139 47 255 86 257 86 3 0 -6 -19 -18 -42 -20 -37 -23 -58
-23 -143 0 -89 3 -106 28 -156 44 -91 98 -144 192 -190 116 -56 202 -72 350
-66 144 6 209 22 335 84 77 37 109 60 170 122 41 42 86 99 100 126 14 28 26
52 27 54 1 1 70 -42 154 -98 84 -56 158 -101 166 -101 33 0 0 43 -137 175
-148 143 -261 235 -337 274 -24 12 -43 23 -43 24 0 11 227 -29 280 -49 138
-51 168 -39 85 34 -102 90 -242 136 -494 161 -115 12 -438 13 -516 1z m463
-160 c42 -16 87 -37 100 -45 26 -19 29 -45 5 -45 -10 0 -28 -8 -40 -18 -21
-16 -22 -19 -7 -63 14 -42 14 -49 -4 -95 -24 -60 -68 -94 -124 -94 -73 0 -126
85 -99 161 12 35 8 49 -17 49 -48 0 -192 116 -192 155 0 16 38 20 203 23 87 2
106 -1 175 -28z m-380 -92 c28 -28 3 -66 -33 -52 -25 10 -12 64 15 64 3 0 11
-5 18 -12z m82 -127 c22 -41 -30 -108 -75 -97 -32 8 -34 45 -3 86 25 35 62 40
78 11z"/>
<path d="M5895 16491 c236 -117 428 -156 720 -148 161 4 193 8 304 37 118 30
304 99 325 120 22 22 -4 17 -91 -16 -51 -19 -148 -48 -215 -65 -110 -28 -143
-32 -308 -36 -143 -4 -207 -1 -280 11 -163 28 -321 66 -420 100 -52 18 -104
36 -115 40 -11 3 25 -16 80 -43z"/>
<path d="M7020 16179 c-105 -69 -323 -175 -400 -195 -79 -20 -211 -15 -375 15
-125 23 -155 25 -155 11 0 -17 38 -27 215 -59 270 -50 335 -41 504 66 134 86
318 221 289 212 -2 0 -37 -23 -78 -50z"/>
<path d="M20692 16914 c-4 -101 -52 -201 -141 -297 -40 -43 -42 -49 -21 -42
124 38 174 127 167 301 -1 49 -4 66 -5 38z"/>
<path d="M20030 15567 c0 -64 -34 -325 -65 -492 -49 -272 -174 -720 -254 -914
-17 -41 -29 -76 -27 -78 8 -8 136 268 190 409 134 350 186 611 186 929 0 136
-3 169 -15 179 -13 11 -15 6 -15 -33z"/>
<path d="M16262 13433 c2 -353 7 -645 11 -649 4 -4 9 -5 11 -3 13 12 37 430
47 797 l12 414 -42 41 -43 42 4 -642z"/>
<path d="M16406 13785 c3 -66 9 -331 13 -589 4 -343 9 -470 18 -473 18 -6 22
84 26 612 l4 491 -34 39 -34 40 7 -120z"/>
<path d="M16502 13344 c-1 -242 -5 -489 -9 -547 -5 -95 -4 -107 10 -107 16 0
17 37 16 443 -1 243 -5 489 -9 547 -4 67 -7 -55 -8 -336z"/>
<path d="M16554 13540 c3 -113 6 -355 6 -537 l0 -332 29 -15 28 -15 8 82 c4
45 4 279 0 519 l-8 437 -35 33 -35 33 7 -205z"/>
<path d="M16703 13454 c4 -87 10 -318 13 -512 l7 -353 28 -14 27 -14 6 122 c8
164 12 451 8 677 l-3 185 -46 34 -46 34 6 -159z"/>
<path d="M16662 13103 c-1 -312 2 -484 8 -488 11 -7 12 340 1 730 -6 212 -7
184 -9 -242z"/>
<path d="M16365 13368 c-3 -84 -13 -245 -21 -357 -18 -261 -19 -246 11 -259
l25 -12 0 390 c0 215 -2 390 -4 390 -2 0 -7 -69 -11 -152z"/>
<path d="M16825 13107 c-1 -221 -4 -438 -8 -483 -7 -80 -7 -81 19 -93 15 -6
27 -10 29 -9 1 2 -4 134 -11 293 -7 160 -13 379 -13 487 -1 108 -4 199 -8 201
-5 3 -8 -176 -8 -396z"/>
<path d="M16870 13338 c0 -162 28 -840 35 -847 17 -16 20 61 19 480 -1 438 -2
470 -19 489 -10 11 -22 20 -27 20 -4 0 -8 -64 -8 -142z"/>
<path d="M16996 13374 c-3 -16 -11 -121 -17 -234 -10 -189 -8 -372 7 -607 6
-91 7 -93 39 -112 l32 -19 6 112 c22 367 -1 827 -43 870 -17 18 -18 18 -24
-10z"/>
<path d="M15637 13333 c-4 -3 -7 -11 -7 -17 0 -6 5 -5 12 2 6 6 9 14 7 17 -3
3 -9 2 -12 -2z"/>
<path d="M17096 13248 c4 -46 17 -135 29 -198 l22 -115 -5 180 c-4 142 -8 184
-20 198 -27 31 -33 18 -26 -65z"/>
<path d="M15591 13304 c0 -11 3 -14 6 -6 3 7 2 16 -1 19 -3 4 -6 -2 -5 -13z"/>
<path d="M17170 13249 c1 -19 7 -160 15 -314 12 -231 18 -298 39 -380 l24
-100 1 104 c1 97 -32 597 -44 667 -3 18 -12 37 -20 44 -13 11 -15 7 -15 -21z"/>
<path d="M17260 13038 l15 -183 3 156 c2 145 -5 209 -25 209 -5 0 -1 -82 7
-182z"/>
<path d="M17314 13054 c3 -66 11 -236 16 -379 5 -143 13 -314 16 -381 l6 -121
40 -44 39 -44 -5 180 c-7 229 -36 803 -41 831 -3 12 -21 34 -41 49 l-36 27 6
-118z"/>
<path d="M17444 12995 c16 -182 36 -547 42 -764 5 -172 11 -244 20 -251 20
-17 27 200 22 623 l-5 379 -43 41 -42 42 6 -70z"/>
<path d="M17571 12914 c0 -11 7 -59 14 -109 l12 -90 2 96 c1 75 -2 99 -14 109
-12 10 -15 9 -14 -6z"/>
<path d="M17106 12730 c-4 -96 -6 -217 -4 -268 3 -93 3 -93 36 -114 l33 -21
-7 184 c-5 129 -14 216 -29 289 l-22 105 -7 -175z"/>
<path d="M17641 12735 c0 -174 15 -525 23 -532 3 -4 8 -4 10 -2 7 7 25 250 31
419 l6 165 -35 40 -36 40 1 -130z"/>
<path d="M17283 12780 c0 -30 2 -43 4 -27 2 15 2 39 0 55 -2 15 -4 2 -4 -28z"/>
<path d="M17766 12600 c-11 -214 -15 -313 -12 -309 4 4 46 332 46 360 0 8 -6
24 -14 34 -12 17 -14 7 -20 -85z"/>
<path d="M17572 12360 c-1 -199 0 -212 13 -175 19 51 19 192 1 305 l-13 85 -1
-215z"/>
<path d="M17846 12413 c-4 -76 -9 -181 -11 -233 l-4 -95 22 148 c14 97 27 151
36 157 12 7 12 17 -3 72 -9 35 -21 69 -25 77 -5 7 -11 -48 -15 -126z"/>
<path d="M17201 12389 c-1 -74 2 -88 19 -104 11 -10 22 -16 25 -13 3 3 -5 50
-19 104 l-24 99 -1 -86z"/>
<path d="M17906 12185 c-16 -408 -37 -683 -72 -952 -9 -67 -14 -127 -12 -133
2 -6 21 107 42 252 22 145 55 362 75 483 l37 221 -28 139 c-16 77 -30 145 -31
150 -2 6 -7 -66 -11 -160z"/>
<path d="M17303 12275 c0 -27 2 -38 4 -22 2 15 2 37 0 50 -2 12 -4 0 -4 -28z"/>
<path d="M17691 12024 c0 -11 3 -14 6 -6 3 7 2 16 -1 19 -3 4 -6 -2 -5 -13z"/>
<path d="M17641 12014 c0 -11 3 -14 6 -6 3 7 2 16 -1 19 -3 4 -6 -2 -5 -13z"/>
<path d="M17791 11399 c-29 -270 -51 -493 -48 -495 6 -6 54 351 76 571 21 208
36 415 29 415 -2 0 -27 -221 -57 -491z"/>
<path d="M17655 11828 c-4 -18 -14 -52 -22 -76 -12 -37 -12 -51 2 -119 9 -43
17 -79 19 -80 1 -1 10 55 20 125 15 113 15 131 2 156 l-14 28 -7 -34z"/>
<path d="M18935 11720 c-33 -45 -103 -225 -92 -236 2 -3 18 26 35 63 17 38 46
103 66 146 19 42 34 77 32 77 -3 0 -21 -23 -41 -50z"/>
<path d="M18032 11690 c0 -19 2 -27 5 -17 2 9 2 25 0 35 -3 9 -5 1 -5 -18z"/>
<path d="M17956 11200 c-37 -250 -86 -554 -107 -675 -50 -288 -52 -305 -28
-210 11 44 36 168 55 275 40 223 156 1027 152 1050 -2 8 -34 -190 -72 -440z"/>
<path d="M18736 11511 c-10 -11 -33 -79 -51 -153 -19 -73 -37 -141 -40 -150
-4 -10 -5 -18 -2 -18 3 0 12 19 20 43 8 23 36 99 61 170 44 124 47 147 12 108z"/>
<path d="M18560 11382 l-44 -29 -52 -219 c-29 -120 -51 -220 -50 -222 2 -1 35
80 74 180 85 217 123 318 119 318 -1 0 -22 -13 -47 -28z"/>
<path d="M18241 11216 c-13 -77 -38 -221 -57 -320 -35 -181 -42 -251 -10 -109
19 84 116 551 116 557 0 2 -6 6 -13 9 -10 4 -19 -30 -36 -137z"/>
<path d="M18276 11088 c-64 -317 -64 -320 -10 -138 50 171 95 361 87 372 -18
31 -32 -11 -77 -234z"/>
<path d="M18411 11134 c0 -11 3 -14 6 -6 3 7 2 16 -1 19 -3 4 -6 -2 -5 -13z"/>
<path d="M17812 11055 c0 -16 2 -22 5 -12 2 9 2 23 0 30 -3 6 -5 -1 -5 -18z"/>
<path d="M17802 10980 c0 -14 2 -19 5 -12 2 6 2 18 0 25 -3 6 -5 1 -5 -13z"/>
<path d="M17792 10920 c0 -14 2 -19 5 -12 2 6 2 18 0 25 -3 6 -5 1 -5 -13z"/>
<path d="M17732 10860 c0 -19 2 -27 5 -17 2 9 2 25 0 35 -3 9 -5 1 -5 -18z"/>
<path d="M17781 10854 c0 -11 3 -14 6 -6 3 7 2 16 -1 19 -3 4 -6 -2 -5 -13z"/>
<path d="M17721 10794 c0 -11 3 -14 6 -6 3 7 2 16 -1 19 -3 4 -6 -2 -5 -13z"/>
<path d="M17771 10794 c0 -11 3 -14 6 -6 3 7 2 16 -1 19 -3 4 -6 -2 -5 -13z"/>
<path d="M17761 10734 c0 -11 3 -14 6 -6 3 7 2 16 -1 19 -3 4 -6 -2 -5 -13z"/>
<path d="M18141 10684 c0 -11 3 -14 6 -6 3 7 2 16 -1 19 -3 4 -6 -2 -5 -13z"/>
<path d="M17711 10454 c0 -11 3 -14 6 -6 3 7 2 16 -1 19 -3 4 -6 -2 -5 -13z"/>
<path d="M17701 10404 c0 -11 3 -14 6 -6 3 7 2 16 -1 19 -3 4 -6 -2 -5 -13z"/>
<path d="M15203 10350 c0 -25 2 -35 4 -22 2 12 2 32 0 45 -2 12 -4 2 -4 -23z"/>
<path d="M17363 10210 l-42 -69 -21 -257 c-12 -141 -19 -258 -17 -260 11 -11
133 622 125 647 -2 5 -22 -22 -45 -61z"/>
<path d="M17791 10214 c0 -11 3 -14 6 -6 3 7 2 16 -1 19 -3 4 -6 -2 -5 -13z"/>
<path d="M17781 10164 c0 -11 3 -14 6 -6 3 7 2 16 -1 19 -3 4 -6 -2 -5 -13z"/>
<path d="M15182 10115 c0 -16 2 -22 5 -12 2 9 2 23 0 30 -3 6 -5 -1 -5 -18z"/>
<path d="M15473 10055 c0 -22 2 -30 4 -17 2 12 2 30 0 40 -3 9 -5 -1 -4 -23z"/>
<path d="M15197 9995 c3 -49 7 -92 9 -94 7 -7 3 82 -6 134 -6 37 -7 26 -3 -40z"/>
<path d="M17236 10028 c-13 -22 -42 -165 -34 -173 2 -2 15 41 29 96 15 54 25
99 23 99 -2 0 -10 -10 -18 -22z"/>
<path d="M17118 9912 c-20 -22 -30 -53 -52 -162 -37 -190 -98 -552 -93 -556 2
-2 20 10 40 27 46 38 49 52 82 314 14 116 33 252 42 303 8 51 13 95 11 97 -3
3 -16 -8 -30 -23z"/>
<path d="M17227 9777 c-34 -146 -88 -418 -85 -428 2 -4 18 5 36 21 28 23 34
37 42 91 14 101 42 420 38 425 -3 2 -16 -47 -31 -109z"/>
<path d="M15213 9840 c0 -25 2 -35 4 -22 2 12 2 32 0 45 -2 12 -4 2 -4 -23z"/>
<path d="M16371 9704 c-7 -97 -11 -178 -9 -180 3 -2 10 58 17 134 6 75 14 156
17 180 4 23 2 42 -3 42 -5 0 -15 -79 -22 -176z"/>
<path d="M16435 9775 c-4 -48 -5 -89 -2 -91 2 -3 8 34 12 81 4 48 5 89 2 91
-2 3 -8 -34 -12 -81z"/>
<path d="M15521 9735 c-1 -128 13 -634 26 -925 6 -156 8 -167 14 -105 18 167
30 422 36 717 l6 317 -29 -8 -29 -8 -11 66 -12 66 -1 -120z"/>
<path d="M17191 9824 c0 -11 3 -14 6 -6 3 7 2 16 -1 19 -3 4 -6 -2 -5 -13z"/>
<path d="M15822 9570 l1 -245 8 235 c6 152 5 238 -1 244 -7 7 -9 -74 -8 -234z"/>
<path d="M15731 9778 l-24 -8 7 -128 c13 -248 26 -579 27 -697 l2 -120 8 110
c5 61 8 277 6 481 l-2 371 -24 -9z"/>
<path d="M16423 9630 c0 -25 2 -35 4 -22 2 12 2 32 0 45 -2 12 -4 2 -4 -23z"/>
<path d="M16412 9535 c0 -16 2 -22 5 -12 2 9 2 23 0 30 -3 6 -5 -1 -5 -18z"/>
<path d="M16353 9470 c0 -25 2 -35 4 -22 2 12 2 32 0 45 -2 12 -4 2 -4 -23z"/>
<path d="M16402 9445 c0 -16 2 -22 5 -12 2 9 2 23 0 30 -3 6 -5 -1 -5 -18z"/>
<path d="M16342 9375 c0 -16 2 -22 5 -12 2 9 2 23 0 30 -3 6 -5 -1 -5 -18z"/>
<path d="M16392 9355 c0 -16 2 -22 5 -12 2 9 2 23 0 30 -3 6 -5 -1 -5 -18z"/>
<path d="M16651 9354 c0 -11 3 -14 6 -6 3 7 2 16 -1 19 -3 4 -6 -2 -5 -13z"/>
<path d="M16382 9270 c0 -19 2 -27 5 -17 2 9 2 25 0 35 -3 9 -5 1 -5 -18z"/>
<path d="M16373 9185 c0 -22 2 -30 4 -17 2 12 2 30 0 40 -3 9 -5 -1 -4 -23z"/>
<path d="M15410 8985 c0 -60 -2 -168 -4 -240 -3 -71 -3 -119 0 -105 10 58 21
426 13 440 -5 9 -9 -29 -9 -95z"/>
<path d="M8668 14979 c-40 -23 -7 -108 79 -201 32 -35 77 -86 100 -113 l43
-50 -35 60 c-19 33 -48 100 -65 149 -33 93 -53 132 -79 154 -18 14 -21 14 -43
1z"/>
<path d="M9122 13260 c0 -14 2 -19 5 -12 2 6 2 18 0 25 -3 6 -5 1 -5 -13z"/>
<path d="M9301 13704 c0 -11 3 -14 6 -6 3 7 2 16 -1 19 -3 4 -6 -2 -5 -13z"/>
<path d="M24655 25253 c-115 -81 -297 -268 -377 -388 -201 -301 -291 -641
-259 -983 43 -477 281 -872 699 -1161 l32 -22 0 43 c-1 42 -3 44 -81 103 -108
80 -262 241 -335 351 -106 159 -180 335 -221 524 -14 66 -18 130 -18 285 0
173 3 214 23 305 75 334 276 648 544 848 87 65 88 66 88 109 0 23 -3 43 -7 43
-5 0 -44 -26 -88 -57z"/>
<path d="M0 25246 c0 -43 1 -45 68 -92 106 -75 269 -245 345 -359 123 -187
199 -376 232 -580 20 -120 19 -356 -1 -476 -21 -126 -84 -313 -143 -426 -100
-189 -270 -387 -429 -498 -69 -49 -71 -51 -72 -94 l0 -43 28 18 c401 260 655
675 703 1146 19 195 -6 432 -67 618 -69 212 -230 467 -391 621 -77 74 -205
175 -250 198 -22 11 -23 10 -23 -33z"/>
<path d="M0 14851 l0 -115 142 -250 c387 -687 581 -1041 805 -1471 114 -218
401 -775 433 -840 18 -35 54 -44 97 -21 15 8 163 161 328 339 165 179 303 326
306 326 3 1 286 -722 628 -1606 343 -885 631 -1627 642 -1650 20 -47 54 -69
91 -60 17 5 82 90 233 307 115 165 212 296 215 292 5 -5 867 -3949 987 -4516
3 -11 -36 56 -85 149 -49 94 -143 262 -209 375 -206 351 -669 1123 -836 1395
-88 143 -166 270 -174 283 -20 33 -66 30 -95 -7 -29 -38 -639 -464 -648 -454
-4 5 -298 614 -654 1354 -356 740 -656 1360 -667 1377 -32 55 -63 45 -165 -51
-172 -160 -661 -547 -692 -547 -10 0 -120 164 -234 350 -84 135 -382 649 -414
712 -13 26 -27 48 -29 48 -3 0 -5 -49 -5 -108 l0 -108 166 -285 c173 -294 317
-528 411 -661 80 -115 74 -117 358 96 161 121 341 266 450 364 l90 81 46 -97
c65 -136 1188 -2469 1238 -2572 43 -87 54 -100 83 -100 10 0 152 94 315 208
417 292 389 273 401 259 58 -73 1002 -1654 1129 -1891 42 -77 118 -226 170
-331 52 -104 96 -191 98 -193 2 -2 20 -8 41 -12 42 -10 78 1 88 25 3 10 -158
774 -360 1699 -201 924 -446 2049 -544 2499 -125 576 -183 824 -195 838 -21
23 -58 25 -78 4 -8 -8 -111 -152 -228 -320 -117 -168 -215 -302 -219 -298 -4
4 -95 235 -203 513 -832 2152 -1072 2767 -1085 2783 -39 45 -40 44 -471 -420
-134 -145 -245 -263 -247 -263 -4 0 -89 162 -314 600 -293 568 -428 818 -857
1580 -110 195 -218 389 -241 430 l-42 75 0 -114z"/>
<path d="M24706 14757 c-21 -40 -146 -261 -276 -492 -360 -639 -538 -969 -890
-1655 -106 -206 -193 -376 -194 -378 -2 -1 -135 141 -297 315 -162 174 -309
332 -327 350 -34 35 -81 44 -100 21 -5 -7 -296 -753 -647 -1658 -351 -905
-638 -1646 -640 -1648 -1 -1 -102 142 -225 318 -217 312 -224 320 -256 320
-24 0 -38 -7 -48 -22 -20 -33 -1099 -4995 -1092 -5024 8 -29 46 -40 93 -28 34
9 40 19 182 299 81 160 160 313 176 340 339 587 1070 1795 1085 1795 4 0 159
-106 345 -236 186 -129 343 -238 350 -241 8 -2 22 0 33 6 12 6 263 518 677
1378 361 752 661 1372 665 1376 4 4 43 -25 87 -65 196 -180 678 -548 718 -548
7 0 21 3 30 6 33 13 222 305 454 700 l141 242 -1 108 c0 74 -3 104 -10 94 -5
-8 -92 -157 -193 -330 -187 -321 -263 -446 -368 -603 l-59 -88 -27 17 c-132
85 -495 375 -661 528 -57 53 -113 96 -123 96 -11 0 -28 -10 -39 -22 -11 -13
-315 -635 -675 -1383 -359 -748 -658 -1361 -663 -1363 -15 -5 -640 438 -646
458 -10 32 -53 37 -79 9 -31 -33 -277 -434 -668 -1089 -378 -633 -478 -806
-573 -987 -38 -73 -70 -131 -72 -130 -1 2 217 1013 486 2248 269 1234 490
2253 493 2264 2 14 66 -70 217 -288 l215 -307 36 0 c22 0 43 7 53 18 8 9 300
751 647 1647 348 897 635 1635 639 1641 3 7 131 -123 306 -312 290 -313 344
-364 386 -364 25 0 29 6 231 400 380 742 552 1061 970 1802 l179 317 -3 109
-3 110 -39 -71z"/>
<path d="M23860 6590 c-523 -49 -977 -181 -1365 -398 -495 -276 -853 -650
-1099 -1149 -113 -228 -168 -382 -306 -859 -146 -502 -206 -666 -307 -840
-128 -218 -308 -381 -511 -464 -163 -66 -326 -91 -600 -91 -405 0 -601 35
-1270 227 -873 251 -1288 323 -1800 311 -202 -4 -273 -10 -392 -30 -331 -58
-598 -170 -847 -356 -49 -36 -231 -207 -408 -381 -335 -331 -441 -422 -640
-555 -245 -164 -459 -251 -743 -305 -740 -138 -1810 77 -3532 710 -1172 431
-2096 820 -3245 1365 -584 277 -898 415 -1313 576 -1104 429 -1843 593 -2682
592 -902 0 -1652 -167 -2625 -585 l-170 -73 -3 -82 c-2 -46 -1 -83 1 -83 3 0
40 16 83 36 244 111 675 278 922 358 749 241 1513 328 2272 260 612 -55 1198
-203 1995 -504 456 -172 817 -328 1445 -625 862 -408 1394 -642 2129 -936
1295 -520 2297 -862 2996 -1024 586 -136 968 -184 1355 -172 566 18 969 168
1419 527 116 92 233 203 516 487 288 289 433 396 670 498 257 109 517 155 885
155 223 0 394 -15 626 -54 299 -51 480 -95 1015 -246 728 -207 919 -241 1340
-241 292 0 459 25 652 101 265 103 480 313 635 618 86 168 147 341 261 733
150 519 195 646 312 884 132 270 281 477 492 682 470 457 1097 719 1875 784
143 12 749 7 820 -7 l32 -6 0 75 0 75 -32 6 c-54 11 -755 15 -858 6z"/>
<path d="M24315 5129 c-419 -39 -791 -162 -1085 -358 -359 -238 -598 -576
-775 -1091 -52 -153 -91 -298 -166 -615 -114 -487 -206 -725 -360 -935 -93
-128 -198 -212 -352 -285 -320 -151 -754 -185 -1272 -99 -288 48 -515 104
-1190 293 -966 270 -1346 341 -1820 341 -465 0 -857 -100 -1327 -336 -202
-102 -383 -211 -748 -450 -716 -469 -1035 -628 -1406 -703 -276 -55 -667 -72
-964 -43 -645 65 -1060 156 -1868 413 -782 248 -1349 461 -3047 1141 -1694
680 -2300 896 -3050 1088 -591 152 -969 204 -1485 203 -559 0 -1085 -70 -1695
-225 -502 -127 -1169 -401 -1595 -653 l-110 -66 0 -71 0 -70 23 14 c268 173
658 364 1067 523 833 324 1902 486 2740 414 393 -34 784 -112 1315 -264 675
-193 1221 -393 2660 -970 1902 -763 2546 -1001 3435 -1270 781 -235 1386 -339
1975 -339 503 0 847 80 1279 296 188 94 343 190 936 575 280 181 411 259 600
354 308 154 572 243 880 295 129 21 494 30 657 15 411 -38 723 -106 1564 -341
908 -254 1208 -315 1604 -327 302 -9 526 19 745 94 324 110 523 288 685 613
97 194 152 367 255 805 98 419 173 650 285 880 227 465 563 757 1056 919 251
82 449 114 772 123 l217 6 0 58 0 59 -172 -1 c-95 -1 -213 -5 -263 -10z"/>
<path d="M24627 3934 c-633 -184 -1106 -578 -1391 -1157 -82 -168 -123 -272
-231 -587 -164 -479 -274 -685 -465 -879 -120 -121 -224 -189 -400 -263 -299
-124 -655 -149 -1205 -82 -301 36 -520 76 -1290 235 -1012 209 -1330 257
-1839 279 -530 22 -967 -38 -1456 -200 -524 -173 -838 -327 -1510 -742 -441
-272 -654 -378 -990 -493 l-125 -43 142 -1 c142 -1 143 -1 235 36 162 65 436
207 653 339 116 70 314 190 440 266 558 338 1158 580 1690 682 270 51 386 61
735 60 578 -1 872 -41 2065 -287 814 -168 1044 -208 1390 -243 228 -22 564
-23 710 0 435 65 762 260 984 585 124 183 196 342 326 721 130 383 215 578
341 780 268 433 690 748 1203 898 56 17 105 32 107 35 3 3 4 25 2 50 l-3 45
-118 -34z"/>
<path d="M24635 2879 c-286 -204 -529 -453 -741 -763 -41 -61 -142 -212 -223
-336 -163 -248 -245 -357 -374 -500 -177 -194 -459 -430 -676 -564 -473 -292
-993 -386 -1811 -325 -192 14 -588 60 -1059 124 -694 92 -966 119 -1400 135
-608 22 -1254 -29 -1765 -141 -379 -83 -854 -244 -1291 -438 l-150 -66 81 -3
c72 -2 88 0 150 29 252 114 741 287 1014 358 786 205 1722 250 2765 130 99
-11 382 -47 629 -80 473 -62 798 -100 1031 -120 182 -16 678 -15 825 0 238 26
469 81 673 162 405 160 892 545 1201 949 87 115 109 146 318 465 181 275 280
407 418 556 106 115 275 263 408 357 88 64 92 68 92 104 0 21 -3 38 -7 38 -5
0 -53 -32 -108 -71z"/>
<path d="M3710 2559 c-771 -45 -1647 -284 -2462 -672 -292 -139 -745 -393
-1080 -606 l-168 -106 0 -59 0 -58 28 18 c743 488 1408 828 2064 1053 440 151
962 270 1388 317 200 22 676 30 881 15 657 -49 1397 -214 2354 -528 444 -145
994 -351 1910 -713 1145 -453 1734 -670 2605 -960 228 -77 506 -166 618 -199
l204 -61 186 1 187 0 -190 50 c-335 87 -825 242 -1450 459 -653 226 -1093 392
-2200 828 -951 374 -1382 535 -1840 685 -1289 423 -2206 585 -3035 536z"/>
<path d="M24580 1708 c-91 -85 -183 -175 -205 -200 -154 -177 -621 -671 -811
-858 -300 -296 -466 -437 -693 -592 l-85 -58 45 0 c49 0 75 15 244 144 240
182 605 536 1030 996 289 314 429 459 563 584 73 68 83 81 80 108 -3 30 -6 28
-168 -124z"/>
<path d="M4192 1819 c-454 -30 -1041 -172 -1560 -378 -513 -204 -1126 -567
-1604 -950 -174 -139 -424 -359 -508 -445 l-44 -46 48 0 c46 0 50 2 159 103
377 346 697 585 1138 850 457 275 843 448 1304 586 1036 309 1788 295 3180
-59 827 -211 1618 -491 2880 -1021 226 -94 565 -236 754 -316 l344 -144 85 3
84 3 -328 137 c-181 75 -549 229 -817 342 -1371 577 -2146 852 -3029 1075
-875 222 -1500 300 -2086 260z"/>
<path d="M4245 1233 c-686 -42 -1219 -169 -1820 -435 -406 -179 -876 -478
-1175 -748 l-55 -49 37 -1 c30 0 47 9 95 51 32 28 121 99 198 157 684 516
1514 847 2375 946 243 28 515 39 869 33 428 -7 681 -31 1131 -108 730 -124
1647 -424 2950 -964 260 -108 283 -116 336 -113 l57 3 -129 54 c-1918 804
-2921 1095 -4032 1171 -137 9 -706 11 -837 3z"/>
<path d="M24639 949 c-307 -268 -656 -537 -1024 -790 -100 -68 -192 -132 -205
-141 -24 -16 12 -17 658 -17 l682 -1 0 520 c0 286 -2 520 -3 520 -2 0 -51 -41
-108 -91z"/>
<path d="M4440 700 c-618 -40 -1204 -157 -1820 -365 -281 -95 -551 -214 -705
-309 l-40 -25 3265 0 c1811 0 3258 3 3250 8 -33 19 -499 188 -735 266 -732
244 -1263 353 -2025 416 -172 14 -1012 20 -1190 9z"/>
<path d="M18360 243 c-464 -9 -923 -71 -1405 -191 l-190 -47 87 -3 c69 -2 114
4 215 27 502 116 899 161 1427 161 492 0 941 -52 1423 -166 73 -17 130 -24
195 -23 l93 1 -150 39 c-418 109 -912 183 -1285 195 -91 2 -194 5 -230 7 -36
1 -117 1 -180 0z"/>
</g>
</svg>
